<svg xmlns="http://www.w3.org/2000/svg" xmlns:xlink="http://www.w3.org/1999/xlink" width="500" zoomAndPan="magnify" viewBox="0 0 375 374.999991" height="500" preserveAspectRatio="xMidYMid meet" version="1.0"><defs><clipPath id="27e8f70bf1"><path d="M 187 219 L 317.046875 219 L 317.046875 375 L 187 375 Z M 187 219 " clip-rule="nonzero"/></clipPath><clipPath id="407d281257"><path d="M 278 316 L 317.046875 316 L 317.046875 343 L 278 343 Z M 278 316 " clip-rule="nonzero"/></clipPath><clipPath id="3ea19adf5c"><path d="M 278 342 L 317.046875 342 L 317.046875 375 L 278 375 Z M 278 342 " clip-rule="nonzero"/></clipPath><clipPath id="9254176b0e"><path d="M 58.296875 219 L 188 219 L 188 375 L 58.296875 375 Z M 58.296875 219 " clip-rule="nonzero"/></clipPath><clipPath id="57f07b7cfb"><path d="M 58.296875 310 L 98 310 L 98 375 L 58.296875 375 Z M 58.296875 310 " clip-rule="nonzero"/></clipPath></defs><g clip-path="url(#27e8f70bf1)"><path fill="#e9f1f2" d="M 187.671875 374.839844 L 317.046875 374.839844 L 317.046875 284.398438 C 317.046875 248.722656 288.085938 219.800781 252.359375 219.800781 L 187.671875 219.800781 Z M 187.671875 374.839844 " fill-opacity="1" fill-rule="nonzero"/></g><path fill="#d0d8da" d="M 265.296875 374.839844 L 278.234375 374.839844 L 278.234375 284.398438 C 271.085938 284.398438 265.296875 290.179688 265.296875 297.320312 Z M 265.296875 374.839844 " fill-opacity="1" fill-rule="nonzero"/><path fill="#d0d8da" d="M 187.671875 258.558594 L 213.546875 258.558594 L 226.484375 239.179688 L 226.484375 187.5 L 187.671875 187.5 Z M 187.671875 258.558594 " fill-opacity="1" fill-rule="nonzero"/><path fill="#a2bdcd" d="M 187.671875 303.777344 L 226.484375 303.777344 L 226.484375 329.617188 L 187.671875 329.617188 Z M 187.671875 303.777344 " fill-opacity="1" fill-rule="nonzero"/><path fill="#769fb6" d="M 226.484375 303.777344 L 252.359375 303.777344 L 252.359375 329.617188 L 226.484375 329.617188 Z M 226.484375 303.777344 " fill-opacity="1" fill-rule="nonzero"/><path fill="#608ea9" d="M 265.296875 265.019531 C 265.296875 265.867188 265.210938 266.707031 265.046875 267.539062 C 264.882812 268.371094 264.636719 269.179688 264.3125 269.964844 C 263.984375 270.746094 263.585938 271.492188 263.113281 272.199219 C 262.644531 272.902344 262.105469 273.554688 261.507812 274.15625 C 260.90625 274.753906 260.25 275.289062 259.546875 275.761719 C 258.839844 276.234375 258.09375 276.632812 257.308594 276.957031 C 256.523438 277.28125 255.714844 277.527344 254.882812 277.691406 C 254.046875 277.855469 253.207031 277.9375 252.359375 277.9375 C 251.507812 277.9375 250.667969 277.855469 249.832031 277.691406 C 249 277.527344 248.191406 277.28125 247.40625 276.957031 C 246.621094 276.632812 245.875 276.234375 245.171875 275.761719 C 244.464844 275.289062 243.808594 274.753906 243.210938 274.15625 C 242.609375 273.554688 242.074219 272.902344 241.601562 272.199219 C 241.128906 271.492188 240.730469 270.746094 240.40625 269.964844 C 240.082031 269.179688 239.835938 268.371094 239.667969 267.539062 C 239.503906 266.707031 239.421875 265.867188 239.421875 265.019531 C 239.421875 264.171875 239.503906 263.332031 239.667969 262.5 C 239.835938 261.667969 240.082031 260.859375 240.40625 260.074219 C 240.730469 259.292969 241.128906 258.546875 241.601562 257.839844 C 242.074219 257.136719 242.609375 256.484375 243.210938 255.882812 C 243.808594 255.285156 244.464844 254.75 245.171875 254.277344 C 245.875 253.804688 246.621094 253.40625 247.40625 253.082031 C 248.191406 252.757812 249 252.511719 249.832031 252.347656 C 250.667969 252.183594 251.507812 252.097656 252.359375 252.097656 C 253.207031 252.097656 254.046875 252.183594 254.882812 252.347656 C 255.714844 252.511719 256.523438 252.757812 257.308594 253.082031 C 258.09375 253.40625 258.839844 253.804688 259.546875 254.277344 C 260.25 254.75 260.90625 255.285156 261.507812 255.882812 C 262.105469 256.484375 262.644531 257.136719 263.113281 257.839844 C 263.585938 258.546875 263.984375 259.292969 264.3125 260.074219 C 264.636719 260.859375 264.882812 261.667969 265.046875 262.5 C 265.210938 263.332031 265.296875 264.171875 265.296875 265.019531 Z M 265.296875 265.019531 " fill-opacity="1" fill-rule="nonzero"/><g clip-path="url(#407d281257)"><path fill="#a2bdcd" d="M 278.234375 316.699219 L 317.046875 316.699219 L 317.046875 342.539062 L 278.234375 342.539062 Z M 278.234375 316.699219 " fill-opacity="1" fill-rule="nonzero"/></g><g clip-path="url(#3ea19adf5c)"><path fill="#e9f1f2" d="M 278.234375 342.539062 L 317.046875 342.539062 L 317.046875 374.839844 L 278.234375 374.839844 Z M 278.234375 342.539062 " fill-opacity="1" fill-rule="nonzero"/></g><path fill="#e9f1f2" d="M 187.671875 200.417969 L 187.671875 0.160156 C 230.539062 0.160156 265.296875 34.871094 265.296875 77.679688 L 265.296875 122.898438 C 265.296875 165.710938 230.539062 200.417969 187.671875 200.417969 Z M 187.671875 200.417969 " fill-opacity="1" fill-rule="nonzero"/><path fill="#d0d8da" d="M 248.515625 29.636719 C 234.296875 11.707031 212.355469 0.160156 187.671875 0.160156 L 187.671875 51.839844 L 232.953125 51.839844 Z M 248.515625 29.636719 " fill-opacity="1" fill-rule="nonzero"/><path fill="#4f7992" d="M 239.421875 97.058594 C 239.421875 97.910156 239.335938 98.75 239.171875 99.582031 C 239.007812 100.414062 238.761719 101.222656 238.4375 102.003906 C 238.109375 102.789062 237.710938 103.53125 237.238281 104.238281 C 236.769531 104.945312 236.230469 105.597656 235.632812 106.195312 C 235.03125 106.796875 234.375 107.332031 233.671875 107.804688 C 232.964844 108.273438 232.21875 108.671875 231.433594 108.996094 C 230.648438 109.320312 229.839844 109.566406 229.007812 109.730469 C 228.171875 109.898438 227.332031 109.980469 226.484375 109.980469 C 225.632812 109.980469 224.792969 109.898438 223.957031 109.730469 C 223.125 109.566406 222.316406 109.320312 221.53125 108.996094 C 220.746094 108.671875 220 108.273438 219.296875 107.804688 C 218.589844 107.332031 217.933594 106.796875 217.335938 106.195312 C 216.734375 105.597656 216.199219 104.945312 215.726562 104.238281 C 215.253906 103.53125 214.855469 102.789062 214.53125 102.003906 C 214.207031 101.222656 213.960938 100.414062 213.792969 99.582031 C 213.628906 98.75 213.546875 97.910156 213.546875 97.058594 C 213.546875 96.210938 213.628906 95.371094 213.792969 94.539062 C 213.960938 93.707031 214.207031 92.898438 214.53125 92.117188 C 214.855469 91.332031 215.253906 90.589844 215.726562 89.882812 C 216.199219 89.175781 216.734375 88.523438 217.335938 87.925781 C 217.933594 87.324219 218.589844 86.789062 219.296875 86.316406 C 220 85.847656 220.746094 85.449219 221.53125 85.125 C 222.316406 84.800781 223.125 84.554688 223.957031 84.390625 C 224.792969 84.222656 225.632812 84.140625 226.484375 84.140625 C 227.332031 84.140625 228.171875 84.222656 229.007812 84.390625 C 229.839844 84.554688 230.648438 84.800781 231.433594 85.125 C 232.21875 85.449219 232.964844 85.847656 233.671875 86.316406 C 234.375 86.789062 235.03125 87.324219 235.632812 87.925781 C 236.230469 88.523438 236.769531 89.175781 237.238281 89.882812 C 237.710938 90.589844 238.109375 91.332031 238.4375 92.117188 C 238.761719 92.898438 239.007812 93.707031 239.171875 94.539062 C 239.335938 95.371094 239.421875 96.210938 239.421875 97.058594 Z M 239.421875 97.058594 " fill-opacity="1" fill-rule="nonzero"/><path fill="#b8bebf" d="M 213.546875 161.660156 L 213.546875 195.960938 C 205.460938 198.871094 196.726562 200.417969 187.671875 200.417969 L 187.671875 161.660156 Z M 213.546875 161.660156 " fill-opacity="1" fill-rule="nonzero"/><path fill="#d0d8da" d="M 265.296875 77.679688 L 291.171875 77.679688 L 291.171875 116.441406 L 265.296875 116.441406 Z M 265.296875 77.679688 " fill-opacity="1" fill-rule="nonzero"/><path fill="#769fb6" d="M 232.953125 97.058594 C 232.953125 97.484375 232.910156 97.90625 232.828125 98.320312 C 232.746094 98.738281 232.621094 99.140625 232.460938 99.53125 C 232.296875 99.925781 232.097656 100.296875 231.863281 100.648438 C 231.625 101.003906 231.355469 101.328125 231.058594 101.628906 C 230.757812 101.929688 230.429688 102.195312 230.078125 102.433594 C 229.722656 102.667969 229.351562 102.867188 228.957031 103.027344 C 228.566406 103.191406 228.160156 103.3125 227.746094 103.394531 C 227.328125 103.480469 226.90625 103.519531 226.484375 103.519531 C 226.058594 103.519531 225.636719 103.480469 225.222656 103.394531 C 224.804688 103.3125 224.398438 103.191406 224.007812 103.027344 C 223.613281 102.867188 223.242188 102.667969 222.890625 102.433594 C 222.535156 102.195312 222.210938 101.929688 221.910156 101.628906 C 221.609375 101.328125 221.339844 101.003906 221.105469 100.648438 C 220.867188 100.296875 220.667969 99.925781 220.507812 99.53125 C 220.34375 99.140625 220.222656 98.738281 220.136719 98.320312 C 220.054688 97.90625 220.015625 97.484375 220.015625 97.058594 C 220.015625 96.636719 220.054688 96.214844 220.136719 95.800781 C 220.222656 95.382812 220.34375 94.980469 220.507812 94.589844 C 220.667969 94.195312 220.867188 93.824219 221.105469 93.472656 C 221.339844 93.117188 221.609375 92.792969 221.910156 92.492188 C 222.210938 92.191406 222.535156 91.925781 222.890625 91.6875 C 223.242188 91.453125 223.613281 91.253906 224.007812 91.09375 C 224.398438 90.929688 224.804688 90.808594 225.222656 90.726562 C 225.636719 90.640625 226.058594 90.601562 226.484375 90.601562 C 226.90625 90.601562 227.328125 90.640625 227.746094 90.726562 C 228.160156 90.808594 228.566406 90.929688 228.957031 91.09375 C 229.351562 91.253906 229.722656 91.453125 230.078125 91.6875 C 230.429688 91.925781 230.757812 92.191406 231.058594 92.492188 C 231.355469 92.792969 231.625 93.117188 231.863281 93.472656 C 232.097656 93.824219 232.296875 94.195312 232.460938 94.589844 C 232.621094 94.980469 232.746094 95.382812 232.828125 95.800781 C 232.910156 96.214844 232.953125 96.636719 232.953125 97.058594 Z M 232.953125 97.058594 " fill-opacity="1" fill-rule="nonzero"/><path fill="#769fb6" d="M 258.828125 265.019531 C 258.828125 265.445312 258.785156 265.863281 258.703125 266.28125 C 258.621094 266.695312 258.496094 267.101562 258.335938 267.492188 C 258.171875 267.882812 257.972656 268.253906 257.738281 268.609375 C 257.5 268.960938 257.230469 269.289062 256.933594 269.585938 C 256.632812 269.886719 256.304688 270.15625 255.953125 270.390625 C 255.597656 270.625 255.226562 270.824219 254.832031 270.988281 C 254.441406 271.148438 254.035156 271.273438 253.621094 271.355469 C 253.203125 271.4375 252.78125 271.480469 252.359375 271.480469 C 251.933594 271.480469 251.511719 271.4375 251.097656 271.355469 C 250.679688 271.273438 250.273438 271.148438 249.882812 270.988281 C 249.488281 270.824219 249.117188 270.625 248.765625 270.390625 C 248.410156 270.15625 248.085938 269.886719 247.785156 269.585938 C 247.484375 269.289062 247.214844 268.960938 246.980469 268.609375 C 246.742188 268.253906 246.542969 267.882812 246.382812 267.492188 C 246.21875 267.101562 246.097656 266.695312 246.011719 266.28125 C 245.929688 265.863281 245.890625 265.445312 245.890625 265.019531 C 245.890625 264.59375 245.929688 264.175781 246.011719 263.757812 C 246.097656 263.34375 246.21875 262.9375 246.382812 262.546875 C 246.542969 262.15625 246.742188 261.785156 246.980469 261.429688 C 247.214844 261.078125 247.484375 260.75 247.785156 260.453125 C 248.085938 260.152344 248.410156 259.882812 248.765625 259.648438 C 249.117188 259.414062 249.488281 259.214844 249.882812 259.050781 C 250.273438 258.890625 250.679688 258.765625 251.097656 258.683594 C 251.511719 258.601562 251.933594 258.558594 252.359375 258.558594 C 252.78125 258.558594 253.203125 258.601562 253.621094 258.683594 C 254.035156 258.765625 254.441406 258.890625 254.832031 259.050781 C 255.226562 259.214844 255.597656 259.414062 255.953125 259.648438 C 256.304688 259.882812 256.632812 260.152344 256.933594 260.453125 C 257.230469 260.75 257.5 261.078125 257.738281 261.429688 C 257.972656 261.785156 258.171875 262.15625 258.335938 262.546875 C 258.496094 262.9375 258.621094 263.34375 258.703125 263.757812 C 258.785156 264.175781 258.828125 264.59375 258.828125 265.019531 Z M 258.828125 265.019531 " fill-opacity="1" fill-rule="nonzero"/><path fill="#769fb6" d="M 220.015625 26 C 220.015625 26.425781 219.972656 26.84375 219.890625 27.261719 C 219.808594 27.675781 219.683594 28.082031 219.523438 28.472656 C 219.359375 28.863281 219.160156 29.238281 218.925781 29.589844 C 218.6875 29.941406 218.417969 30.269531 218.121094 30.570312 C 217.820312 30.867188 217.492188 31.136719 217.140625 31.371094 C 216.785156 31.609375 216.414062 31.808594 216.019531 31.96875 C 215.628906 32.132812 215.222656 32.253906 214.808594 32.335938 C 214.390625 32.417969 213.96875 32.460938 213.546875 32.460938 C 213.121094 32.460938 212.699219 32.417969 212.285156 32.335938 C 211.867188 32.253906 211.460938 32.132812 211.070312 31.96875 C 210.675781 31.808594 210.304688 31.609375 209.953125 31.371094 C 209.597656 31.136719 209.273438 30.867188 208.972656 30.570312 C 208.671875 30.269531 208.402344 29.941406 208.167969 29.589844 C 207.929688 29.238281 207.730469 28.863281 207.570312 28.472656 C 207.40625 28.082031 207.285156 27.675781 207.199219 27.261719 C 207.117188 26.84375 207.078125 26.425781 207.078125 26 C 207.078125 25.578125 207.117188 25.15625 207.199219 24.742188 C 207.285156 24.324219 207.40625 23.921875 207.570312 23.527344 C 207.730469 23.136719 207.929688 22.765625 208.167969 22.410156 C 208.402344 22.058594 208.671875 21.734375 208.972656 21.433594 C 209.273438 21.132812 209.597656 20.867188 209.953125 20.628906 C 210.304688 20.394531 210.675781 20.195312 211.070312 20.03125 C 211.460938 19.871094 211.867188 19.746094 212.285156 19.664062 C 212.699219 19.582031 213.121094 19.539062 213.546875 19.539062 C 213.96875 19.539062 214.390625 19.582031 214.808594 19.664062 C 215.222656 19.746094 215.628906 19.871094 216.019531 20.03125 C 216.414062 20.195312 216.785156 20.394531 217.140625 20.628906 C 217.492188 20.867188 217.820312 21.132812 218.121094 21.433594 C 218.417969 21.734375 218.6875 22.058594 218.925781 22.410156 C 219.160156 22.765625 219.359375 23.136719 219.523438 23.527344 C 219.683594 23.921875 219.808594 24.324219 219.890625 24.742188 C 219.972656 25.15625 220.015625 25.578125 220.015625 26 Z M 220.015625 26 " fill-opacity="1" fill-rule="nonzero"/><path fill="#769fb6" d="M 207.078125 135.820312 C 207.078125 136.246094 207.035156 136.664062 206.953125 137.082031 C 206.871094 137.496094 206.746094 137.902344 206.585938 138.292969 C 206.421875 138.683594 206.222656 139.054688 205.988281 139.410156 C 205.75 139.761719 205.480469 140.089844 205.183594 140.386719 C 204.882812 140.6875 204.554688 140.957031 204.203125 141.191406 C 203.847656 141.425781 203.476562 141.625 203.082031 141.789062 C 202.691406 141.949219 202.285156 142.074219 201.871094 142.15625 C 201.453125 142.238281 201.03125 142.28125 200.609375 142.28125 C 200.183594 142.28125 199.761719 142.238281 199.347656 142.15625 C 198.929688 142.074219 198.523438 141.949219 198.132812 141.789062 C 197.738281 141.625 197.367188 141.425781 197.015625 141.191406 C 196.660156 140.957031 196.335938 140.6875 196.035156 140.386719 C 195.734375 140.089844 195.464844 139.761719 195.230469 139.410156 C 194.992188 139.054688 194.792969 138.683594 194.632812 138.292969 C 194.46875 137.902344 194.347656 137.496094 194.261719 137.082031 C 194.179688 136.664062 194.140625 136.246094 194.140625 135.820312 C 194.140625 135.394531 194.179688 134.976562 194.261719 134.558594 C 194.347656 134.144531 194.46875 133.738281 194.632812 133.347656 C 194.792969 132.957031 194.992188 132.585938 195.230469 132.230469 C 195.464844 131.878906 195.734375 131.550781 196.035156 131.253906 C 196.335938 130.953125 196.660156 130.683594 197.015625 130.449219 C 197.367188 130.214844 197.738281 130.015625 198.132812 129.851562 C 198.523438 129.691406 198.929688 129.566406 199.347656 129.484375 C 199.761719 129.402344 200.183594 129.359375 200.609375 129.359375 C 201.03125 129.359375 201.453125 129.402344 201.871094 129.484375 C 202.285156 129.566406 202.691406 129.691406 203.082031 129.851562 C 203.476562 130.015625 203.847656 130.214844 204.203125 130.449219 C 204.554688 130.683594 204.882812 130.953125 205.183594 131.253906 C 205.480469 131.550781 205.75 131.878906 205.988281 132.230469 C 206.222656 132.585938 206.421875 132.957031 206.585938 133.347656 C 206.746094 133.738281 206.871094 134.144531 206.953125 134.558594 C 207.035156 134.976562 207.078125 135.394531 207.078125 135.820312 Z M 207.078125 135.820312 " fill-opacity="1" fill-rule="nonzero"/><path fill="#608ea9" d="M 207.078125 374.839844 L 207.078125 355.457031 C 207.078125 351.894531 209.976562 349 213.546875 349 C 217.117188 349 220.015625 351.894531 220.015625 355.457031 L 220.015625 374.839844 Z M 207.078125 374.839844 " fill-opacity="1" fill-rule="nonzero"/><path fill="#608ea9" d="M 239.421875 374.839844 L 239.421875 355.457031 C 239.421875 351.894531 242.320312 349 245.890625 349 C 249.460938 349 252.359375 351.894531 252.359375 355.457031 L 252.359375 374.839844 Z M 239.421875 374.839844 " fill-opacity="1" fill-rule="nonzero"/><path fill="#769fb6" d="M 187.671875 219.800781 L 200.609375 219.800781 C 204.179688 219.800781 207.078125 222.695312 207.078125 226.257812 C 207.078125 229.824219 204.179688 232.71875 200.609375 232.71875 L 187.671875 232.71875 Z M 187.671875 219.800781 " fill-opacity="1" fill-rule="nonzero"/><path fill="#769fb6" d="M 253.003906 35.820312 L 238.125 55.714844 C 236.898438 57.332031 234.957031 58.300781 232.953125 58.300781 L 213.546875 58.300781 C 209.988281 58.300781 207.078125 55.394531 207.078125 51.839844 C 207.078125 48.289062 209.988281 45.378906 213.546875 45.378906 L 229.71875 45.378906 L 243.949219 26.386719 C 244.273438 26 244.59375 25.613281 244.984375 25.355469 C 247.960938 28.585938 250.675781 32.074219 253.003906 35.820312 Z M 253.003906 35.820312 " fill-opacity="1" fill-rule="nonzero"/><path fill="#769fb6" d="M 259.019531 153.585938 C 257.210938 157.847656 255.011719 161.855469 252.421875 165.664062 C 251.582031 165.277344 250.871094 164.632812 250.351562 163.792969 L 235.925781 142.28125 L 226.484375 142.28125 C 222.925781 142.28125 220.015625 139.375 220.015625 135.820312 C 220.015625 132.265625 222.925781 129.359375 226.484375 129.359375 L 239.421875 129.359375 C 241.554688 129.359375 243.625 130.457031 244.789062 132.265625 Z M 259.019531 153.585938 " fill-opacity="1" fill-rule="nonzero"/><path fill="#769fb6" d="M 297.640625 238.273438 L 297.640625 252.097656 C 297.640625 254.554688 296.28125 256.816406 294.082031 257.847656 L 268.207031 270.769531 C 267.234375 271.285156 266.265625 271.480469 265.296875 271.480469 C 262.902344 271.480469 260.636719 270.1875 259.539062 267.925781 C 257.921875 264.695312 259.214844 260.820312 262.382812 259.269531 L 284.703125 248.09375 L 284.703125 228.457031 C 289.425781 231.167969 293.757812 234.527344 297.640625 238.273438 Z M 297.640625 238.273438 " fill-opacity="1" fill-rule="nonzero"/><path fill="#a2bdcd" d="M 252.359375 284.398438 C 241.660156 284.398438 232.953125 275.703125 232.953125 265.019531 C 232.953125 254.335938 241.660156 245.640625 252.359375 245.640625 C 263.058594 245.640625 271.765625 254.335938 271.765625 265.019531 C 271.765625 275.703125 263.058594 284.398438 252.359375 284.398438 Z M 252.359375 258.558594 C 248.792969 258.558594 245.890625 261.460938 245.890625 265.019531 C 245.890625 268.578125 248.792969 271.480469 252.359375 271.480469 C 255.921875 271.480469 258.828125 268.578125 258.828125 265.019531 C 258.828125 261.460938 255.921875 258.558594 252.359375 258.558594 Z M 252.359375 258.558594 " fill-opacity="1" fill-rule="nonzero"/><g clip-path="url(#9254176b0e)"><path fill="#608ea9" d="M 187.671875 374.839844 L 58.296875 374.839844 L 58.296875 284.398438 C 58.296875 248.722656 87.257812 219.800781 122.984375 219.800781 L 187.671875 219.800781 Z M 187.671875 374.839844 " fill-opacity="1" fill-rule="nonzero"/></g><path fill="#f3a268" d="M 187.671875 258.558594 C 166.234375 258.558594 148.859375 241.207031 148.859375 219.800781 L 148.859375 187.5 L 187.671875 187.5 Z M 187.671875 258.558594 " fill-opacity="1" fill-rule="nonzero"/><g clip-path="url(#57f07b7cfb)"><path fill="#f6b98d" d="M 58.296875 310.238281 L 97.109375 310.238281 L 97.109375 374.839844 L 58.296875 374.839844 Z M 58.296875 310.238281 " fill-opacity="1" fill-rule="nonzero"/></g><path fill="#608ea9" d="M 187.671875 142.28125 C 134.082031 142.28125 90.640625 110.464844 90.640625 71.21875 C 90.640625 14.746094 116.832031 0.160156 187.671875 0.160156 Z M 187.671875 142.28125 " fill-opacity="1" fill-rule="nonzero"/><path fill="#f6b98d" d="M 187.671875 200.417969 C 144.800781 200.417969 110.046875 165.710938 110.046875 122.898438 L 110.046875 77.679688 L 122.984375 45.378906 C 139.777344 57.957031 160.203125 64.761719 181.203125 64.761719 L 187.671875 64.761719 Z M 187.671875 200.417969 " fill-opacity="1" fill-rule="nonzero"/><path fill="#f3a268" d="M 110.046875 116.441406 L 103.578125 116.441406 C 92.859375 116.441406 84.171875 107.765625 84.171875 97.058594 C 84.171875 86.355469 92.859375 77.679688 103.578125 77.679688 L 110.046875 77.679688 Z M 110.046875 116.441406 " fill-opacity="1" fill-rule="nonzero"/><path fill="#f9cdae" d="M 187.671875 168.121094 L 161.796875 168.121094 C 158.226562 168.121094 155.328125 165.226562 155.328125 161.660156 C 155.328125 158.09375 158.226562 155.199219 161.796875 155.199219 L 187.671875 155.199219 Z M 187.671875 168.121094 " fill-opacity="1" fill-rule="nonzero"/><path fill="#4f7992" d="M 161.796875 97.058594 C 161.121094 97.058594 160.429688 96.949219 159.75 96.726562 L 140.34375 90.265625 C 136.957031 89.132812 135.125 85.476562 136.257812 82.09375 C 137.382812 78.714844 141.039062 76.867188 144.441406 78.011719 L 163.847656 84.46875 C 167.234375 85.601562 169.066406 89.257812 167.933594 92.640625 C 167.027344 95.347656 164.503906 97.058594 161.796875 97.058594 Z M 161.796875 97.058594 " fill-opacity="1" fill-rule="nonzero"/><path fill="#4f7992" d="M 161.796875 109.980469 C 161.796875 110.40625 161.753906 110.824219 161.671875 111.242188 C 161.589844 111.65625 161.464844 112.0625 161.304688 112.453125 C 161.140625 112.84375 160.941406 113.214844 160.707031 113.570312 C 160.46875 113.921875 160.199219 114.25 159.902344 114.546875 C 159.601562 114.847656 159.273438 115.117188 158.921875 115.351562 C 158.566406 115.585938 158.195312 115.785156 157.800781 115.949219 C 157.410156 116.109375 157.003906 116.234375 156.589844 116.316406 C 156.171875 116.398438 155.75 116.441406 155.328125 116.441406 C 154.902344 116.441406 154.480469 116.398438 154.066406 116.316406 C 153.648438 116.234375 153.242188 116.109375 152.851562 115.949219 C 152.457031 115.785156 152.085938 115.585938 151.734375 115.351562 C 151.378906 115.117188 151.054688 114.847656 150.753906 114.546875 C 150.453125 114.25 150.183594 113.921875 149.949219 113.570312 C 149.710938 113.214844 149.511719 112.84375 149.351562 112.453125 C 149.1875 112.0625 149.066406 111.65625 148.980469 111.242188 C 148.898438 110.824219 148.859375 110.40625 148.859375 109.980469 C 148.859375 109.554688 148.898438 109.136719 148.980469 108.71875 C 149.066406 108.304688 149.1875 107.898438 149.351562 107.507812 C 149.511719 107.117188 149.710938 106.746094 149.949219 106.390625 C 150.183594 106.039062 150.453125 105.710938 150.753906 105.414062 C 151.054688 105.113281 151.378906 104.84375 151.734375 104.609375 C 152.085938 104.375 152.457031 104.175781 152.851562 104.011719 C 153.242188 103.851562 153.648438 103.726562 154.066406 103.644531 C 154.480469 103.5625 154.902344 103.519531 155.328125 103.519531 C 155.75 103.519531 156.171875 103.5625 156.589844 103.644531 C 157.003906 103.726562 157.410156 103.851562 157.800781 104.011719 C 158.195312 104.175781 158.566406 104.375 158.921875 104.609375 C 159.273438 104.84375 159.601562 105.113281 159.902344 105.414062 C 160.199219 105.710938 160.46875 106.039062 160.707031 106.390625 C 160.941406 106.746094 161.140625 107.117188 161.304688 107.507812 C 161.464844 107.898438 161.589844 108.304688 161.671875 108.71875 C 161.753906 109.136719 161.796875 109.554688 161.796875 109.980469 Z M 161.796875 109.980469 " fill-opacity="1" fill-rule="nonzero"/><path fill="#ef9050" d="M 103.578125 77.679688 L 110.046875 77.679688 L 110.046875 116.441406 L 103.578125 116.441406 Z M 103.578125 77.679688 " fill-opacity="1" fill-rule="nonzero"/><path fill="#b8bebf" d="M 265.296875 77.679688 L 271.765625 77.679688 L 271.765625 116.441406 L 265.296875 116.441406 Z M 265.296875 77.679688 " fill-opacity="1" fill-rule="nonzero"/><path fill="#93999a" d="M 226.484375 189.960938 C 215.058594 196.578125 201.824219 200.417969 187.671875 200.417969 L 187.671875 213.339844 C 201.824219 213.339844 215.058594 209.496094 226.484375 202.882812 Z M 226.484375 189.960938 " fill-opacity="1" fill-rule="nonzero"/><path fill="#ef9050" d="M 148.859375 202.882812 C 160.28125 209.496094 173.515625 213.339844 187.671875 213.339844 L 187.671875 200.417969 C 173.515625 200.417969 160.28125 196.578125 148.859375 189.960938 Z M 148.859375 202.882812 " fill-opacity="1" fill-rule="nonzero"/><path fill="#4f7992" d="M 110.046875 374.839844 L 97.109375 374.839844 L 97.109375 284.398438 C 104.257812 284.398438 110.046875 290.179688 110.046875 297.320312 Z M 110.046875 374.839844 " fill-opacity="1" fill-rule="nonzero"/></svg>