<svg xmlns="http://www.w3.org/2000/svg" xmlns:xlink="http://www.w3.org/1999/xlink" width="500" zoomAndPan="magnify" viewBox="0 0 375 374.999991" height="500" preserveAspectRatio="xMidYMid meet" version="1.0"><path fill="#93999a" d="M 109.914062 151.292969 C 159.570312 130.601562 215.429688 130.601562 265.085938 151.292969 L 265.085938 209.484375 L 109.914062 209.484375 Z M 109.914062 151.292969 " fill-opacity="1" fill-rule="nonzero"/><path fill="#7b828e" d="M 239.859375 142.746094 L 239.859375 168.574219 C 239.859375 175.71875 234.070312 181.507812 226.925781 181.507812 L 149.339844 181.507812 C 142.195312 181.507812 136.410156 175.71875 136.410156 168.574219 L 136.410156 142.398438 C 134.25 142.964844 132.089844 143.554688 129.945312 144.1875 L 129.945312 168.574219 C 129.945312 179.269531 138.648438 187.972656 149.339844 187.972656 L 226.925781 187.972656 C 237.621094 187.972656 246.324219 179.269531 246.324219 168.574219 L 246.324219 144.542969 C 244.175781 143.890625 242.015625 143.328125 239.859375 142.746094 Z M 239.859375 142.746094 " fill-opacity="1" fill-rule="nonzero"/><path fill="#ffdd99" d="M 368.535156 219.828125 C 368.535156 220.675781 368.453125 221.515625 368.285156 222.351562 C 368.121094 223.183594 367.875 223.992188 367.550781 224.777344 C 367.226562 225.558594 366.828125 226.304688 366.355469 227.011719 C 365.882812 227.71875 365.347656 228.371094 364.746094 228.972656 C 364.148438 229.570312 363.492188 230.109375 362.789062 230.578125 C 362.082031 231.050781 361.335938 231.449219 360.550781 231.773438 C 359.765625 232.097656 358.957031 232.34375 358.125 232.511719 C 357.292969 232.675781 356.453125 232.757812 355.601562 232.757812 C 354.753906 232.757812 353.914062 232.675781 353.082031 232.511719 C 352.246094 232.34375 351.4375 232.097656 350.65625 231.773438 C 349.871094 231.449219 349.125 231.050781 348.417969 230.578125 C 347.714844 230.109375 347.058594 229.570312 346.460938 228.972656 C 345.859375 228.371094 345.324219 227.71875 344.851562 227.011719 C 344.378906 226.304688 343.980469 225.558594 343.65625 224.777344 C 343.332031 223.992188 343.085938 223.183594 342.921875 222.351562 C 342.753906 221.515625 342.671875 220.675781 342.671875 219.828125 C 342.671875 218.976562 342.753906 218.136719 342.921875 217.304688 C 343.085938 216.472656 343.332031 215.664062 343.65625 214.878906 C 343.980469 214.09375 344.378906 213.347656 344.851562 212.644531 C 345.324219 211.9375 345.859375 211.285156 346.460938 210.683594 C 347.058594 210.082031 347.714844 209.546875 348.417969 209.074219 C 349.125 208.605469 349.871094 208.207031 350.65625 207.878906 C 351.4375 207.554688 352.246094 207.3125 353.082031 207.144531 C 353.914062 206.980469 354.753906 206.898438 355.601562 206.898438 C 356.453125 206.898438 357.292969 206.980469 358.125 207.144531 C 358.957031 207.3125 359.765625 207.554688 360.550781 207.878906 C 361.335938 208.207031 362.082031 208.605469 362.789062 209.074219 C 363.492188 209.546875 364.148438 210.082031 364.746094 210.683594 C 365.347656 211.285156 365.882812 211.9375 366.355469 212.644531 C 366.828125 213.347656 367.226562 214.09375 367.550781 214.878906 C 367.875 215.664062 368.121094 216.472656 368.285156 217.304688 C 368.453125 218.136719 368.535156 218.976562 368.535156 219.828125 Z M 368.535156 219.828125 " fill-opacity="1" fill-rule="nonzero"/><path fill="#ffdd99" d="M 375 84.050781 C 375 84.902344 374.917969 85.742188 374.75 86.574219 C 374.585938 87.40625 374.339844 88.214844 374.015625 89 C 373.691406 89.785156 373.292969 90.53125 372.820312 91.234375 C 372.347656 91.941406 371.8125 92.59375 371.210938 93.195312 C 370.613281 93.796875 369.957031 94.332031 369.253906 94.804688 C 368.546875 95.273438 367.800781 95.671875 367.015625 96 C 366.234375 96.324219 365.425781 96.570312 364.589844 96.734375 C 363.757812 96.898438 362.917969 96.984375 362.070312 96.984375 C 361.21875 96.984375 360.378906 96.898438 359.546875 96.734375 C 358.714844 96.570312 357.90625 96.324219 357.121094 96 C 356.335938 95.671875 355.589844 95.273438 354.886719 94.804688 C 354.179688 94.332031 353.527344 93.796875 352.925781 93.195312 C 352.324219 92.59375 351.789062 91.941406 351.316406 91.234375 C 350.84375 90.53125 350.445312 89.785156 350.121094 89 C 349.796875 88.214844 349.550781 87.40625 349.386719 86.574219 C 349.222656 85.742188 349.136719 84.902344 349.136719 84.050781 C 349.136719 83.203125 349.222656 82.363281 349.386719 81.527344 C 349.550781 80.695312 349.796875 79.886719 350.121094 79.101562 C 350.445312 78.320312 350.84375 77.574219 351.316406 76.867188 C 351.789062 76.160156 352.324219 75.507812 352.925781 74.90625 C 353.527344 74.308594 354.179688 73.773438 354.886719 73.300781 C 355.589844 72.828125 356.335938 72.429688 357.121094 72.105469 C 357.90625 71.78125 358.714844 71.535156 359.546875 71.371094 C 360.378906 71.203125 361.21875 71.121094 362.070312 71.121094 C 362.917969 71.121094 363.757812 71.203125 364.589844 71.371094 C 365.425781 71.535156 366.234375 71.78125 367.015625 72.105469 C 367.800781 72.429688 368.546875 72.828125 369.253906 73.300781 C 369.957031 73.773438 370.613281 74.308594 371.210938 74.90625 C 371.8125 75.507812 372.347656 76.160156 372.820312 76.867188 C 373.292969 77.574219 373.691406 78.320312 374.015625 79.101562 C 374.339844 79.886719 374.585938 80.695312 374.75 81.527344 C 374.917969 82.363281 375 83.203125 375 84.050781 Z M 375 84.050781 " fill-opacity="1" fill-rule="nonzero"/><path fill="#ffdd99" d="M 329.742188 45.257812 C 329.742188 46.109375 329.660156 46.949219 329.492188 47.78125 C 329.328125 48.613281 329.082031 49.421875 328.757812 50.207031 C 328.433594 50.992188 328.035156 51.738281 327.5625 52.441406 C 327.089844 53.148438 326.554688 53.800781 325.953125 54.402344 C 325.351562 55.003906 324.699219 55.539062 323.996094 56.011719 C 323.289062 56.480469 322.542969 56.878906 321.757812 57.207031 C 320.972656 57.53125 320.164062 57.777344 319.332031 57.941406 C 318.5 58.105469 317.660156 58.191406 316.808594 58.191406 C 315.960938 58.191406 315.121094 58.105469 314.289062 57.941406 C 313.453125 57.777344 312.644531 57.53125 311.863281 57.207031 C 311.078125 56.878906 310.332031 56.480469 309.625 56.011719 C 308.921875 55.539062 308.265625 55.003906 307.667969 54.402344 C 307.066406 53.800781 306.53125 53.148438 306.058594 52.441406 C 305.585938 51.738281 305.1875 50.992188 304.863281 50.207031 C 304.539062 49.421875 304.292969 48.613281 304.128906 47.78125 C 303.960938 46.949219 303.878906 46.109375 303.878906 45.257812 C 303.878906 44.410156 303.960938 43.570312 304.128906 42.734375 C 304.292969 41.902344 304.539062 41.09375 304.863281 40.308594 C 305.1875 39.527344 305.585938 38.78125 306.058594 38.074219 C 306.53125 37.367188 307.066406 36.714844 307.667969 36.113281 C 308.265625 35.515625 308.921875 34.980469 309.625 34.507812 C 310.332031 34.035156 311.078125 33.636719 311.863281 33.3125 C 312.644531 32.988281 313.453125 32.742188 314.289062 32.574219 C 315.121094 32.410156 315.960938 32.328125 316.808594 32.328125 C 317.660156 32.328125 318.5 32.410156 319.332031 32.574219 C 320.164062 32.742188 320.972656 32.988281 321.757812 33.3125 C 322.542969 33.636719 323.289062 34.035156 323.996094 34.507812 C 324.699219 34.980469 325.351562 35.515625 325.953125 36.113281 C 326.554688 36.714844 327.089844 37.367188 327.5625 38.074219 C 328.035156 38.78125 328.433594 39.527344 328.757812 40.308594 C 329.082031 41.09375 329.328125 41.902344 329.492188 42.734375 C 329.660156 43.570312 329.742188 44.410156 329.742188 45.257812 Z M 329.742188 45.257812 " fill-opacity="1" fill-rule="nonzero"/><path fill="#ffdd99" d="M 329.742188 142.242188 C 329.742188 143.089844 329.660156 143.929688 329.492188 144.765625 C 329.328125 145.597656 329.082031 146.40625 328.757812 147.191406 C 328.433594 147.972656 328.035156 148.71875 327.5625 149.425781 C 327.089844 150.132812 326.554688 150.785156 325.953125 151.386719 C 325.351562 151.984375 324.699219 152.519531 323.996094 152.992188 C 323.289062 153.464844 322.542969 153.863281 321.757812 154.1875 C 320.972656 154.511719 320.164062 154.757812 319.332031 154.925781 C 318.5 155.089844 317.660156 155.171875 316.808594 155.171875 C 315.960938 155.171875 315.121094 155.089844 314.289062 154.925781 C 313.453125 154.757812 312.644531 154.511719 311.863281 154.1875 C 311.078125 153.863281 310.332031 153.464844 309.625 152.992188 C 308.921875 152.519531 308.265625 151.984375 307.667969 151.386719 C 307.066406 150.785156 306.53125 150.132812 306.058594 149.425781 C 305.585938 148.71875 305.1875 147.972656 304.863281 147.191406 C 304.539062 146.40625 304.292969 145.597656 304.128906 144.765625 C 303.960938 143.929688 303.878906 143.089844 303.878906 142.242188 C 303.878906 141.390625 303.960938 140.550781 304.128906 139.71875 C 304.292969 138.886719 304.539062 138.078125 304.863281 137.292969 C 305.1875 136.507812 305.585938 135.761719 306.058594 135.058594 C 306.53125 134.351562 307.066406 133.699219 307.667969 133.097656 C 308.265625 132.496094 308.921875 131.960938 309.625 131.488281 C 310.332031 131.019531 311.078125 130.621094 311.863281 130.292969 C 312.644531 129.96875 313.453125 129.722656 314.289062 129.558594 C 315.121094 129.394531 315.960938 129.308594 316.808594 129.308594 C 317.660156 129.308594 318.5 129.394531 319.332031 129.558594 C 320.164062 129.722656 320.972656 129.96875 321.757812 130.292969 C 322.542969 130.621094 323.289062 131.019531 323.996094 131.488281 C 324.699219 131.960938 325.351562 132.496094 325.953125 133.097656 C 326.554688 133.699219 327.089844 134.351562 327.5625 135.058594 C 328.035156 135.761719 328.433594 136.507812 328.757812 137.292969 C 329.082031 138.078125 329.328125 138.886719 329.492188 139.71875 C 329.660156 140.550781 329.742188 141.390625 329.742188 142.242188 Z M 329.742188 142.242188 " fill-opacity="1" fill-rule="nonzero"/><path fill="#ffdd99" d="M 64.65625 226.292969 C 64.65625 227.140625 64.574219 227.984375 64.40625 228.816406 C 64.242188 229.648438 63.996094 230.457031 63.671875 231.242188 C 63.347656 232.027344 62.949219 232.769531 62.476562 233.476562 C 62.003906 234.183594 61.46875 234.835938 60.867188 235.4375 C 60.265625 236.035156 59.613281 236.574219 58.910156 237.042969 C 58.203125 237.515625 57.457031 237.914062 56.671875 238.238281 C 55.886719 238.566406 55.078125 238.808594 54.246094 238.976562 C 53.414062 239.140625 52.574219 239.222656 51.722656 239.222656 C 50.875 239.222656 50.035156 239.140625 49.203125 238.976562 C 48.367188 238.808594 47.558594 238.566406 46.777344 238.238281 C 45.992188 237.914062 45.246094 237.515625 44.539062 237.042969 C 43.835938 236.574219 43.179688 236.035156 42.582031 235.4375 C 41.980469 234.835938 41.445312 234.183594 40.972656 233.476562 C 40.5 232.769531 40.101562 232.027344 39.777344 231.242188 C 39.453125 230.457031 39.207031 229.648438 39.042969 228.816406 C 38.875 227.984375 38.792969 227.140625 38.792969 226.292969 C 38.792969 225.445312 38.875 224.601562 39.042969 223.769531 C 39.207031 222.9375 39.453125 222.128906 39.777344 221.34375 C 40.101562 220.558594 40.5 219.816406 40.972656 219.109375 C 41.445312 218.402344 41.980469 217.75 42.582031 217.148438 C 43.179688 216.550781 43.835938 216.011719 44.539062 215.542969 C 45.246094 215.070312 45.992188 214.671875 46.777344 214.347656 C 47.558594 214.019531 48.367188 213.777344 49.203125 213.609375 C 50.035156 213.445312 50.875 213.363281 51.722656 213.363281 C 52.574219 213.363281 53.414062 213.445312 54.246094 213.609375 C 55.078125 213.777344 55.886719 214.019531 56.671875 214.347656 C 57.457031 214.671875 58.203125 215.070312 58.910156 215.542969 C 59.613281 216.011719 60.265625 216.550781 60.867188 217.148438 C 61.46875 217.75 62.003906 218.402344 62.476562 219.109375 C 62.949219 219.816406 63.347656 220.558594 63.671875 221.34375 C 63.996094 222.128906 64.242188 222.9375 64.40625 223.769531 C 64.574219 224.601562 64.65625 225.445312 64.65625 226.292969 Z M 64.65625 226.292969 " fill-opacity="1" fill-rule="nonzero"/><path fill="#ffdd99" d="M 84.050781 12.929688 C 84.050781 13.78125 83.96875 14.621094 83.804688 15.453125 C 83.636719 16.285156 83.390625 17.09375 83.066406 17.878906 C 82.742188 18.664062 82.34375 19.410156 81.871094 20.113281 C 81.402344 20.820312 80.863281 21.472656 80.265625 22.074219 C 79.664062 22.675781 79.011719 23.210938 78.304688 23.683594 C 77.597656 24.15625 76.855469 24.554688 76.070312 24.878906 C 75.285156 25.203125 74.476562 25.449219 73.644531 25.613281 C 72.8125 25.777344 71.96875 25.863281 71.121094 25.863281 C 70.273438 25.863281 69.429688 25.777344 68.597656 25.613281 C 67.765625 25.449219 66.957031 25.203125 66.171875 24.878906 C 65.386719 24.554688 64.640625 24.15625 63.9375 23.683594 C 63.230469 23.210938 62.578125 22.675781 61.976562 22.074219 C 61.375 21.472656 60.839844 20.820312 60.367188 20.113281 C 59.898438 19.410156 59.5 18.664062 59.175781 17.878906 C 58.847656 17.09375 58.605469 16.285156 58.4375 15.453125 C 58.273438 14.621094 58.191406 13.78125 58.191406 12.929688 C 58.191406 12.082031 58.273438 11.242188 58.4375 10.410156 C 58.605469 9.574219 58.847656 8.765625 59.175781 7.984375 C 59.5 7.199219 59.898438 6.453125 60.367188 5.746094 C 60.839844 5.039062 61.375 4.386719 61.976562 3.789062 C 62.578125 3.1875 63.230469 2.652344 63.9375 2.179688 C 64.640625 1.707031 65.386719 1.308594 66.171875 0.984375 C 66.957031 0.660156 67.765625 0.414062 68.597656 0.25 C 69.429688 0.0820312 70.273438 0 71.121094 0 C 71.96875 0 72.8125 0.0820312 73.644531 0.25 C 74.476562 0.414062 75.285156 0.660156 76.070312 0.984375 C 76.855469 1.308594 77.597656 1.707031 78.304688 2.179688 C 79.011719 2.652344 79.664062 3.1875 80.265625 3.789062 C 80.863281 4.386719 81.402344 5.039062 81.871094 5.746094 C 82.34375 6.453125 82.742188 7.199219 83.066406 7.984375 C 83.390625 8.765625 83.636719 9.574219 83.804688 10.410156 C 83.96875 11.242188 84.050781 12.082031 84.050781 12.929688 Z M 84.050781 12.929688 " fill-opacity="1" fill-rule="nonzero"/><path fill="#ffdd99" d="M 25.863281 96.984375 C 25.863281 97.832031 25.777344 98.671875 25.613281 99.503906 C 25.449219 100.339844 25.203125 101.148438 24.878906 101.929688 C 24.554688 102.714844 24.15625 103.460938 23.683594 104.167969 C 23.210938 104.871094 22.675781 105.527344 22.074219 106.125 C 21.472656 106.726562 20.820312 107.261719 20.113281 107.734375 C 19.410156 108.207031 18.664062 108.605469 17.878906 108.929688 C 17.09375 109.253906 16.285156 109.5 15.453125 109.664062 C 14.621094 109.832031 13.78125 109.914062 12.929688 109.914062 C 12.082031 109.914062 11.242188 109.832031 10.410156 109.664062 C 9.574219 109.5 8.765625 109.253906 7.984375 108.929688 C 7.199219 108.605469 6.453125 108.207031 5.746094 107.734375 C 5.039062 107.261719 4.386719 106.726562 3.789062 106.125 C 3.1875 105.527344 2.652344 104.871094 2.179688 104.167969 C 1.707031 103.460938 1.308594 102.714844 0.984375 101.929688 C 0.660156 101.148438 0.414062 100.339844 0.25 99.503906 C 0.0820312 98.671875 0 97.832031 0 96.984375 C 0 96.132812 0.0820312 95.292969 0.25 94.460938 C 0.414062 93.628906 0.660156 92.820312 0.984375 92.035156 C 1.308594 91.25 1.707031 90.503906 2.179688 89.796875 C 2.652344 89.09375 3.1875 88.441406 3.789062 87.839844 C 4.386719 87.238281 5.039062 86.703125 5.746094 86.230469 C 6.453125 85.757812 7.199219 85.359375 7.984375 85.035156 C 8.765625 84.710938 9.574219 84.464844 10.410156 84.300781 C 11.242188 84.132812 12.082031 84.050781 12.929688 84.050781 C 13.78125 84.050781 14.621094 84.132812 15.453125 84.300781 C 16.285156 84.464844 17.09375 84.710938 17.878906 85.035156 C 18.664062 85.359375 19.410156 85.757812 20.113281 86.230469 C 20.820312 86.703125 21.472656 87.238281 22.074219 87.839844 C 22.675781 88.441406 23.210938 89.09375 23.683594 89.796875 C 24.15625 90.503906 24.554688 91.25 24.878906 92.035156 C 25.203125 92.820312 25.449219 93.628906 25.613281 94.460938 C 25.777344 95.292969 25.863281 96.132812 25.863281 96.984375 Z M 25.863281 96.984375 " fill-opacity="1" fill-rule="nonzero"/><path fill="#ffdd99" d="M 38.792969 174.570312 C 38.792969 175.417969 38.710938 176.257812 38.542969 177.089844 C 38.378906 177.925781 38.132812 178.734375 37.808594 179.515625 C 37.484375 180.300781 37.085938 181.046875 36.613281 181.753906 C 36.140625 182.460938 35.605469 183.113281 35.003906 183.710938 C 34.40625 184.3125 33.753906 184.847656 33.046875 185.320312 C 32.339844 185.792969 31.59375 186.191406 30.8125 186.515625 C 30.027344 186.839844 29.21875 187.085938 28.386719 187.25 C 27.550781 187.417969 26.710938 187.5 25.863281 187.5 C 25.011719 187.5 24.171875 187.417969 23.339844 187.25 C 22.507812 187.085938 21.699219 186.839844 20.914062 186.515625 C 20.128906 186.191406 19.382812 185.792969 18.679688 185.320312 C 17.972656 184.847656 17.320312 184.3125 16.71875 183.710938 C 16.117188 183.113281 15.582031 182.460938 15.109375 181.753906 C 14.636719 181.046875 14.242188 180.300781 13.914062 179.515625 C 13.589844 178.734375 13.34375 177.925781 13.179688 177.089844 C 13.015625 176.257812 12.929688 175.417969 12.929688 174.570312 C 12.929688 173.71875 13.015625 172.878906 13.179688 172.046875 C 13.34375 171.214844 13.589844 170.40625 13.914062 169.621094 C 14.242188 168.835938 14.636719 168.089844 15.109375 167.386719 C 15.582031 166.679688 16.117188 166.027344 16.71875 165.425781 C 17.320312 164.824219 17.972656 164.289062 18.679688 163.816406 C 19.382812 163.34375 20.128906 162.945312 20.914062 162.621094 C 21.699219 162.296875 22.507812 162.050781 23.339844 161.886719 C 24.171875 161.722656 25.011719 161.636719 25.863281 161.636719 C 26.710938 161.636719 27.550781 161.722656 28.386719 161.886719 C 29.21875 162.050781 30.027344 162.296875 30.8125 162.621094 C 31.59375 162.945312 32.339844 163.34375 33.046875 163.816406 C 33.753906 164.289062 34.40625 164.824219 35.003906 165.425781 C 35.605469 166.027344 36.140625 166.679688 36.613281 167.386719 C 37.085938 168.089844 37.484375 168.835938 37.808594 169.621094 C 38.132812 170.40625 38.378906 171.214844 38.542969 172.046875 C 38.710938 172.878906 38.792969 173.71875 38.792969 174.570312 Z M 38.792969 174.570312 " fill-opacity="1" fill-rule="nonzero"/><path fill="#ffdd99" d="M 245.691406 19.398438 C 245.691406 20.246094 245.605469 21.085938 245.441406 21.917969 C 245.277344 22.753906 245.03125 23.5625 244.707031 24.34375 C 244.378906 25.128906 243.980469 25.875 243.511719 26.582031 C 243.039062 27.285156 242.503906 27.941406 241.902344 28.539062 C 241.300781 29.140625 240.648438 29.675781 239.941406 30.148438 C 239.238281 30.621094 238.492188 31.019531 237.707031 31.34375 C 236.921875 31.667969 236.113281 31.914062 235.28125 32.078125 C 234.449219 32.246094 233.609375 32.328125 232.757812 32.328125 C 231.910156 32.328125 231.070312 32.246094 230.234375 32.078125 C 229.402344 31.914062 228.59375 31.667969 227.808594 31.34375 C 227.027344 31.019531 226.28125 30.621094 225.574219 30.148438 C 224.867188 29.675781 224.214844 29.140625 223.613281 28.539062 C 223.015625 27.941406 222.476562 27.285156 222.007812 26.582031 C 221.535156 25.875 221.136719 25.128906 220.8125 24.34375 C 220.488281 23.5625 220.242188 22.753906 220.074219 21.917969 C 219.910156 21.085938 219.828125 20.246094 219.828125 19.398438 C 219.828125 18.546875 219.910156 17.707031 220.074219 16.875 C 220.242188 16.042969 220.488281 15.234375 220.8125 14.449219 C 221.136719 13.664062 221.535156 12.917969 222.007812 12.210938 C 222.476562 11.507812 223.015625 10.851562 223.613281 10.253906 C 224.214844 9.652344 224.867188 9.117188 225.574219 8.644531 C 226.28125 8.171875 227.027344 7.773438 227.808594 7.449219 C 228.59375 7.125 229.402344 6.878906 230.234375 6.714844 C 231.070312 6.546875 231.910156 6.464844 232.757812 6.464844 C 233.609375 6.464844 234.449219 6.546875 235.28125 6.714844 C 236.113281 6.878906 236.921875 7.125 237.707031 7.449219 C 238.492188 7.773438 239.238281 8.171875 239.941406 8.644531 C 240.648438 9.117188 241.300781 9.652344 241.902344 10.253906 C 242.503906 10.851562 243.039062 11.507812 243.511719 12.210938 C 243.980469 12.917969 244.378906 13.664062 244.707031 14.449219 C 245.03125 15.234375 245.277344 16.042969 245.441406 16.875 C 245.605469 17.707031 245.691406 18.546875 245.691406 19.398438 Z M 245.691406 19.398438 " fill-opacity="1" fill-rule="nonzero"/><path fill="#ffdd99" d="M 181.035156 12.929688 C 181.035156 13.78125 180.953125 14.621094 180.785156 15.453125 C 180.621094 16.285156 180.375 17.09375 180.050781 17.878906 C 179.726562 18.664062 179.328125 19.410156 178.855469 20.113281 C 178.382812 20.820312 177.847656 21.472656 177.246094 22.074219 C 176.648438 22.675781 175.992188 23.210938 175.289062 23.683594 C 174.582031 24.15625 173.835938 24.554688 173.050781 24.878906 C 172.265625 25.203125 171.457031 25.449219 170.625 25.613281 C 169.792969 25.777344 168.953125 25.863281 168.101562 25.863281 C 167.253906 25.863281 166.414062 25.777344 165.582031 25.613281 C 164.746094 25.449219 163.9375 25.203125 163.15625 24.878906 C 162.371094 24.554688 161.625 24.15625 160.917969 23.683594 C 160.214844 23.210938 159.558594 22.675781 158.960938 22.074219 C 158.359375 21.472656 157.824219 20.820312 157.351562 20.113281 C 156.878906 19.410156 156.480469 18.664062 156.15625 17.878906 C 155.832031 17.09375 155.585938 16.285156 155.421875 15.453125 C 155.253906 14.621094 155.171875 13.78125 155.171875 12.929688 C 155.171875 12.082031 155.253906 11.242188 155.421875 10.410156 C 155.585938 9.574219 155.832031 8.765625 156.15625 7.984375 C 156.480469 7.199219 156.878906 6.453125 157.351562 5.746094 C 157.824219 5.039062 158.359375 4.386719 158.960938 3.789062 C 159.558594 3.1875 160.214844 2.652344 160.917969 2.179688 C 161.625 1.707031 162.371094 1.308594 163.15625 0.984375 C 163.9375 0.660156 164.746094 0.414062 165.582031 0.25 C 166.414062 0.0820312 167.253906 0 168.101562 0 C 168.953125 0 169.792969 0.0820312 170.625 0.25 C 171.457031 0.414062 172.265625 0.660156 173.050781 0.984375 C 173.835938 1.308594 174.582031 1.707031 175.289062 2.179688 C 175.992188 2.652344 176.648438 3.1875 177.246094 3.789062 C 177.847656 4.386719 178.382812 5.039062 178.855469 5.746094 C 179.328125 6.453125 179.726562 7.199219 180.050781 7.984375 C 180.375 8.765625 180.621094 9.574219 180.785156 10.410156 C 180.953125 11.242188 181.035156 12.082031 181.035156 12.929688 Z M 181.035156 12.929688 " fill-opacity="1" fill-rule="nonzero"/><path fill="#ffdd99" d="M 129.308594 25.863281 C 129.308594 26.710938 129.226562 27.550781 129.0625 28.386719 C 128.894531 29.21875 128.652344 30.027344 128.324219 30.8125 C 128 31.59375 127.601562 32.339844 127.132812 33.046875 C 126.660156 33.753906 126.125 34.40625 125.523438 35.003906 C 124.921875 35.605469 124.269531 36.140625 123.5625 36.613281 C 122.859375 37.085938 122.113281 37.484375 121.328125 37.808594 C 120.542969 38.132812 119.734375 38.378906 118.902344 38.542969 C 118.070312 38.710938 117.226562 38.792969 116.378906 38.792969 C 115.53125 38.792969 114.6875 38.710938 113.855469 38.542969 C 113.023438 38.378906 112.214844 38.132812 111.429688 37.808594 C 110.644531 37.484375 109.902344 37.085938 109.195312 36.613281 C 108.488281 36.140625 107.835938 35.605469 107.234375 35.003906 C 106.636719 34.40625 106.097656 33.753906 105.628906 33.046875 C 105.15625 32.339844 104.757812 31.59375 104.433594 30.8125 C 104.109375 30.027344 103.863281 29.21875 103.695312 28.386719 C 103.53125 27.550781 103.449219 26.710938 103.449219 25.863281 C 103.449219 25.011719 103.53125 24.171875 103.695312 23.339844 C 103.863281 22.507812 104.109375 21.699219 104.433594 20.914062 C 104.757812 20.128906 105.15625 19.382812 105.628906 18.679688 C 106.097656 17.972656 106.636719 17.320312 107.234375 16.71875 C 107.835938 16.117188 108.488281 15.582031 109.195312 15.109375 C 109.902344 14.636719 110.644531 14.242188 111.429688 13.914062 C 112.214844 13.589844 113.023438 13.34375 113.855469 13.179688 C 114.6875 13.015625 115.53125 12.929688 116.378906 12.929688 C 117.226562 12.929688 118.070312 13.015625 118.902344 13.179688 C 119.734375 13.34375 120.542969 13.589844 121.328125 13.914062 C 122.113281 14.242188 122.859375 14.636719 123.5625 15.109375 C 124.269531 15.582031 124.921875 16.117188 125.523438 16.71875 C 126.125 17.320312 126.660156 17.972656 127.132812 18.679688 C 127.601562 19.382812 128 20.128906 128.324219 20.914062 C 128.652344 21.699219 128.894531 22.507812 129.0625 23.339844 C 129.226562 24.171875 129.308594 25.011719 129.308594 25.863281 Z M 129.308594 25.863281 " fill-opacity="1" fill-rule="nonzero"/><path fill="#a2bdcd" d="M 336.207031 226.292969 L 316.808594 226.292969 C 314.359375 226.292969 312.121094 224.910156 311.023438 222.71875 L 299.882812 200.429688 L 284.484375 200.429688 L 284.484375 187.5 L 303.878906 187.5 C 306.328125 187.5 308.566406 188.882812 309.664062 191.074219 L 320.804688 213.363281 L 336.207031 213.363281 Z M 336.207031 226.292969 " fill-opacity="1" fill-rule="nonzero"/><path fill="#a2bdcd" d="M 271.550781 122.84375 L 239.222656 122.84375 L 239.222656 109.914062 L 267.890625 109.914062 L 285.40625 80.722656 C 286.570312 78.78125 288.671875 77.585938 290.949219 77.585938 L 342.671875 77.585938 L 342.671875 90.515625 L 294.609375 90.515625 L 277.09375 119.710938 C 275.929688 121.648438 273.828125 122.84375 271.550781 122.84375 Z M 271.550781 122.84375 " fill-opacity="1" fill-rule="nonzero"/><path fill="#a2bdcd" d="M 258.621094 96.984375 L 239.222656 96.984375 L 239.222656 84.050781 L 254.359375 84.050781 L 272.074219 42.710938 C 273.089844 40.332031 275.429688 38.792969 278.015625 38.792969 L 303.878906 38.792969 L 303.878906 51.722656 L 282.277344 51.722656 L 264.5625 93.066406 C 263.546875 95.445312 261.207031 96.984375 258.621094 96.984375 Z M 258.621094 96.984375 " fill-opacity="1" fill-rule="nonzero"/><path fill="#a2bdcd" d="M 239.222656 135.777344 L 303.878906 135.777344 L 303.878906 148.707031 L 239.222656 148.707031 Z M 239.222656 135.777344 " fill-opacity="1" fill-rule="nonzero"/><path fill="#a2bdcd" d="M 64.65625 219.828125 L 116.378906 219.828125 L 116.378906 232.757812 L 64.65625 232.757812 Z M 64.65625 219.828125 " fill-opacity="1" fill-rule="nonzero"/><path fill="#a2bdcd" d="M 135.777344 122.84375 L 77.585938 122.84375 C 75.945312 122.84375 74.359375 122.21875 73.15625 121.09375 L 54.367188 103.449219 L 32.328125 103.449219 L 32.328125 90.515625 L 56.929688 90.515625 C 58.570312 90.515625 60.15625 91.144531 61.359375 92.269531 L 80.148438 109.914062 L 135.777344 109.914062 Z M 135.777344 122.84375 " fill-opacity="1" fill-rule="nonzero"/><path fill="#a2bdcd" d="M 64.65625 181.035156 L 45.257812 181.035156 L 45.257812 168.101562 L 61.550781 168.101562 L 85.46875 138.199219 C 86.695312 136.667969 88.550781 135.777344 90.515625 135.777344 L 135.777344 135.777344 L 135.777344 148.707031 L 93.621094 148.707031 L 69.703125 178.609375 C 68.476562 180.140625 66.621094 181.035156 64.65625 181.035156 Z M 64.65625 181.035156 " fill-opacity="1" fill-rule="nonzero"/><path fill="#a2bdcd" d="M 148.707031 96.984375 L 84.050781 96.984375 C 82.511719 96.984375 81.011719 96.433594 79.847656 95.425781 L 34.589844 56.632812 C 33.15625 55.402344 32.328125 53.613281 32.328125 51.722656 L 32.328125 19.398438 C 32.328125 15.820312 35.21875 12.929688 38.792969 12.929688 L 58.191406 12.929688 L 58.191406 25.863281 L 45.257812 25.863281 L 45.257812 48.75 L 86.445312 84.050781 L 148.707031 84.050781 Z M 148.707031 96.984375 " fill-opacity="1" fill-rule="nonzero"/><path fill="#a2bdcd" d="M 226.292969 77.585938 L 213.363281 77.585938 L 213.363281 64.65625 C 213.363281 62.203125 214.746094 59.96875 216.9375 58.867188 L 226.292969 54.195312 L 226.292969 38.792969 L 239.222656 38.792969 L 239.222656 58.191406 C 239.222656 60.640625 237.839844 62.878906 235.648438 63.976562 L 226.292969 68.652344 Z M 226.292969 77.585938 " fill-opacity="1" fill-rule="nonzero"/><path fill="#a2bdcd" d="M 193.964844 77.585938 L 181.035156 77.585938 L 181.035156 62.851562 L 166.058594 57.859375 C 163.414062 56.980469 161.636719 54.511719 161.636719 51.722656 L 161.636719 32.328125 L 174.570312 32.328125 L 174.570312 47.0625 L 189.542969 52.054688 C 192.1875 52.941406 193.964844 55.402344 193.964844 58.191406 Z M 193.964844 77.585938 " fill-opacity="1" fill-rule="nonzero"/><path fill="#a2bdcd" d="M 161.636719 84.050781 L 148.707031 84.050781 L 148.707031 75.78125 L 114.335938 64.324219 C 111.691406 63.445312 109.914062 60.976562 109.914062 58.191406 L 109.914062 45.257812 L 122.84375 45.257812 L 122.84375 53.527344 L 157.214844 64.984375 C 159.859375 65.871094 161.636719 68.335938 161.636719 71.121094 Z M 161.636719 84.050781 " fill-opacity="1" fill-rule="nonzero"/><path fill="#ffc857" d="M 349.136719 200.429688 C 338.445312 200.429688 329.742188 209.132812 329.742188 219.828125 C 329.742188 230.523438 338.445312 239.222656 349.136719 239.222656 C 359.832031 239.222656 368.535156 230.523438 368.535156 219.828125 C 368.535156 209.132812 359.832031 200.429688 349.136719 200.429688 Z M 349.136719 226.292969 C 345.570312 226.292969 342.671875 223.398438 342.671875 219.828125 C 342.671875 216.257812 345.570312 213.363281 349.136719 213.363281 C 352.707031 213.363281 355.601562 216.257812 355.601562 219.828125 C 355.601562 223.398438 352.707031 226.292969 349.136719 226.292969 Z M 349.136719 226.292969 " fill-opacity="1" fill-rule="nonzero"/><path fill="#ffc857" d="M 355.601562 103.449219 C 366.296875 103.449219 375 94.746094 375 84.050781 C 375 73.359375 366.296875 64.65625 355.601562 64.65625 C 344.910156 64.65625 336.207031 73.359375 336.207031 84.050781 C 336.207031 94.746094 344.910156 103.449219 355.601562 103.449219 Z M 355.601562 77.585938 C 359.171875 77.585938 362.070312 80.484375 362.070312 84.050781 C 362.070312 87.621094 359.171875 90.515625 355.601562 90.515625 C 352.035156 90.515625 349.136719 87.621094 349.136719 84.050781 C 349.136719 80.484375 352.035156 77.585938 355.601562 77.585938 Z M 355.601562 77.585938 " fill-opacity="1" fill-rule="nonzero"/><path fill="#ffc857" d="M 316.808594 64.65625 C 327.503906 64.65625 336.207031 55.953125 336.207031 45.257812 C 336.207031 34.566406 327.503906 25.863281 316.808594 25.863281 C 306.117188 25.863281 297.414062 34.566406 297.414062 45.257812 C 297.414062 55.953125 306.117188 64.65625 316.808594 64.65625 Z M 316.808594 38.792969 C 320.378906 38.792969 323.277344 41.691406 323.277344 45.257812 C 323.277344 48.828125 320.378906 51.722656 316.808594 51.722656 C 313.242188 51.722656 310.34375 48.828125 310.34375 45.257812 C 310.34375 41.691406 313.242188 38.792969 316.808594 38.792969 Z M 316.808594 38.792969 " fill-opacity="1" fill-rule="nonzero"/><path fill="#ffc857" d="M 316.808594 122.84375 C 306.117188 122.84375 297.414062 131.546875 297.414062 142.242188 C 297.414062 152.933594 306.117188 161.636719 316.808594 161.636719 C 327.503906 161.636719 336.207031 152.933594 336.207031 142.242188 C 336.207031 131.546875 327.503906 122.84375 316.808594 122.84375 Z M 316.808594 148.707031 C 313.242188 148.707031 310.34375 145.808594 310.34375 142.242188 C 310.34375 138.671875 313.242188 135.777344 316.808594 135.777344 C 320.378906 135.777344 323.277344 138.671875 323.277344 142.242188 C 323.277344 145.808594 320.378906 148.707031 316.808594 148.707031 Z M 316.808594 148.707031 " fill-opacity="1" fill-rule="nonzero"/><path fill="#ffc857" d="M 58.191406 206.898438 C 47.496094 206.898438 38.792969 215.597656 38.792969 226.292969 C 38.792969 236.988281 47.496094 245.691406 58.191406 245.691406 C 68.882812 245.691406 77.585938 236.988281 77.585938 226.292969 C 77.585938 215.597656 68.882812 206.898438 58.191406 206.898438 Z M 58.191406 232.757812 C 54.621094 232.757812 51.722656 229.863281 51.722656 226.292969 C 51.722656 222.722656 54.621094 219.828125 58.191406 219.828125 C 61.757812 219.828125 64.65625 222.722656 64.65625 226.292969 C 64.65625 229.863281 61.757812 232.757812 58.191406 232.757812 Z M 58.191406 232.757812 " fill-opacity="1" fill-rule="nonzero"/><path fill="#ffc857" d="M 71.121094 0 C 60.425781 0 51.722656 8.703125 51.722656 19.398438 C 51.722656 30.089844 60.425781 38.792969 71.121094 38.792969 C 81.816406 38.792969 90.515625 30.089844 90.515625 19.398438 C 90.515625 8.703125 81.816406 0 71.121094 0 Z M 71.121094 25.863281 C 67.550781 25.863281 64.65625 22.964844 64.65625 19.398438 C 64.65625 15.828125 67.550781 12.929688 71.121094 12.929688 C 74.691406 12.929688 77.585938 15.828125 77.585938 19.398438 C 77.585938 22.964844 74.691406 25.863281 71.121094 25.863281 Z M 71.121094 25.863281 " fill-opacity="1" fill-rule="nonzero"/><path fill="#ffc857" d="M 38.792969 96.984375 C 38.792969 86.289062 30.089844 77.585938 19.398438 77.585938 C 8.703125 77.585938 0 86.289062 0 96.984375 C 0 107.675781 8.703125 116.378906 19.398438 116.378906 C 30.089844 116.378906 38.792969 107.675781 38.792969 96.984375 Z M 12.929688 96.984375 C 12.929688 93.414062 15.828125 90.515625 19.398438 90.515625 C 22.964844 90.515625 25.863281 93.414062 25.863281 96.984375 C 25.863281 100.550781 22.964844 103.449219 19.398438 103.449219 C 15.828125 103.449219 12.929688 100.550781 12.929688 96.984375 Z M 12.929688 96.984375 " fill-opacity="1" fill-rule="nonzero"/><path fill="#ffc857" d="M 51.722656 174.570312 C 51.722656 163.875 43.023438 155.171875 32.328125 155.171875 C 21.632812 155.171875 12.929688 163.875 12.929688 174.570312 C 12.929688 185.261719 21.632812 193.964844 32.328125 193.964844 C 43.023438 193.964844 51.722656 185.261719 51.722656 174.570312 Z M 25.863281 174.570312 C 25.863281 171 28.757812 168.101562 32.328125 168.101562 C 35.898438 168.101562 38.792969 171 38.792969 174.570312 C 38.792969 178.136719 35.898438 181.035156 32.328125 181.035156 C 28.757812 181.035156 25.863281 178.136719 25.863281 174.570312 Z M 25.863281 174.570312 " fill-opacity="1" fill-rule="nonzero"/><path fill="#ffc857" d="M 232.757812 6.464844 C 222.066406 6.464844 213.363281 15.167969 213.363281 25.863281 C 213.363281 36.554688 222.066406 45.257812 232.757812 45.257812 C 243.453125 45.257812 252.15625 36.554688 252.15625 25.863281 C 252.15625 15.167969 243.453125 6.464844 232.757812 6.464844 Z M 232.757812 32.328125 C 229.191406 32.328125 226.292969 29.429688 226.292969 25.863281 C 226.292969 22.292969 229.191406 19.398438 232.757812 19.398438 C 236.328125 19.398438 239.222656 22.292969 239.222656 25.863281 C 239.222656 29.429688 236.328125 32.328125 232.757812 32.328125 Z M 232.757812 32.328125 " fill-opacity="1" fill-rule="nonzero"/><path fill="#ffc857" d="M 168.101562 0 C 157.410156 0 148.707031 8.703125 148.707031 19.398438 C 148.707031 30.089844 157.410156 38.792969 168.101562 38.792969 C 178.796875 38.792969 187.5 30.089844 187.5 19.398438 C 187.5 8.703125 178.796875 0 168.101562 0 Z M 168.101562 25.863281 C 164.535156 25.863281 161.636719 22.964844 161.636719 19.398438 C 161.636719 15.828125 164.535156 12.929688 168.101562 12.929688 C 171.671875 12.929688 174.570312 15.828125 174.570312 19.398438 C 174.570312 22.964844 171.671875 25.863281 168.101562 25.863281 Z M 168.101562 25.863281 " fill-opacity="1" fill-rule="nonzero"/><path fill="#ffc857" d="M 116.378906 12.929688 C 105.683594 12.929688 96.984375 21.632812 96.984375 32.328125 C 96.984375 43.023438 105.683594 51.722656 116.378906 51.722656 C 127.074219 51.722656 135.777344 43.023438 135.777344 32.328125 C 135.777344 21.632812 127.074219 12.929688 116.378906 12.929688 Z M 116.378906 38.792969 C 112.808594 38.792969 109.914062 35.898438 109.914062 32.328125 C 109.914062 28.757812 112.808594 25.863281 116.378906 25.863281 C 119.949219 25.863281 122.84375 28.757812 122.84375 32.328125 C 122.84375 35.898438 119.949219 38.792969 116.378906 38.792969 Z M 116.378906 38.792969 " fill-opacity="1" fill-rule="nonzero"/><path fill="#ffc857" d="M 226.925781 78.058594 L 149.339844 78.058594 C 142.195312 78.058594 136.410156 83.84375 136.410156 90.988281 L 136.410156 168.574219 C 136.410156 175.71875 142.195312 181.507812 149.339844 181.507812 L 226.925781 181.507812 C 234.070312 181.507812 239.859375 175.71875 239.859375 168.574219 L 239.859375 90.988281 C 239.859375 83.851562 234.066406 78.058594 226.925781 78.058594 Z M 226.925781 78.058594 " fill-opacity="1" fill-rule="nonzero"/><path fill="#a2bdcd" d="M 174.570312 103.449219 C 163.875 103.449219 155.171875 112.152344 155.171875 122.84375 L 155.171875 148.707031 C 155.171875 152.28125 158.0625 155.171875 161.636719 155.171875 C 165.214844 155.171875 168.101562 152.28125 168.101562 148.707031 L 168.101562 142.242188 L 181.035156 142.242188 L 181.035156 148.707031 C 181.035156 152.28125 183.925781 155.171875 187.5 155.171875 C 191.074219 155.171875 193.964844 152.28125 193.964844 148.707031 L 193.964844 122.84375 C 193.964844 112.152344 185.261719 103.449219 174.570312 103.449219 Z M 168.101562 129.308594 L 168.101562 122.84375 C 168.101562 119.277344 171 116.378906 174.570312 116.378906 C 178.136719 116.378906 181.035156 119.277344 181.035156 122.84375 L 181.035156 129.308594 Z M 168.101562 129.308594 " fill-opacity="1" fill-rule="nonzero"/><path fill="#a2bdcd" d="M 213.363281 103.449219 C 209.785156 103.449219 206.898438 106.339844 206.898438 109.914062 L 206.898438 148.707031 C 206.898438 152.28125 209.785156 155.171875 213.363281 155.171875 C 216.9375 155.171875 219.828125 152.28125 219.828125 148.707031 L 219.828125 109.914062 C 219.828125 106.339844 216.9375 103.449219 213.363281 103.449219 Z M 213.363281 103.449219 " fill-opacity="1" fill-rule="nonzero"/><path fill="#d0d8da" d="M 135.777344 200.429688 C 135.777344 201.488281 135.734375 202.546875 135.652344 203.601562 C 135.566406 204.652344 135.445312 205.699219 135.277344 206.738281 C 135.113281 207.777344 134.90625 208.800781 134.664062 209.816406 C 134.417969 210.828125 134.132812 211.824219 133.808594 212.800781 C 133.484375 213.78125 133.121094 214.738281 132.722656 215.671875 C 132.324219 216.605469 131.886719 217.511719 131.417969 218.390625 C 130.945312 219.273438 130.441406 220.121094 129.90625 220.9375 C 129.367188 221.757812 128.800781 222.542969 128.199219 223.289062 C 127.601562 224.039062 126.976562 224.75 126.320312 225.421875 C 125.664062 226.09375 124.984375 226.722656 124.28125 227.308594 C 123.578125 227.898438 122.851562 228.441406 122.105469 228.941406 C 121.359375 229.441406 120.59375 229.894531 119.8125 230.296875 C 119.027344 230.703125 118.230469 231.058594 117.421875 231.367188 C 116.609375 231.675781 115.789062 231.929688 114.960938 232.136719 C 114.128906 232.34375 113.292969 232.5 112.449219 232.601562 C 111.605469 232.707031 110.761719 232.757812 109.914062 232.757812 C 109.066406 232.757812 108.222656 232.707031 107.378906 232.601562 C 106.535156 232.5 105.699219 232.34375 104.867188 232.136719 C 104.039062 231.929688 103.21875 231.675781 102.40625 231.367188 C 101.597656 231.058594 100.800781 230.703125 100.015625 230.296875 C 99.234375 229.894531 98.46875 229.441406 97.722656 228.941406 C 96.976562 228.441406 96.25 227.898438 95.546875 227.308594 C 94.839844 226.722656 94.160156 226.09375 93.507812 225.421875 C 92.851562 224.75 92.226562 224.039062 91.625 223.289062 C 91.027344 222.542969 90.460938 221.757812 89.921875 220.9375 C 89.386719 220.121094 88.878906 219.273438 88.410156 218.390625 C 87.941406 217.511719 87.503906 216.605469 87.105469 215.671875 C 86.707031 214.738281 86.34375 213.78125 86.019531 212.800781 C 85.695312 211.824219 85.410156 210.828125 85.164062 209.816406 C 84.917969 208.800781 84.714844 207.777344 84.546875 206.738281 C 84.382812 205.699219 84.257812 204.652344 84.175781 203.601562 C 84.09375 202.546875 84.050781 201.488281 84.050781 200.429688 C 84.050781 199.371094 84.09375 198.316406 84.175781 197.261719 C 84.257812 196.207031 84.382812 195.164062 84.546875 194.125 C 84.714844 193.085938 84.917969 192.058594 85.164062 191.046875 C 85.410156 190.035156 85.695312 189.039062 86.019531 188.058594 C 86.34375 187.082031 86.707031 186.125 87.105469 185.191406 C 87.503906 184.257812 87.941406 183.351562 88.410156 182.472656 C 88.878906 181.589844 89.386719 180.742188 89.921875 179.921875 C 90.460938 179.105469 91.027344 178.320312 91.625 177.570312 C 92.226562 176.824219 92.851562 176.113281 93.507812 175.441406 C 94.160156 174.769531 94.839844 174.140625 95.546875 173.550781 C 96.25 172.964844 96.976562 172.417969 97.722656 171.921875 C 98.46875 171.421875 99.234375 170.96875 100.015625 170.5625 C 100.800781 170.160156 101.597656 169.804688 102.40625 169.496094 C 103.21875 169.1875 104.039062 168.929688 104.867188 168.722656 C 105.699219 168.519531 106.535156 168.363281 107.378906 168.257812 C 108.222656 168.15625 109.066406 168.101562 109.914062 168.101562 C 110.761719 168.101562 111.605469 168.15625 112.449219 168.257812 C 113.292969 168.363281 114.128906 168.519531 114.960938 168.722656 C 115.789062 168.929688 116.609375 169.1875 117.421875 169.496094 C 118.230469 169.804688 119.027344 170.160156 119.8125 170.5625 C 120.59375 170.96875 121.359375 171.421875 122.105469 171.921875 C 122.851562 172.417969 123.578125 172.964844 124.28125 173.550781 C 124.984375 174.140625 125.664062 174.769531 126.320312 175.441406 C 126.976562 176.113281 127.601562 176.824219 128.199219 177.570312 C 128.800781 178.320312 129.367188 179.105469 129.90625 179.921875 C 130.441406 180.742188 130.945312 181.589844 131.417969 182.472656 C 131.886719 183.351562 132.324219 184.257812 132.722656 185.191406 C 133.121094 186.125 133.484375 187.082031 133.808594 188.058594 C 134.132812 189.039062 134.417969 190.035156 134.664062 191.046875 C 134.90625 192.058594 135.113281 193.085938 135.277344 194.125 C 135.445312 195.164062 135.566406 196.207031 135.652344 197.261719 C 135.734375 198.316406 135.777344 199.371094 135.777344 200.429688 Z M 135.777344 200.429688 " fill-opacity="1" fill-rule="nonzero"/><path fill="#d0d8da" d="M 290.949219 200.429688 C 290.949219 201.488281 290.90625 202.546875 290.824219 203.601562 C 290.742188 204.652344 290.617188 205.699219 290.453125 206.738281 C 290.285156 207.777344 290.082031 208.800781 289.835938 209.816406 C 289.589844 210.828125 289.304688 211.824219 288.980469 212.800781 C 288.65625 213.78125 288.292969 214.738281 287.894531 215.671875 C 287.496094 216.605469 287.058594 217.511719 286.589844 218.390625 C 286.117188 219.273438 285.613281 220.121094 285.078125 220.9375 C 284.539062 221.757812 283.972656 222.542969 283.375 223.289062 C 282.773438 224.039062 282.148438 224.75 281.492188 225.421875 C 280.839844 226.09375 280.160156 226.722656 279.453125 227.308594 C 278.75 227.898438 278.023438 228.441406 277.277344 228.941406 C 276.53125 229.441406 275.765625 229.894531 274.984375 230.296875 C 274.199219 230.703125 273.402344 231.058594 272.59375 231.367188 C 271.78125 231.675781 270.960938 231.929688 270.132812 232.136719 C 269.300781 232.34375 268.464844 232.5 267.621094 232.601562 C 266.777344 232.707031 265.933594 232.757812 265.085938 232.757812 C 264.238281 232.757812 263.394531 232.707031 262.550781 232.601562 C 261.707031 232.5 260.871094 232.34375 260.039062 232.136719 C 259.210938 231.929688 258.390625 231.675781 257.578125 231.367188 C 256.769531 231.058594 255.972656 230.703125 255.1875 230.296875 C 254.40625 229.894531 253.640625 229.441406 252.894531 228.941406 C 252.148438 228.441406 251.421875 227.898438 250.71875 227.308594 C 250.015625 226.722656 249.335938 226.09375 248.679688 225.421875 C 248.023438 224.75 247.398438 224.039062 246.800781 223.289062 C 246.199219 222.542969 245.632812 221.757812 245.09375 220.9375 C 244.558594 220.121094 244.054688 219.273438 243.582031 218.390625 C 243.113281 217.511719 242.675781 216.605469 242.277344 215.671875 C 241.878906 214.738281 241.515625 213.78125 241.191406 212.800781 C 240.867188 211.824219 240.582031 210.828125 240.335938 209.816406 C 240.09375 208.800781 239.886719 207.777344 239.722656 206.738281 C 239.554688 205.699219 239.433594 204.652344 239.347656 203.601562 C 239.265625 202.546875 239.222656 201.488281 239.222656 200.429688 C 239.222656 199.371094 239.265625 198.316406 239.347656 197.261719 C 239.433594 196.207031 239.554688 195.164062 239.722656 194.125 C 239.886719 193.085938 240.09375 192.058594 240.335938 191.046875 C 240.582031 190.035156 240.867188 189.039062 241.191406 188.058594 C 241.515625 187.082031 241.878906 186.125 242.277344 185.191406 C 242.675781 184.257812 243.113281 183.351562 243.582031 182.472656 C 244.054688 181.589844 244.558594 180.742188 245.09375 179.921875 C 245.632812 179.105469 246.199219 178.320312 246.800781 177.570312 C 247.398438 176.824219 248.023438 176.113281 248.679688 175.441406 C 249.335938 174.769531 250.015625 174.140625 250.71875 173.550781 C 251.421875 172.964844 252.148438 172.417969 252.894531 171.921875 C 253.640625 171.421875 254.40625 170.96875 255.1875 170.5625 C 255.972656 170.160156 256.769531 169.804688 257.578125 169.496094 C 258.390625 169.1875 259.210938 168.929688 260.039062 168.722656 C 260.871094 168.519531 261.707031 168.363281 262.550781 168.257812 C 263.394531 168.15625 264.238281 168.101562 265.085938 168.101562 C 265.933594 168.101562 266.777344 168.15625 267.621094 168.257812 C 268.464844 168.363281 269.300781 168.519531 270.132812 168.722656 C 270.960938 168.929688 271.78125 169.1875 272.59375 169.496094 C 273.402344 169.804688 274.199219 170.160156 274.984375 170.5625 C 275.765625 170.96875 276.53125 171.421875 277.277344 171.921875 C 278.023438 172.417969 278.75 172.964844 279.453125 173.550781 C 280.160156 174.140625 280.839844 174.769531 281.492188 175.441406 C 282.148438 176.113281 282.773438 176.824219 283.375 177.570312 C 283.972656 178.320312 284.539062 179.105469 285.078125 179.921875 C 285.613281 180.742188 286.117188 181.589844 286.589844 182.472656 C 287.058594 183.351562 287.496094 184.257812 287.894531 185.191406 C 288.292969 186.125 288.65625 187.082031 288.980469 188.058594 C 289.304688 189.039062 289.589844 190.035156 289.835938 191.046875 C 290.082031 192.058594 290.285156 193.085938 290.453125 194.125 C 290.617188 195.164062 290.742188 196.207031 290.824219 197.261719 C 290.90625 198.316406 290.949219 199.371094 290.949219 200.429688 Z M 290.949219 200.429688 " fill-opacity="1" fill-rule="nonzero"/><path fill="#769fb6" d="M 326.257812 349.136719 C 320.683594 342.886719 313.164062 338.351562 304.429688 336.71875 L 253.847656 327.234375 C 241.621094 324.9375 232.757812 314.257812 232.757812 301.808594 L 232.757812 278.015625 L 142.242188 278.015625 L 142.242188 301.808594 C 142.242188 314.257812 133.378906 324.9375 121.144531 327.226562 L 70.566406 336.710938 C 61.835938 338.347656 54.308594 342.886719 48.738281 349.132812 L 326.257812 349.132812 Z M 326.257812 349.136719 " fill-opacity="1" fill-rule="nonzero"/><path fill="#e9f1f2" d="M 109.914062 161.636719 L 109.914062 226.292969 C 109.914062 269.140625 144.652344 303.878906 187.5 303.878906 C 230.347656 303.878906 265.085938 269.140625 265.085938 226.292969 L 265.085938 161.636719 C 215.429688 182.328125 159.570312 182.328125 109.914062 161.636719 Z M 109.914062 161.636719 " fill-opacity="1" fill-rule="nonzero"/><path fill="#e9f1f2" d="M 304.433594 336.71875 L 253.855469 327.234375 C 249.078125 326.339844 244.847656 324.136719 241.421875 321.078125 L 228.1875 334.3125 C 226.972656 335.527344 226.292969 337.171875 226.292969 338.882812 L 226.292969 342.671875 C 226.292969 346.242188 223.398438 349.136719 219.828125 349.136719 L 155.171875 349.136719 C 151.601562 349.136719 148.707031 346.242188 148.707031 342.671875 L 148.707031 339.316406 C 148.707031 337.351562 147.816406 335.496094 146.28125 334.265625 L 131.65625 322.570312 C 128.605469 324.820312 125.074219 326.496094 121.144531 327.234375 L 70.566406 336.71875 C 52.144531 340.171875 38.792969 356.257812 38.792969 375 L 336.207031 375 C 336.207031 356.257812 322.855469 340.171875 304.433594 336.71875 Z M 304.433594 336.71875 " fill-opacity="1" fill-rule="nonzero"/><path fill="#a2bdcd" d="M 265.085938 219.828125 L 265.085938 226.292969 C 265.085938 269.160156 230.367188 303.878906 187.5 303.878906 C 144.632812 303.878906 109.914062 269.160156 109.914062 226.292969 L 109.914062 219.828125 L 134.09375 229.527344 C 139.007812 231.464844 142.242188 236.25 142.242188 241.488281 L 142.242188 246.789062 C 142.242188 250.214844 143.597656 253.511719 146.054688 255.96875 L 164.289062 274.203125 C 166.746094 276.660156 170.042969 278.015625 173.46875 278.015625 L 201.53125 278.015625 C 204.957031 278.015625 208.253906 276.660156 210.710938 274.203125 L 228.945312 255.96875 C 231.402344 253.511719 232.757812 250.214844 232.757812 246.789062 L 232.757812 241.488281 C 232.757812 236.25 235.992188 231.464844 240.90625 229.527344 Z M 265.085938 219.828125 " fill-opacity="1" fill-rule="nonzero"/><path fill="#b8bebf" d="M 284.484375 362.070312 L 90.515625 362.070312 C 83.371094 362.070312 77.585938 367.855469 77.585938 375 L 297.414062 375 C 297.414062 367.855469 291.628906 362.070312 284.484375 362.070312 Z M 284.484375 362.070312 " fill-opacity="1" fill-rule="nonzero"/><path fill="#769fb6" d="M 219.828125 212.238281 C 213.492188 212.238281 207.148438 209.824219 202.324219 205.003906 C 199.796875 202.472656 199.796875 198.386719 202.324219 195.859375 C 204.851562 193.332031 208.941406 193.332031 211.46875 195.859375 C 216.078125 200.46875 223.578125 200.46875 228.1875 195.859375 C 230.714844 193.332031 234.800781 193.332031 237.328125 195.859375 C 239.859375 198.386719 239.859375 202.472656 237.328125 205.003906 C 232.507812 209.824219 226.164062 212.238281 219.828125 212.238281 Z M 219.828125 212.238281 " fill-opacity="1" fill-rule="nonzero"/><path fill="#769fb6" d="M 155.171875 212.238281 C 148.835938 212.238281 142.492188 209.824219 137.671875 205.003906 C 135.140625 202.472656 135.140625 198.386719 137.671875 195.859375 C 140.199219 193.332031 144.285156 193.332031 146.8125 195.859375 C 151.421875 200.46875 158.921875 200.46875 163.53125 195.859375 C 166.058594 193.332031 170.148438 193.332031 172.675781 195.859375 C 175.203125 198.386719 175.203125 202.472656 172.675781 205.003906 C 167.851562 209.824219 161.507812 212.238281 155.171875 212.238281 Z M 155.171875 212.238281 " fill-opacity="1" fill-rule="nonzero"/><path fill="#769fb6" d="M 200.429688 258.621094 L 174.570312 258.621094 C 170.992188 258.621094 168.101562 255.730469 168.101562 252.15625 C 168.101562 248.578125 170.992188 245.691406 174.570312 245.691406 L 200.429688 245.691406 C 204.007812 245.691406 206.898438 248.578125 206.898438 252.15625 C 206.898438 255.730469 204.007812 258.621094 200.429688 258.621094 Z M 200.429688 258.621094 " fill-opacity="1" fill-rule="nonzero"/><path fill="#608ea9" d="M 187.5 316.808594 C 204.425781 316.808594 220.035156 311.335938 232.789062 302.140625 C 232.789062 302.03125 232.757812 301.921875 232.757812 301.808594 L 232.757812 289.214844 C 220.023438 298.410156 204.421875 303.878906 187.5 303.878906 C 170.578125 303.878906 154.976562 298.410156 142.242188 289.214844 L 142.242188 301.808594 C 142.242188 301.921875 142.214844 302.03125 142.210938 302.140625 C 154.964844 311.335938 170.574219 316.808594 187.5 316.808594 Z M 187.5 316.808594 " fill-opacity="1" fill-rule="nonzero"/><path fill="#b8bebf" d="M 265.085938 168.101562 L 265.085938 226.292969 C 265.085938 228.460938 264.9375 230.59375 264.761719 232.71875 C 264.871094 232.71875 264.976562 232.757812 265.085938 232.757812 C 267.234375 232.757812 269.28125 232.339844 271.273438 231.722656 C 271.390625 229.921875 271.550781 228.121094 271.550781 226.292969 L 271.550781 169.246094 C 269.476562 168.574219 267.328125 168.101562 265.085938 168.101562 Z M 265.085938 168.101562 " fill-opacity="1" fill-rule="nonzero"/><path fill="#b8bebf" d="M 109.914062 226.292969 L 109.914062 168.101562 C 107.671875 168.101562 105.523438 168.574219 103.449219 169.246094 L 103.449219 226.292969 C 103.449219 228.121094 103.609375 229.921875 103.726562 231.722656 C 105.71875 232.339844 107.765625 232.757812 109.914062 232.757812 C 110.023438 232.757812 110.128906 232.71875 110.238281 232.71875 C 110.0625 230.59375 109.914062 228.460938 109.914062 226.292969 Z M 109.914062 226.292969 " fill-opacity="1" fill-rule="nonzero"/><path fill="#769fb6" d="M 181.035156 71.59375 L 193.964844 71.59375 L 193.964844 77.585938 L 181.035156 77.585938 Z M 181.035156 71.59375 " fill-opacity="1" fill-rule="nonzero"/><path fill="#769fb6" d="M 129.945312 109.914062 L 135.777344 109.914062 L 135.777344 122.84375 L 129.945312 122.84375 Z M 129.945312 109.914062 " fill-opacity="1" fill-rule="nonzero"/><path fill="#769fb6" d="M 246.324219 96.984375 L 246.324219 90.988281 C 246.324219 88.539062 245.820312 86.210938 244.984375 84.050781 L 239.222656 84.050781 L 239.222656 87.199219 C 239.597656 88.410156 239.859375 89.664062 239.859375 90.988281 L 239.859375 96.984375 Z M 246.324219 96.984375 " fill-opacity="1" fill-rule="nonzero"/><path fill="#769fb6" d="M 213.363281 71.59375 L 226.292969 71.59375 L 226.292969 77.585938 L 213.363281 77.585938 Z M 213.363281 71.59375 " fill-opacity="1" fill-rule="nonzero"/><path fill="#769fb6" d="M 239.859375 135.777344 L 246.324219 135.777344 L 246.324219 148.707031 L 239.859375 148.707031 Z M 239.859375 135.777344 " fill-opacity="1" fill-rule="nonzero"/><path fill="#769fb6" d="M 239.859375 109.914062 L 246.324219 109.914062 L 246.324219 122.84375 L 239.859375 122.84375 Z M 239.859375 109.914062 " fill-opacity="1" fill-rule="nonzero"/><path fill="#769fb6" d="M 129.945312 135.777344 L 135.777344 135.777344 L 135.777344 148.707031 L 129.945312 148.707031 Z M 129.945312 135.777344 " fill-opacity="1" fill-rule="nonzero"/><path fill="#769fb6" d="M 149.339844 71.59375 C 146.503906 71.59375 143.824219 72.238281 141.394531 73.339844 L 148.707031 75.78125 L 148.707031 78.121094 C 148.921875 78.109375 149.121094 78.058594 149.339844 78.058594 L 161.636719 78.058594 L 161.636719 71.59375 Z M 149.339844 71.59375 " fill-opacity="1" fill-rule="nonzero"/><path fill="#769fb6" d="M 136.410156 90.988281 C 136.410156 88.429688 137.179688 86.054688 138.460938 84.050781 L 131.28125 84.050781 C 130.449219 86.210938 129.945312 88.539062 129.945312 90.988281 L 129.945312 96.984375 L 136.410156 96.984375 Z M 136.410156 90.988281 " fill-opacity="1" fill-rule="nonzero"/><path fill="#ffb41f" d="M 239.691406 170.230469 C 239.761719 169.679688 239.859375 169.144531 239.859375 168.574219 L 239.859375 163.492188 C 222.859375 168.238281 205.339844 170.691406 187.5 170.691406 C 170.101562 170.691406 153.007812 168.355469 136.410156 163.84375 L 136.410156 168.574219 C 136.410156 169.265625 136.507812 169.925781 136.609375 170.59375 C 170.410156 179.40625 205.933594 179.277344 239.691406 170.230469 Z M 239.691406 170.230469 " fill-opacity="1" fill-rule="nonzero"/><path fill="#769fb6" d="M 329.742188 219.828125 C 329.742188 217.550781 330.207031 215.390625 330.929688 213.363281 L 324.195312 213.363281 C 323.652344 215.445312 323.277344 217.585938 323.277344 219.828125 C 323.277344 222.070312 323.652344 224.210938 324.195312 226.292969 L 330.929688 226.292969 C 330.207031 224.261719 329.742188 222.101562 329.742188 219.828125 Z M 329.742188 219.828125 " fill-opacity="1" fill-rule="nonzero"/><path fill="#769fb6" d="M 336.207031 84.050781 C 336.207031 81.777344 336.671875 79.617188 337.398438 77.585938 L 330.660156 77.585938 C 330.117188 79.667969 329.742188 81.808594 329.742188 84.050781 C 329.742188 86.296875 330.117188 88.433594 330.660156 90.515625 L 337.398438 90.515625 C 336.671875 88.488281 336.207031 86.328125 336.207031 84.050781 Z M 336.207031 84.050781 " fill-opacity="1" fill-rule="nonzero"/><path fill="#769fb6" d="M 297.414062 45.257812 C 297.414062 42.984375 297.878906 40.824219 298.601562 38.792969 L 291.867188 38.792969 C 291.324219 40.875 290.949219 43.015625 290.949219 45.257812 C 290.949219 47.503906 291.324219 49.640625 291.867188 51.722656 L 298.601562 51.722656 C 297.878906 49.695312 297.414062 47.535156 297.414062 45.257812 Z M 297.414062 45.257812 " fill-opacity="1" fill-rule="nonzero"/><path fill="#769fb6" d="M 297.414062 142.242188 C 297.414062 139.964844 297.878906 137.804688 298.601562 135.777344 L 291.867188 135.777344 C 291.324219 137.859375 290.949219 139.996094 290.949219 142.242188 C 290.949219 144.484375 291.324219 146.625 291.867188 148.707031 L 298.601562 148.707031 C 297.878906 146.675781 297.414062 144.515625 297.414062 142.242188 Z M 297.414062 142.242188 " fill-opacity="1" fill-rule="nonzero"/><path fill="#769fb6" d="M 77.585938 226.292969 C 77.585938 228.570312 77.121094 230.726562 76.398438 232.757812 L 83.132812 232.757812 C 83.675781 230.675781 84.050781 228.535156 84.050781 226.292969 C 84.050781 224.050781 83.675781 221.910156 83.132812 219.828125 L 76.398438 219.828125 C 77.121094 221.859375 77.585938 224.015625 77.585938 226.292969 Z M 77.585938 226.292969 " fill-opacity="1" fill-rule="nonzero"/><path fill="#769fb6" d="M 38.792969 96.984375 C 38.792969 99.257812 38.328125 101.417969 37.601562 103.449219 L 44.339844 103.449219 C 44.882812 101.367188 45.257812 99.226562 45.257812 96.984375 C 45.257812 94.738281 44.882812 92.597656 44.339844 90.515625 L 37.601562 90.515625 C 38.328125 92.546875 38.792969 94.707031 38.792969 96.984375 Z M 38.792969 96.984375 " fill-opacity="1" fill-rule="nonzero"/><path fill="#769fb6" d="M 57.273438 181.035156 C 57.816406 178.953125 58.191406 176.8125 58.191406 174.570312 C 58.191406 172.324219 57.816406 170.183594 57.273438 168.101562 L 50.535156 168.101562 C 51.257812 170.132812 51.722656 172.292969 51.722656 174.570312 C 51.722656 176.84375 51.257812 179.003906 50.535156 181.035156 Z M 57.273438 181.035156 " fill-opacity="1" fill-rule="nonzero"/><path fill="#769fb6" d="M 46.175781 12.929688 C 45.632812 15.011719 45.257812 17.152344 45.257812 19.398438 C 45.257812 21.640625 45.632812 23.78125 46.175781 25.863281 L 52.914062 25.863281 C 52.191406 23.832031 51.722656 21.671875 51.722656 19.398438 C 51.722656 17.121094 52.191406 14.960938 52.914062 12.929688 Z M 46.175781 12.929688 " fill-opacity="1" fill-rule="nonzero"/><path fill="#769fb6" d="M 239.222656 44.070312 C 237.195312 44.792969 235.035156 45.257812 232.757812 45.257812 C 230.484375 45.257812 228.324219 44.792969 226.292969 44.070312 L 226.292969 50.804688 C 228.375 51.347656 230.515625 51.722656 232.757812 51.722656 C 235.003906 51.722656 237.140625 51.347656 239.222656 50.804688 Z M 239.222656 44.070312 " fill-opacity="1" fill-rule="nonzero"/><path fill="#769fb6" d="M 174.570312 44.339844 L 174.570312 37.601562 C 172.539062 38.328125 170.378906 38.792969 168.101562 38.792969 C 165.828125 38.792969 163.667969 38.328125 161.636719 37.601562 L 161.636719 44.339844 C 163.71875 44.882812 165.859375 45.257812 168.101562 45.257812 C 170.347656 45.257812 172.488281 44.882812 174.570312 44.339844 Z M 174.570312 44.339844 " fill-opacity="1" fill-rule="nonzero"/><path fill="#769fb6" d="M 128.0625 55.265625 L 122.84375 53.527344 L 122.84375 50.527344 C 120.816406 51.257812 118.65625 51.722656 116.378906 51.722656 C 114.101562 51.722656 111.945312 51.257812 109.914062 50.535156 L 109.914062 57.265625 C 111.988281 57.808594 114.128906 58.191406 116.378906 58.191406 C 120.609375 58.191406 124.539062 57.078125 128.0625 55.265625 Z M 128.0625 55.265625 " fill-opacity="1" fill-rule="nonzero"/><path fill="#769fb6" d="M 288.761719 187.5 C 290.152344 191.464844 290.949219 195.828125 290.949219 200.429688 L 297.414062 200.429688 C 297.414062 195.890625 296.726562 191.554688 295.527344 187.5 Z M 288.761719 187.5 " fill-opacity="1" fill-rule="nonzero"/><path fill="#769fb6" d="M 89.339844 219.828125 L 81.957031 219.828125 C 84.464844 225.011719 87.929688 229.449219 92.082031 232.757812 L 109.914062 232.757812 C 101.484375 232.757812 94.058594 227.636719 89.339844 219.828125 Z M 89.339844 219.828125 " fill-opacity="1" fill-rule="nonzero"/></svg>