<svg xmlns="http://www.w3.org/2000/svg" xmlns:xlink="http://www.w3.org/1999/xlink" width="500" zoomAndPan="magnify" viewBox="0 0 375 374.999991" height="500" preserveAspectRatio="xMidYMid meet" version="1.0"><path fill="#a2bdcd" d="M 51.722656 349.136719 C 48.148438 349.136719 45.257812 346.242188 45.257812 342.671875 L 45.257812 316.808594 C 45.257812 315.097656 45.9375 313.449219 47.152344 312.238281 L 101.597656 257.792969 C 104.128906 255.265625 108.214844 255.265625 110.742188 257.792969 C 113.269531 260.320312 113.269531 264.40625 110.742188 266.933594 L 58.191406 319.488281 L 58.191406 342.671875 C 58.191406 346.242188 55.300781 349.136719 51.722656 349.136719 Z M 51.722656 349.136719 " fill-opacity="1" fill-rule="nonzero"/><path fill="#a2bdcd" d="M 64.65625 265.085938 L 32.328125 265.085938 C 28.753906 265.085938 25.863281 262.191406 25.863281 258.621094 C 25.863281 255.050781 28.753906 252.15625 32.328125 252.15625 L 61.976562 252.15625 L 87.046875 227.089844 C 89.574219 224.558594 93.660156 224.558594 96.1875 227.089844 C 98.714844 229.617188 98.714844 233.703125 96.1875 236.230469 L 69.226562 263.191406 C 68.015625 264.40625 66.375 265.085938 64.65625 265.085938 Z M 64.65625 265.085938 " fill-opacity="1" fill-rule="nonzero"/><path fill="#a2bdcd" d="M 310.34375 310.34375 C 306.769531 310.34375 303.878906 307.449219 303.878906 303.878906 L 303.878906 282.394531 L 275.617188 271.085938 C 273.160156 270.101562 271.550781 267.730469 271.550781 265.085938 L 271.550781 229.300781 L 250.828125 211.84375 C 248.101562 209.539062 247.753906 205.460938 250.054688 202.734375 C 252.34375 200.011719 256.429688 199.648438 259.164062 201.957031 L 282.1875 221.351562 C 283.640625 222.574219 284.484375 224.386719 284.484375 226.292969 L 284.484375 260.710938 L 312.742188 272.015625 C 315.199219 273 316.808594 275.371094 316.808594 278.015625 L 316.808594 303.878906 C 316.808594 307.449219 313.921875 310.34375 310.34375 310.34375 Z M 310.34375 310.34375 " fill-opacity="1" fill-rule="nonzero"/><path fill="#a2bdcd" d="M 90.515625 122.84375 L 64.65625 122.84375 C 61.867188 122.84375 59.398438 121.066406 58.527344 118.421875 L 53.527344 103.449219 L 32.328125 103.449219 C 28.753906 103.449219 25.863281 100.550781 25.863281 96.984375 C 25.863281 93.414062 28.753906 90.515625 32.328125 90.515625 L 58.191406 90.515625 C 60.976562 90.515625 63.441406 92.296875 64.320312 94.941406 L 69.316406 109.914062 L 90.515625 109.914062 C 94.09375 109.914062 96.984375 112.808594 96.984375 116.378906 C 96.984375 119.949219 94.09375 122.84375 90.515625 122.84375 Z M 90.515625 122.84375 " fill-opacity="1" fill-rule="nonzero"/><path fill="#a2bdcd" d="M 64.65625 168.101562 L 32.328125 168.101562 C 28.753906 168.101562 25.863281 165.207031 25.863281 161.636719 C 25.863281 158.070312 28.753906 155.171875 32.328125 155.171875 L 62.503906 155.171875 L 86.636719 137.070312 C 89.488281 134.914062 93.542969 135.503906 95.683594 138.363281 C 97.828125 141.21875 97.246094 145.273438 94.390625 147.414062 L 68.527344 166.808594 C 67.414062 167.652344 66.058594 168.101562 64.65625 168.101562 Z M 64.65625 168.101562 " fill-opacity="1" fill-rule="nonzero"/><path fill="#ffdd99" d="M 342.671875 45.257812 C 342.671875 46.109375 342.589844 46.949219 342.425781 47.78125 C 342.257812 48.613281 342.011719 49.421875 341.6875 50.207031 C 341.363281 50.992188 340.964844 51.738281 340.492188 52.441406 C 340.019531 53.148438 339.484375 53.800781 338.886719 54.402344 C 338.285156 55.003906 337.632812 55.539062 336.925781 56.011719 C 336.21875 56.480469 335.472656 56.878906 334.691406 57.207031 C 333.90625 57.53125 333.097656 57.777344 332.265625 57.941406 C 331.429688 58.105469 330.589844 58.191406 329.742188 58.191406 C 328.890625 58.191406 328.050781 58.105469 327.21875 57.941406 C 326.386719 57.777344 325.578125 57.53125 324.792969 57.207031 C 324.007812 56.878906 323.261719 56.480469 322.558594 56.011719 C 321.851562 55.539062 321.199219 55.003906 320.597656 54.402344 C 319.996094 53.800781 319.460938 53.148438 318.988281 52.441406 C 318.519531 51.738281 318.121094 50.992188 317.792969 50.207031 C 317.46875 49.421875 317.222656 48.613281 317.058594 47.78125 C 316.894531 46.949219 316.808594 46.109375 316.808594 45.257812 C 316.808594 44.410156 316.894531 43.570312 317.058594 42.734375 C 317.222656 41.902344 317.46875 41.09375 317.792969 40.308594 C 318.121094 39.527344 318.519531 38.78125 318.988281 38.074219 C 319.460938 37.367188 319.996094 36.714844 320.597656 36.113281 C 321.199219 35.515625 321.851562 34.980469 322.558594 34.507812 C 323.261719 34.035156 324.007812 33.636719 324.792969 33.3125 C 325.578125 32.988281 326.386719 32.742188 327.21875 32.574219 C 328.050781 32.410156 328.890625 32.328125 329.742188 32.328125 C 330.589844 32.328125 331.429688 32.410156 332.265625 32.574219 C 333.097656 32.742188 333.90625 32.988281 334.691406 33.3125 C 335.472656 33.636719 336.21875 34.035156 336.925781 34.507812 C 337.632812 34.980469 338.285156 35.515625 338.886719 36.113281 C 339.484375 36.714844 340.019531 37.367188 340.492188 38.074219 C 340.964844 38.78125 341.363281 39.527344 341.6875 40.308594 C 342.011719 41.09375 342.257812 41.902344 342.425781 42.734375 C 342.589844 43.570312 342.671875 44.410156 342.671875 45.257812 Z M 342.671875 45.257812 " fill-opacity="1" fill-rule="nonzero"/><path fill="#a2bdcd" d="M 271.550781 90.515625 L 239.222656 90.515625 C 235.648438 90.515625 232.757812 87.621094 232.757812 84.050781 C 232.757812 80.484375 235.648438 77.585938 239.222656 77.585938 L 268.09375 77.585938 L 292.035156 41.671875 C 293.238281 39.871094 295.253906 38.792969 297.414062 38.792969 L 316.808594 38.792969 C 320.386719 38.792969 323.277344 41.691406 323.277344 45.257812 C 323.277344 48.828125 320.386719 51.722656 316.808594 51.722656 L 300.871094 51.722656 L 276.929688 87.640625 C 275.726562 89.4375 273.710938 90.515625 271.550781 90.515625 Z M 271.550781 90.515625 " fill-opacity="1" fill-rule="nonzero"/><path fill="#a2bdcd" d="M 329.742188 142.242188 L 303.878906 142.242188 C 302.160156 142.242188 300.515625 141.5625 299.308594 140.347656 L 281.804688 122.84375 L 239.222656 122.84375 C 235.648438 122.84375 232.757812 119.949219 232.757812 116.378906 C 232.757812 112.808594 235.648438 109.914062 239.222656 109.914062 L 284.484375 109.914062 C 286.203125 109.914062 287.84375 110.59375 289.054688 111.808594 L 306.554688 129.308594 L 329.742188 129.308594 C 333.316406 129.308594 336.207031 132.207031 336.207031 135.777344 C 336.207031 139.34375 333.316406 142.242188 329.742188 142.242188 Z M 329.742188 142.242188 " fill-opacity="1" fill-rule="nonzero"/><path fill="#a2bdcd" d="M 342.671875 193.964844 L 303.878906 193.964844 C 301.960938 193.964844 300.140625 193.113281 298.90625 191.636719 L 268.519531 155.171875 L 239.222656 155.171875 C 235.648438 155.171875 232.757812 152.277344 232.757812 148.707031 C 232.757812 145.136719 235.648438 142.242188 239.222656 142.242188 L 271.550781 142.242188 C 273.472656 142.242188 275.289062 143.09375 276.523438 144.570312 L 306.910156 181.035156 L 342.671875 181.035156 C 346.246094 181.035156 349.136719 183.929688 349.136719 187.5 C 349.136719 191.070312 346.246094 193.964844 342.671875 193.964844 Z M 342.671875 193.964844 " fill-opacity="1" fill-rule="nonzero"/><path fill="#a2bdcd" d="M 200.429688 77.585938 C 196.855469 77.585938 193.964844 74.691406 193.964844 71.121094 L 193.964844 48.363281 L 165.835938 25.863281 L 96.984375 25.863281 C 93.40625 25.863281 90.515625 22.964844 90.515625 19.398438 C 90.515625 15.828125 93.40625 12.929688 96.984375 12.929688 L 168.101562 12.929688 C 169.578125 12.929688 170.992188 13.429688 172.144531 14.347656 L 204.472656 40.210938 C 206.003906 41.4375 206.898438 43.292969 206.898438 45.257812 L 206.898438 71.121094 C 206.898438 74.691406 204.007812 77.585938 200.429688 77.585938 Z M 200.429688 77.585938 " fill-opacity="1" fill-rule="nonzero"/><path fill="#a2bdcd" d="M 226.292969 84.050781 C 222.71875 84.050781 219.828125 81.15625 219.828125 77.585938 L 219.828125 51.722656 C 219.828125 50.011719 220.507812 48.363281 221.722656 47.152344 L 239.222656 29.652344 L 239.222656 6.464844 C 239.222656 2.898438 242.113281 0 245.691406 0 C 249.265625 0 252.15625 2.898438 252.15625 6.464844 L 252.15625 32.328125 C 252.15625 34.039062 251.476562 35.691406 250.261719 36.898438 L 232.757812 54.402344 L 232.757812 77.585938 C 232.757812 81.15625 229.867188 84.050781 226.292969 84.050781 Z M 226.292969 84.050781 " fill-opacity="1" fill-rule="nonzero"/><path fill="#a2bdcd" d="M 362.070312 96.984375 L 310.34375 96.984375 C 308.625 96.984375 306.984375 96.304688 305.773438 95.089844 L 279.910156 69.226562 C 277.382812 66.699219 277.382812 62.613281 279.910156 60.085938 C 282.441406 57.554688 286.527344 57.554688 289.054688 60.085938 L 313.023438 84.050781 L 362.070312 84.050781 C 365.644531 84.050781 368.535156 86.949219 368.535156 90.515625 C 368.535156 94.085938 365.644531 96.984375 362.070312 96.984375 Z M 362.070312 96.984375 " fill-opacity="1" fill-rule="nonzero"/><path fill="#b8bebf" d="M 142.242188 71.121094 L 245.691406 71.121094 L 245.691406 174.570312 L 142.242188 174.570312 Z M 142.242188 71.121094 " fill-opacity="1" fill-rule="nonzero"/><path fill="#608ea9" d="M 148.707031 103.449219 L 213.363281 103.449219 L 213.363281 142.242188 L 148.707031 142.242188 Z M 148.707031 103.449219 " fill-opacity="1" fill-rule="nonzero"/><path fill="#d0d8da" d="M 252.15625 301.589844 L 252.15625 187.5 L 148.707031 187.5 L 148.707031 297.414062 C 148.707031 313.035156 139.195312 327.078125 124.695312 332.882812 L 108.066406 339.535156 C 93.5625 345.335938 84.050781 359.378906 84.050781 375 L 290.949219 375 L 290.949219 364.359375 C 290.949219 351.066406 283.441406 338.914062 271.550781 332.972656 C 259.660156 327.03125 252.15625 314.882812 252.15625 301.589844 Z M 252.15625 301.589844 " fill-opacity="1" fill-rule="nonzero"/><path fill="#e9f1f2" d="M 174.570312 142.242188 L 174.570312 51.722656 C 124.578125 51.722656 84.050781 92.25 84.050781 142.242188 L 90.515625 155.171875 L 64.65625 213.363281 L 84.050781 219.828125 L 84.050781 226.292969 C 84.050781 262.003906 112.996094 290.949219 148.707031 290.949219 C 212.980469 290.949219 265.085938 238.84375 265.085938 174.570312 L 213.363281 174.570312 Z M 174.570312 142.242188 " fill-opacity="1" fill-rule="nonzero"/><path fill="#ffdd99" d="M 232.757812 310.34375 C 232.757812 311.195312 232.675781 312.035156 232.511719 312.867188 C 232.34375 313.699219 232.097656 314.507812 231.773438 315.292969 C 231.449219 316.078125 231.050781 316.824219 230.578125 317.527344 C 230.109375 318.234375 229.570312 318.886719 228.972656 319.488281 C 228.371094 320.089844 227.71875 320.625 227.011719 321.097656 C 226.304688 321.566406 225.558594 321.964844 224.777344 322.292969 C 223.992188 322.617188 223.183594 322.863281 222.351562 323.027344 C 221.515625 323.191406 220.675781 323.277344 219.828125 323.277344 C 218.980469 323.277344 218.136719 323.191406 217.304688 323.027344 C 216.472656 322.863281 215.664062 322.617188 214.878906 322.292969 C 214.09375 321.964844 213.347656 321.566406 212.644531 321.097656 C 211.9375 320.625 211.285156 320.089844 210.683594 319.488281 C 210.082031 318.886719 209.546875 318.234375 209.074219 317.527344 C 208.605469 316.824219 208.207031 316.078125 207.878906 315.292969 C 207.554688 314.507812 207.3125 313.699219 207.144531 312.867188 C 206.980469 312.035156 206.898438 311.195312 206.898438 310.34375 C 206.898438 309.496094 206.980469 308.65625 207.144531 307.820312 C 207.3125 306.988281 207.554688 306.179688 207.878906 305.394531 C 208.207031 304.613281 208.605469 303.867188 209.074219 303.160156 C 209.546875 302.453125 210.082031 301.800781 210.683594 301.199219 C 211.285156 300.601562 211.9375 300.066406 212.644531 299.59375 C 213.347656 299.121094 214.09375 298.722656 214.878906 298.398438 C 215.664062 298.074219 216.472656 297.828125 217.304688 297.664062 C 218.136719 297.496094 218.980469 297.414062 219.828125 297.414062 C 220.675781 297.414062 221.515625 297.496094 222.351562 297.664062 C 223.183594 297.828125 223.992188 298.074219 224.777344 298.398438 C 225.558594 298.722656 226.304688 299.121094 227.011719 299.59375 C 227.71875 300.066406 228.371094 300.601562 228.972656 301.199219 C 229.570312 301.800781 230.109375 302.453125 230.578125 303.160156 C 231.050781 303.867188 231.449219 304.613281 231.773438 305.394531 C 232.097656 306.179688 232.34375 306.988281 232.511719 307.820312 C 232.675781 308.65625 232.757812 309.496094 232.757812 310.34375 Z M 232.757812 310.34375 " fill-opacity="1" fill-rule="nonzero"/><path fill="#ffdd99" d="M 368.535156 187.5 C 368.535156 188.347656 368.453125 189.191406 368.285156 190.023438 C 368.121094 190.855469 367.875 191.664062 367.550781 192.449219 C 367.226562 193.234375 366.828125 193.976562 366.355469 194.683594 C 365.882812 195.390625 365.347656 196.042969 364.746094 196.644531 C 364.148438 197.242188 363.492188 197.78125 362.789062 198.25 C 362.082031 198.722656 361.335938 199.121094 360.550781 199.445312 C 359.765625 199.773438 358.957031 200.015625 358.125 200.183594 C 357.292969 200.347656 356.453125 200.429688 355.601562 200.429688 C 354.753906 200.429688 353.914062 200.347656 353.082031 200.183594 C 352.246094 200.015625 351.4375 199.773438 350.65625 199.445312 C 349.871094 199.121094 349.125 198.722656 348.417969 198.25 C 347.714844 197.78125 347.058594 197.242188 346.460938 196.644531 C 345.859375 196.042969 345.324219 195.390625 344.851562 194.683594 C 344.378906 193.976562 343.980469 193.234375 343.65625 192.449219 C 343.332031 191.664062 343.085938 190.855469 342.921875 190.023438 C 342.753906 189.191406 342.671875 188.347656 342.671875 187.5 C 342.671875 186.652344 342.753906 185.808594 342.921875 184.976562 C 343.085938 184.144531 343.332031 183.335938 343.65625 182.550781 C 343.980469 181.765625 344.378906 181.023438 344.851562 180.316406 C 345.324219 179.609375 345.859375 178.957031 346.460938 178.355469 C 347.058594 177.757812 347.714844 177.21875 348.417969 176.75 C 349.125 176.277344 349.871094 175.878906 350.65625 175.554688 C 351.4375 175.226562 352.246094 174.984375 353.082031 174.816406 C 353.914062 174.652344 354.753906 174.570312 355.601562 174.570312 C 356.453125 174.570312 357.292969 174.652344 358.125 174.816406 C 358.957031 174.984375 359.765625 175.226562 360.550781 175.554688 C 361.335938 175.878906 362.082031 176.277344 362.789062 176.75 C 363.492188 177.21875 364.148438 177.757812 364.746094 178.355469 C 365.347656 178.957031 365.882812 179.609375 366.355469 180.316406 C 366.828125 181.023438 367.226562 181.765625 367.550781 182.550781 C 367.875 183.335938 368.121094 184.144531 368.285156 184.976562 C 368.453125 185.808594 368.535156 186.652344 368.535156 187.5 Z M 368.535156 187.5 " fill-opacity="1" fill-rule="nonzero"/><path fill="#ffdd99" d="M 323.277344 316.808594 C 323.277344 317.660156 323.191406 318.5 323.027344 319.332031 C 322.863281 320.164062 322.617188 320.972656 322.292969 321.757812 C 321.964844 322.542969 321.566406 323.289062 321.097656 323.996094 C 320.625 324.699219 320.089844 325.351562 319.488281 325.953125 C 318.886719 326.554688 318.234375 327.089844 317.527344 327.5625 C 316.824219 328.035156 316.078125 328.433594 315.292969 328.757812 C 314.507812 329.082031 313.699219 329.328125 312.867188 329.492188 C 312.035156 329.660156 311.195312 329.742188 310.34375 329.742188 C 309.496094 329.742188 308.65625 329.660156 307.820312 329.492188 C 306.988281 329.328125 306.179688 329.082031 305.394531 328.757812 C 304.613281 328.433594 303.867188 328.035156 303.160156 327.5625 C 302.453125 327.089844 301.800781 326.554688 301.199219 325.953125 C 300.601562 325.351562 300.066406 324.699219 299.59375 323.996094 C 299.121094 323.289062 298.722656 322.542969 298.398438 321.757812 C 298.074219 320.972656 297.828125 320.164062 297.664062 319.332031 C 297.496094 318.5 297.414062 317.660156 297.414062 316.808594 C 297.414062 315.960938 297.496094 315.121094 297.664062 314.289062 C 297.828125 313.453125 298.074219 312.644531 298.398438 311.863281 C 298.722656 311.078125 299.121094 310.332031 299.59375 309.625 C 300.066406 308.921875 300.601562 308.265625 301.199219 307.667969 C 301.800781 307.066406 302.453125 306.53125 303.160156 306.058594 C 303.867188 305.585938 304.613281 305.1875 305.394531 304.863281 C 306.179688 304.539062 306.988281 304.292969 307.820312 304.128906 C 308.65625 303.960938 309.496094 303.878906 310.34375 303.878906 C 311.195312 303.878906 312.035156 303.960938 312.867188 304.128906 C 313.699219 304.292969 314.507812 304.539062 315.292969 304.863281 C 316.078125 305.1875 316.824219 305.585938 317.527344 306.058594 C 318.234375 306.53125 318.886719 307.066406 319.488281 307.667969 C 320.089844 308.265625 320.625 308.921875 321.097656 309.625 C 321.566406 310.332031 321.964844 311.078125 322.292969 311.863281 C 322.617188 312.644531 322.863281 313.453125 323.027344 314.289062 C 323.191406 315.121094 323.277344 315.960938 323.277344 316.808594 Z M 323.277344 316.808594 " fill-opacity="1" fill-rule="nonzero"/><path fill="#ffdd99" d="M 64.65625 355.601562 C 64.65625 356.453125 64.574219 357.292969 64.40625 358.125 C 64.242188 358.957031 63.996094 359.765625 63.671875 360.550781 C 63.347656 361.335938 62.949219 362.082031 62.476562 362.789062 C 62.003906 363.492188 61.46875 364.148438 60.867188 364.746094 C 60.265625 365.347656 59.613281 365.882812 58.910156 366.355469 C 58.203125 366.828125 57.457031 367.226562 56.671875 367.550781 C 55.886719 367.875 55.078125 368.121094 54.246094 368.285156 C 53.414062 368.453125 52.574219 368.535156 51.722656 368.535156 C 50.875 368.535156 50.035156 368.453125 49.203125 368.285156 C 48.367188 368.121094 47.558594 367.875 46.777344 367.550781 C 45.992188 367.226562 45.246094 366.828125 44.539062 366.355469 C 43.835938 365.882812 43.179688 365.347656 42.582031 364.746094 C 41.980469 364.148438 41.445312 363.492188 40.972656 362.789062 C 40.5 362.082031 40.101562 361.335938 39.777344 360.550781 C 39.453125 359.765625 39.207031 358.957031 39.042969 358.125 C 38.875 357.292969 38.792969 356.453125 38.792969 355.601562 C 38.792969 354.753906 38.875 353.914062 39.042969 353.082031 C 39.207031 352.246094 39.453125 351.4375 39.777344 350.65625 C 40.101562 349.871094 40.5 349.125 40.972656 348.417969 C 41.445312 347.714844 41.980469 347.058594 42.582031 346.460938 C 43.179688 345.859375 43.835938 345.324219 44.539062 344.851562 C 45.246094 344.378906 45.992188 343.980469 46.777344 343.65625 C 47.558594 343.332031 48.367188 343.085938 49.203125 342.921875 C 50.035156 342.753906 50.875 342.671875 51.722656 342.671875 C 52.574219 342.671875 53.414062 342.753906 54.246094 342.921875 C 55.078125 343.085938 55.886719 343.332031 56.671875 343.65625 C 57.457031 343.980469 58.203125 344.378906 58.910156 344.851562 C 59.613281 345.324219 60.265625 345.859375 60.867188 346.460938 C 61.46875 347.058594 62.003906 347.714844 62.476562 348.417969 C 62.949219 349.125 63.347656 349.871094 63.671875 350.65625 C 63.996094 351.4375 64.242188 352.246094 64.40625 353.082031 C 64.574219 353.914062 64.65625 354.753906 64.65625 355.601562 Z M 64.65625 355.601562 " fill-opacity="1" fill-rule="nonzero"/><path fill="#ffdd99" d="M 32.328125 258.621094 C 32.328125 259.46875 32.246094 260.3125 32.078125 261.144531 C 31.914062 261.976562 31.667969 262.785156 31.34375 263.570312 C 31.019531 264.355469 30.621094 265.097656 30.148438 265.804688 C 29.675781 266.511719 29.140625 267.164062 28.539062 267.765625 C 27.941406 268.363281 27.285156 268.902344 26.582031 269.371094 C 25.875 269.84375 25.128906 270.242188 24.34375 270.566406 C 23.5625 270.890625 22.753906 271.136719 21.917969 271.304688 C 21.085938 271.46875 20.246094 271.550781 19.398438 271.550781 C 18.546875 271.550781 17.707031 271.46875 16.875 271.304688 C 16.042969 271.136719 15.234375 270.890625 14.449219 270.566406 C 13.664062 270.242188 12.917969 269.84375 12.210938 269.371094 C 11.507812 268.902344 10.851562 268.363281 10.253906 267.765625 C 9.652344 267.164062 9.117188 266.511719 8.644531 265.804688 C 8.171875 265.097656 7.773438 264.355469 7.449219 263.570312 C 7.125 262.785156 6.878906 261.976562 6.714844 261.144531 C 6.546875 260.3125 6.464844 259.46875 6.464844 258.621094 C 6.464844 257.773438 6.546875 256.929688 6.714844 256.097656 C 6.878906 255.265625 7.125 254.457031 7.449219 253.671875 C 7.773438 252.886719 8.171875 252.140625 8.644531 251.4375 C 9.117188 250.730469 9.652344 250.078125 10.253906 249.476562 C 10.851562 248.875 11.507812 248.339844 12.210938 247.867188 C 12.917969 247.398438 13.664062 247 14.449219 246.675781 C 15.234375 246.347656 16.042969 246.105469 16.875 245.9375 C 17.707031 245.773438 18.546875 245.691406 19.398438 245.691406 C 20.246094 245.691406 21.085938 245.773438 21.917969 245.9375 C 22.753906 246.105469 23.5625 246.347656 24.34375 246.675781 C 25.128906 247 25.875 247.398438 26.582031 247.867188 C 27.285156 248.339844 27.941406 248.875 28.539062 249.476562 C 29.140625 250.078125 29.675781 250.730469 30.148438 251.4375 C 30.621094 252.140625 31.019531 252.886719 31.34375 253.671875 C 31.667969 254.457031 31.914062 255.265625 32.078125 256.097656 C 32.246094 256.929688 32.328125 257.773438 32.328125 258.621094 Z M 32.328125 258.621094 " fill-opacity="1" fill-rule="nonzero"/><path fill="#ffdd99" d="M 32.328125 161.636719 C 32.328125 162.488281 32.246094 163.328125 32.078125 164.160156 C 31.914062 164.992188 31.667969 165.800781 31.34375 166.585938 C 31.019531 167.371094 30.621094 168.117188 30.148438 168.820312 C 29.675781 169.527344 29.140625 170.179688 28.539062 170.78125 C 27.941406 171.382812 27.285156 171.917969 26.582031 172.390625 C 25.875 172.863281 25.128906 173.257812 24.34375 173.585938 C 23.5625 173.910156 22.753906 174.15625 21.917969 174.320312 C 21.085938 174.484375 20.246094 174.570312 19.398438 174.570312 C 18.546875 174.570312 17.707031 174.484375 16.875 174.320312 C 16.042969 174.15625 15.234375 173.910156 14.449219 173.585938 C 13.664062 173.257812 12.917969 172.863281 12.210938 172.390625 C 11.507812 171.917969 10.851562 171.382812 10.253906 170.78125 C 9.652344 170.179688 9.117188 169.527344 8.644531 168.820312 C 8.171875 168.117188 7.773438 167.371094 7.449219 166.585938 C 7.125 165.800781 6.878906 164.992188 6.714844 164.160156 C 6.546875 163.328125 6.464844 162.488281 6.464844 161.636719 C 6.464844 160.789062 6.546875 159.949219 6.714844 159.113281 C 6.878906 158.28125 7.125 157.472656 7.449219 156.6875 C 7.773438 155.90625 8.171875 155.160156 8.644531 154.453125 C 9.117188 153.746094 9.652344 153.09375 10.253906 152.496094 C 10.851562 151.894531 11.507812 151.359375 12.210938 150.886719 C 12.917969 150.414062 13.664062 150.015625 14.449219 149.691406 C 15.234375 149.367188 16.042969 149.121094 16.875 148.957031 C 17.707031 148.789062 18.546875 148.707031 19.398438 148.707031 C 20.246094 148.707031 21.085938 148.789062 21.917969 148.957031 C 22.753906 149.121094 23.5625 149.367188 24.34375 149.691406 C 25.128906 150.015625 25.875 150.414062 26.582031 150.886719 C 27.285156 151.359375 27.941406 151.894531 28.539062 152.496094 C 29.140625 153.09375 29.675781 153.746094 30.148438 154.453125 C 30.621094 155.160156 31.019531 155.90625 31.34375 156.6875 C 31.667969 157.472656 31.914062 158.28125 32.078125 159.113281 C 32.246094 159.949219 32.328125 160.789062 32.328125 161.636719 Z M 32.328125 161.636719 " fill-opacity="1" fill-rule="nonzero"/><path fill="#ffdd99" d="M 355.601562 135.777344 C 355.601562 136.625 355.519531 137.464844 355.355469 138.296875 C 355.1875 139.132812 354.945312 139.941406 354.617188 140.722656 C 354.292969 141.507812 353.894531 142.253906 353.425781 142.960938 C 352.953125 143.664062 352.417969 144.320312 351.816406 144.917969 C 351.214844 145.519531 350.5625 146.054688 349.855469 146.527344 C 349.152344 147 348.40625 147.398438 347.621094 147.722656 C 346.835938 148.046875 346.027344 148.292969 345.195312 148.457031 C 344.363281 148.625 343.519531 148.707031 342.671875 148.707031 C 341.824219 148.707031 340.980469 148.625 340.148438 148.457031 C 339.316406 148.292969 338.507812 148.046875 337.722656 147.722656 C 336.9375 147.398438 336.195312 147 335.488281 146.527344 C 334.78125 146.054688 334.128906 145.519531 333.527344 144.917969 C 332.929688 144.320312 332.390625 143.664062 331.921875 142.960938 C 331.449219 142.253906 331.050781 141.507812 330.726562 140.722656 C 330.402344 139.941406 330.15625 139.132812 329.988281 138.296875 C 329.824219 137.464844 329.742188 136.625 329.742188 135.777344 C 329.742188 134.925781 329.824219 134.085938 329.988281 133.253906 C 330.15625 132.421875 330.402344 131.613281 330.726562 130.828125 C 331.050781 130.042969 331.449219 129.296875 331.921875 128.589844 C 332.390625 127.886719 332.929688 127.234375 333.527344 126.632812 C 334.128906 126.03125 334.78125 125.496094 335.488281 125.023438 C 336.195312 124.550781 336.9375 124.152344 337.722656 123.828125 C 338.507812 123.503906 339.316406 123.257812 340.148438 123.09375 C 340.980469 122.925781 341.824219 122.84375 342.671875 122.84375 C 343.519531 122.84375 344.363281 122.925781 345.195312 123.09375 C 346.027344 123.257812 346.835938 123.503906 347.621094 123.828125 C 348.40625 124.152344 349.152344 124.550781 349.855469 125.023438 C 350.5625 125.496094 351.214844 126.03125 351.816406 126.632812 C 352.417969 127.234375 352.953125 127.886719 353.425781 128.589844 C 353.894531 129.296875 354.292969 130.042969 354.617188 130.828125 C 354.945312 131.613281 355.1875 132.421875 355.355469 133.253906 C 355.519531 134.085938 355.601562 134.925781 355.601562 135.777344 Z M 355.601562 135.777344 " fill-opacity="1" fill-rule="nonzero"/><path fill="#ffdd99" d="M 96.984375 19.398438 C 96.984375 20.246094 96.898438 21.085938 96.734375 21.917969 C 96.570312 22.753906 96.324219 23.5625 96 24.34375 C 95.671875 25.128906 95.273438 25.875 94.804688 26.582031 C 94.332031 27.285156 93.796875 27.941406 93.195312 28.539062 C 92.59375 29.140625 91.941406 29.675781 91.234375 30.148438 C 90.53125 30.621094 89.785156 31.019531 89 31.34375 C 88.214844 31.667969 87.40625 31.914062 86.574219 32.078125 C 85.742188 32.246094 84.902344 32.328125 84.050781 32.328125 C 83.203125 32.328125 82.363281 32.246094 81.527344 32.078125 C 80.695312 31.914062 79.886719 31.667969 79.101562 31.34375 C 78.320312 31.019531 77.574219 30.621094 76.867188 30.148438 C 76.160156 29.675781 75.507812 29.140625 74.90625 28.539062 C 74.308594 27.941406 73.773438 27.285156 73.300781 26.582031 C 72.828125 25.875 72.429688 25.128906 72.105469 24.34375 C 71.78125 23.5625 71.535156 22.753906 71.371094 21.917969 C 71.203125 21.085938 71.121094 20.246094 71.121094 19.398438 C 71.121094 18.546875 71.203125 17.707031 71.367188 16.875 C 71.535156 16.042969 71.78125 15.234375 72.105469 14.449219 C 72.429688 13.664062 72.828125 12.917969 73.300781 12.210938 C 73.773438 11.507812 74.308594 10.851562 74.90625 10.253906 C 75.507812 9.652344 76.160156 9.117188 76.867188 8.644531 C 77.574219 8.171875 78.320312 7.773438 79.101562 7.449219 C 79.886719 7.125 80.695312 6.878906 81.527344 6.714844 C 82.363281 6.546875 83.203125 6.464844 84.050781 6.464844 C 84.902344 6.464844 85.742188 6.546875 86.574219 6.714844 C 87.40625 6.878906 88.214844 7.125 89 7.449219 C 89.785156 7.773438 90.53125 8.171875 91.234375 8.644531 C 91.941406 9.117188 92.59375 9.652344 93.195312 10.253906 C 93.796875 10.851562 94.332031 11.507812 94.804688 12.210938 C 95.273438 12.917969 95.671875 13.664062 96 14.449219 C 96.324219 15.234375 96.570312 16.042969 96.734375 16.875 C 96.898438 17.707031 96.984375 18.546875 96.984375 19.398438 Z M 96.984375 19.398438 " fill-opacity="1" fill-rule="nonzero"/><path fill="#a2bdcd" d="M 142.242188 375 L 142.242188 349.136719 C 142.242188 346.171875 144.257812 343.585938 147.140625 342.867188 L 168.101562 337.621094 L 168.101562 323.277344 C 168.101562 319.707031 170.992188 316.808594 174.570312 316.808594 C 178.144531 316.808594 181.035156 319.707031 181.035156 323.277344 L 181.035156 342.671875 C 181.035156 345.640625 179.011719 348.226562 176.132812 348.945312 L 155.171875 354.1875 L 155.171875 375 Z M 142.242188 375 " fill-opacity="1" fill-rule="nonzero"/><path fill="#a2bdcd" d="M 239.222656 375 L 239.222656 359.597656 L 216.9375 348.453125 C 214.746094 347.359375 213.363281 345.121094 213.363281 342.671875 L 213.363281 323.277344 C 213.363281 319.707031 216.253906 316.808594 219.828125 316.808594 C 223.402344 316.808594 226.292969 319.707031 226.292969 323.277344 L 226.292969 338.675781 L 248.578125 349.824219 C 250.773438 350.914062 252.15625 353.152344 252.15625 355.601562 L 252.15625 375 Z M 239.222656 375 " fill-opacity="1" fill-rule="nonzero"/><path fill="#a2bdcd" d="M 193.964844 375 L 193.964844 355.601562 C 193.964844 352.035156 196.855469 349.136719 200.429688 349.136719 C 204.007812 349.136719 206.898438 352.035156 206.898438 355.601562 L 206.898438 375 Z M 193.964844 375 " fill-opacity="1" fill-rule="nonzero"/><path fill="#a2bdcd" d="M 96.984375 64.65625 L 51.722656 64.65625 C 48.148438 64.65625 45.257812 61.757812 45.257812 58.191406 C 45.257812 54.621094 48.148438 51.722656 51.722656 51.722656 L 94.304688 51.722656 L 131.203125 14.824219 C 133.734375 12.296875 137.820312 12.296875 140.347656 14.824219 C 142.875 17.351562 142.875 21.441406 140.347656 23.96875 L 101.554688 62.761719 C 100.34375 63.976562 98.703125 64.65625 96.984375 64.65625 Z M 96.984375 64.65625 " fill-opacity="1" fill-rule="nonzero"/><path fill="#ffc857" d="M 219.828125 290.949219 C 209.132812 290.949219 200.429688 299.652344 200.429688 310.34375 C 200.429688 321.039062 209.132812 329.742188 219.828125 329.742188 C 230.523438 329.742188 239.222656 321.039062 239.222656 310.34375 C 239.222656 299.652344 230.523438 290.949219 219.828125 290.949219 Z M 219.828125 316.808594 C 216.257812 316.808594 213.363281 313.90625 213.363281 310.34375 C 213.363281 306.78125 216.257812 303.878906 219.828125 303.878906 C 223.398438 303.878906 226.292969 306.78125 226.292969 310.34375 C 226.292969 313.90625 223.398438 316.808594 219.828125 316.808594 Z M 219.828125 316.808594 " fill-opacity="1" fill-rule="nonzero"/><path fill="#ffc857" d="M 355.601562 168.101562 C 344.910156 168.101562 336.207031 176.804688 336.207031 187.5 C 336.207031 198.195312 344.910156 206.898438 355.601562 206.898438 C 366.296875 206.898438 375 198.195312 375 187.5 C 375 176.804688 366.296875 168.101562 355.601562 168.101562 Z M 355.601562 193.964844 C 352.035156 193.964844 349.136719 191.0625 349.136719 187.5 C 349.136719 183.9375 352.035156 181.035156 355.601562 181.035156 C 359.171875 181.035156 362.070312 183.9375 362.070312 187.5 C 362.070312 191.0625 359.171875 193.964844 355.601562 193.964844 Z M 355.601562 193.964844 " fill-opacity="1" fill-rule="nonzero"/><path fill="#ffc857" d="M 310.34375 297.414062 C 299.652344 297.414062 290.949219 306.117188 290.949219 316.808594 C 290.949219 327.503906 299.652344 336.207031 310.34375 336.207031 C 321.039062 336.207031 329.742188 327.503906 329.742188 316.808594 C 329.742188 306.117188 321.039062 297.414062 310.34375 297.414062 Z M 310.34375 323.277344 C 306.777344 323.277344 303.878906 320.371094 303.878906 316.808594 C 303.878906 313.246094 306.777344 310.34375 310.34375 310.34375 C 313.914062 310.34375 316.808594 313.246094 316.808594 316.808594 C 316.808594 320.371094 313.914062 323.277344 310.34375 323.277344 Z M 310.34375 323.277344 " fill-opacity="1" fill-rule="nonzero"/><path fill="#ffc857" d="M 51.722656 336.207031 C 41.03125 336.207031 32.328125 344.910156 32.328125 355.601562 C 32.328125 366.296875 41.03125 375 51.722656 375 C 62.417969 375 71.121094 366.296875 71.121094 355.601562 C 71.121094 344.910156 62.417969 336.207031 51.722656 336.207031 Z M 51.722656 362.070312 C 48.15625 362.070312 45.257812 359.164062 45.257812 355.601562 C 45.257812 352.039062 48.15625 349.136719 51.722656 349.136719 C 55.292969 349.136719 58.191406 352.039062 58.191406 355.601562 C 58.191406 359.164062 55.292969 362.070312 51.722656 362.070312 Z M 51.722656 362.070312 " fill-opacity="1" fill-rule="nonzero"/><path fill="#ffc857" d="M 19.398438 239.222656 C 8.703125 239.222656 0 247.925781 0 258.621094 C 0 269.316406 8.703125 278.015625 19.398438 278.015625 C 30.089844 278.015625 38.792969 269.316406 38.792969 258.621094 C 38.792969 247.925781 30.089844 239.222656 19.398438 239.222656 Z M 19.398438 265.085938 C 15.828125 265.085938 12.929688 262.183594 12.929688 258.621094 C 12.929688 255.058594 15.828125 252.15625 19.398438 252.15625 C 22.964844 252.15625 25.863281 255.058594 25.863281 258.621094 C 25.863281 262.183594 22.964844 265.085938 19.398438 265.085938 Z M 19.398438 265.085938 " fill-opacity="1" fill-rule="nonzero"/><path fill="#ffc857" d="M 19.398438 181.035156 C 30.089844 181.035156 38.792969 172.332031 38.792969 161.636719 C 38.792969 150.945312 30.089844 142.242188 19.398438 142.242188 C 8.703125 142.242188 0 150.945312 0 161.636719 C 0 172.332031 8.703125 181.035156 19.398438 181.035156 Z M 19.398438 155.171875 C 22.964844 155.171875 25.863281 158.074219 25.863281 161.636719 C 25.863281 165.199219 22.964844 168.101562 19.398438 168.101562 C 15.828125 168.101562 12.929688 165.199219 12.929688 161.636719 C 12.929688 158.074219 15.828125 155.171875 19.398438 155.171875 Z M 19.398438 155.171875 " fill-opacity="1" fill-rule="nonzero"/><path fill="#ffc857" d="M 323.277344 135.777344 C 323.277344 146.46875 331.976562 155.171875 342.671875 155.171875 C 353.367188 155.171875 362.070312 146.46875 362.070312 135.777344 C 362.070312 125.082031 353.367188 116.378906 342.671875 116.378906 C 331.976562 116.378906 323.277344 125.082031 323.277344 135.777344 Z M 349.136719 135.777344 C 349.136719 139.339844 346.242188 142.242188 342.671875 142.242188 C 339.101562 142.242188 336.207031 139.339844 336.207031 135.777344 C 336.207031 132.214844 339.101562 129.308594 342.671875 129.308594 C 346.242188 129.308594 349.136719 132.214844 349.136719 135.777344 Z M 349.136719 135.777344 " fill-opacity="1" fill-rule="nonzero"/><path fill="#ffc857" d="M 329.742188 64.65625 C 340.433594 64.65625 349.136719 55.953125 349.136719 45.257812 C 349.136719 34.566406 340.433594 25.863281 329.742188 25.863281 C 319.046875 25.863281 310.34375 34.566406 310.34375 45.257812 C 310.34375 55.953125 319.046875 64.65625 329.742188 64.65625 Z M 329.742188 38.792969 C 333.308594 38.792969 336.207031 41.695312 336.207031 45.257812 C 336.207031 48.820312 333.308594 51.722656 329.742188 51.722656 C 326.171875 51.722656 323.277344 48.820312 323.277344 45.257812 C 323.277344 41.695312 326.171875 38.792969 329.742188 38.792969 Z M 329.742188 38.792969 " fill-opacity="1" fill-rule="nonzero"/><path fill="#ffc857" d="M 84.050781 0 C 73.359375 0 64.65625 8.703125 64.65625 19.398438 C 64.65625 30.089844 73.359375 38.792969 84.050781 38.792969 C 94.746094 38.792969 103.449219 30.089844 103.449219 19.398438 C 103.449219 8.703125 94.746094 0 84.050781 0 Z M 84.050781 25.863281 C 80.484375 25.863281 77.585938 22.960938 77.585938 19.398438 C 77.585938 15.835938 80.484375 12.929688 84.050781 12.929688 C 87.621094 12.929688 90.515625 15.835938 90.515625 19.398438 C 90.515625 22.960938 87.621094 25.863281 84.050781 25.863281 Z M 84.050781 25.863281 " fill-opacity="1" fill-rule="nonzero"/><path fill="#a2bdcd" d="M 142.242188 148.707031 C 142.242188 149.554688 142.160156 150.398438 141.992188 151.230469 C 141.828125 152.0625 141.582031 152.871094 141.257812 153.65625 C 140.933594 154.441406 140.535156 155.183594 140.0625 155.890625 C 139.589844 156.597656 139.054688 157.25 138.453125 157.851562 C 137.855469 158.449219 137.199219 158.988281 136.496094 159.457031 C 135.789062 159.929688 135.042969 160.328125 134.257812 160.652344 C 133.472656 160.976562 132.664062 161.222656 131.832031 161.390625 C 131 161.554688 130.160156 161.636719 129.308594 161.636719 C 128.460938 161.636719 127.621094 161.554688 126.789062 161.390625 C 125.953125 161.222656 125.144531 160.976562 124.363281 160.652344 C 123.578125 160.328125 122.832031 159.929688 122.125 159.457031 C 121.421875 158.988281 120.765625 158.449219 120.167969 157.851562 C 119.566406 157.25 119.03125 156.597656 118.558594 155.890625 C 118.085938 155.183594 117.6875 154.441406 117.363281 153.65625 C 117.039062 152.871094 116.792969 152.0625 116.628906 151.230469 C 116.460938 150.398438 116.378906 149.554688 116.378906 148.707031 C 116.378906 147.859375 116.460938 147.015625 116.628906 146.183594 C 116.792969 145.351562 117.039062 144.542969 117.363281 143.757812 C 117.6875 142.972656 118.085938 142.230469 118.558594 141.523438 C 119.03125 140.816406 119.566406 140.164062 120.167969 139.5625 C 120.765625 138.960938 121.421875 138.425781 122.125 137.957031 C 122.832031 137.484375 123.578125 137.085938 124.363281 136.761719 C 125.144531 136.433594 125.953125 136.191406 126.789062 136.023438 C 127.621094 135.859375 128.460938 135.777344 129.308594 135.777344 C 130.160156 135.777344 131 135.859375 131.832031 136.023438 C 132.664062 136.191406 133.472656 136.433594 134.257812 136.761719 C 135.042969 137.085938 135.789062 137.484375 136.496094 137.957031 C 137.199219 138.425781 137.855469 138.960938 138.453125 139.5625 C 139.054688 140.164062 139.589844 140.816406 140.0625 141.523438 C 140.535156 142.230469 140.933594 142.972656 141.257812 143.757812 C 141.582031 144.542969 141.828125 145.351562 141.992188 146.183594 C 142.160156 147.015625 142.242188 147.859375 142.242188 148.707031 Z M 142.242188 148.707031 " fill-opacity="1" fill-rule="nonzero"/><path fill="#769fb6" d="M 135.777344 148.707031 C 135.777344 149.132812 135.734375 149.550781 135.652344 149.96875 C 135.570312 150.382812 135.445312 150.789062 135.285156 151.179688 C 135.121094 151.574219 134.921875 151.945312 134.6875 152.300781 C 134.449219 152.652344 134.183594 152.976562 133.882812 153.277344 C 133.582031 153.578125 133.253906 153.847656 132.902344 154.082031 C 132.550781 154.320312 132.175781 154.519531 131.785156 154.679688 C 131.390625 154.84375 130.988281 154.964844 130.570312 155.046875 C 130.15625 155.132812 129.734375 155.171875 129.308594 155.171875 C 128.886719 155.171875 128.464844 155.132812 128.050781 155.046875 C 127.632812 154.964844 127.226562 154.84375 126.835938 154.679688 C 126.445312 154.519531 126.070312 154.320312 125.71875 154.082031 C 125.367188 153.847656 125.039062 153.578125 124.738281 153.277344 C 124.4375 152.976562 124.171875 152.652344 123.933594 152.300781 C 123.699219 151.945312 123.5 151.574219 123.335938 151.179688 C 123.175781 150.789062 123.050781 150.382812 122.96875 149.96875 C 122.886719 149.550781 122.84375 149.132812 122.84375 148.707031 C 122.84375 148.28125 122.886719 147.863281 122.96875 147.445312 C 123.050781 147.027344 123.175781 146.625 123.335938 146.234375 C 123.5 145.839844 123.699219 145.46875 123.933594 145.113281 C 124.171875 144.761719 124.4375 144.433594 124.738281 144.136719 C 125.039062 143.835938 125.367188 143.566406 125.71875 143.332031 C 126.070312 143.09375 126.445312 142.894531 126.835938 142.734375 C 127.226562 142.570312 127.632812 142.449219 128.050781 142.367188 C 128.464844 142.28125 128.886719 142.242188 129.308594 142.242188 C 129.734375 142.242188 130.15625 142.28125 130.570312 142.367188 C 130.988281 142.449219 131.390625 142.570312 131.785156 142.734375 C 132.175781 142.894531 132.550781 143.09375 132.902344 143.332031 C 133.253906 143.566406 133.582031 143.835938 133.882812 144.136719 C 134.183594 144.433594 134.449219 144.761719 134.6875 145.113281 C 134.921875 145.46875 135.121094 145.839844 135.285156 146.234375 C 135.445312 146.625 135.570312 147.027344 135.652344 147.445312 C 135.734375 147.863281 135.777344 148.28125 135.777344 148.707031 Z M 135.777344 148.707031 " fill-opacity="1" fill-rule="nonzero"/><path fill="#a2bdcd" d="M 200.429688 226.292969 L 200.429688 278.792969 C 196.292969 280.925781 191.960938 282.738281 187.5 284.289062 L 187.5 230.949219 L 172.5 225.96875 C 169.914062 225.066406 168.101562 222.609375 168.101562 219.828125 L 168.101562 193.964844 C 168.101562 190.410156 171.011719 187.5 174.570312 187.5 C 178.125 187.5 181.035156 190.410156 181.035156 193.964844 L 181.035156 215.171875 L 196.035156 220.152344 C 198.621094 221.054688 200.429688 223.511719 200.429688 226.292969 Z M 200.429688 226.292969 " fill-opacity="1" fill-rule="nonzero"/><path fill="#a2bdcd" d="M 168.101562 245.691406 L 168.101562 289.265625 C 163.835938 290.042969 159.570312 290.558594 155.171875 290.753906 L 155.171875 250.085938 L 126.917969 238.773438 C 124.460938 237.800781 122.84375 235.410156 122.84375 232.757812 L 122.84375 161.636719 C 122.84375 158.082031 125.753906 155.171875 129.308594 155.171875 C 132.867188 155.171875 135.777344 158.082031 135.777344 161.636719 L 135.777344 228.363281 L 164.03125 239.675781 C 166.488281 240.648438 168.101562 243.039062 168.101562 245.691406 Z M 168.101562 245.691406 " fill-opacity="1" fill-rule="nonzero"/><path fill="#a2bdcd" d="M 232.757812 226.292969 L 232.757812 255 C 228.878906 259.136719 224.613281 263.015625 220.023438 266.507812 C 219.890625 266.054688 219.828125 265.601562 219.828125 265.085938 L 219.828125 226.292969 C 219.828125 222.738281 222.738281 219.828125 226.292969 219.828125 C 229.847656 219.828125 232.757812 222.738281 232.757812 226.292969 Z M 232.757812 226.292969 " fill-opacity="1" fill-rule="nonzero"/><path fill="#ffc857" d="M 129.308594 168.101562 C 118.617188 168.101562 109.914062 159.402344 109.914062 148.707031 C 109.914062 138.011719 118.617188 129.308594 129.308594 129.308594 C 140.003906 129.308594 148.707031 138.011719 148.707031 148.707031 C 148.707031 159.402344 140.003906 168.101562 129.308594 168.101562 Z M 129.308594 142.242188 C 125.742188 142.242188 122.84375 145.144531 122.84375 148.707031 C 122.84375 152.269531 125.742188 155.171875 129.308594 155.171875 C 132.878906 155.171875 135.777344 152.269531 135.777344 148.707031 C 135.777344 145.144531 132.878906 142.242188 129.308594 142.242188 Z M 129.308594 142.242188 " fill-opacity="1" fill-rule="nonzero"/><path fill="#769fb6" d="M 193.964844 375 L 193.964844 355.601562 C 193.964844 352.035156 196.855469 349.136719 200.429688 349.136719 C 204.007812 349.136719 206.898438 352.035156 206.898438 355.601562 L 206.898438 375 Z M 193.964844 375 " fill-opacity="1" fill-rule="nonzero"/><path fill="#93999a" d="M 187.5 136.183594 L 187.5 71.121094 L 174.570312 71.121094 L 174.570312 142.242188 L 213.363281 174.570312 L 245.691406 174.570312 L 245.691406 161.636719 L 218.042969 161.636719 Z M 187.5 136.183594 " fill-opacity="1" fill-rule="nonzero"/><path fill="#b8bebf" d="M 252.15625 251.824219 L 252.15625 227.726562 C 232.835938 265.242188 193.808594 290.949219 148.707031 290.949219 L 148.707031 297.414062 C 148.707031 299.597656 148.472656 301.746094 148.117188 303.847656 C 148.320312 303.851562 148.507812 303.878906 148.707031 303.878906 C 191.03125 303.878906 228.550781 283.351562 252.15625 251.824219 Z M 252.15625 251.824219 " fill-opacity="1" fill-rule="nonzero"/><path fill="#769fb6" d="M 95.890625 263.503906 L 86.671875 272.722656 C 89.269531 276.1875 92.113281 279.453125 95.242188 282.433594 L 104.390625 273.285156 C 101.242188 270.316406 98.390625 267.050781 95.890625 263.503906 Z M 95.890625 263.503906 " fill-opacity="1" fill-rule="nonzero"/><path fill="#769fb6" d="M 86.949219 245.46875 C 85.410156 240.515625 84.535156 235.28125 84.238281 229.894531 L 72.699219 241.433594 C 73.667969 246.304688 75.085938 250.996094 76.925781 255.496094 Z M 86.949219 245.46875 " fill-opacity="1" fill-rule="nonzero"/><path fill="#769fb6" d="M 261.257812 203.714844 C 260.082031 208.261719 258.679688 212.710938 256.984375 217.023438 L 267.386719 225.789062 C 269.199219 221.605469 270.835938 217.332031 272.203125 212.941406 Z M 261.257812 203.714844 " fill-opacity="1" fill-rule="nonzero"/><path fill="#769fb6" d="M 73.007812 122.84375 L 86.183594 122.84375 C 87.15625 118.398438 88.5 114.089844 90.097656 109.914062 L 76.363281 109.914062 C 74.980469 114.117188 73.847656 118.429688 73.007812 122.84375 Z M 73.007812 122.84375 " fill-opacity="1" fill-rule="nonzero"/><path fill="#769fb6" d="M 88.753906 151.640625 L 84.050781 142.242188 C 84.050781 141.109375 84.179688 140.011719 84.21875 138.886719 L 72.363281 147.777344 L 76.222656 155.496094 L 72.523438 163.808594 Z M 88.753906 151.640625 " fill-opacity="1" fill-rule="nonzero"/><path fill="#4f7992" d="M 187.5 136.183594 L 187.5 103.449219 L 174.570312 103.449219 L 174.570312 142.242188 L 194.765625 142.242188 Z M 187.5 136.183594 " fill-opacity="1" fill-rule="nonzero"/><path fill="#769fb6" d="M 45.257812 330.660156 L 45.257812 337.398438 C 47.289062 336.671875 49.449219 336.207031 51.722656 336.207031 C 54 336.207031 56.160156 336.671875 58.191406 337.398438 L 58.191406 330.660156 C 56.109375 330.117188 53.96875 329.742188 51.722656 329.742188 C 49.480469 329.742188 47.339844 330.117188 45.257812 330.660156 Z M 45.257812 330.660156 " fill-opacity="1" fill-rule="nonzero"/><path fill="#769fb6" d="M 44.339844 265.085938 C 44.882812 263.003906 45.257812 260.863281 45.257812 258.621094 C 45.257812 256.378906 44.882812 254.238281 44.339844 252.15625 L 37.601562 252.15625 C 38.328125 254.183594 38.792969 256.34375 38.792969 258.621094 C 38.792969 260.898438 38.328125 263.054688 37.601562 265.085938 Z M 44.339844 265.085938 " fill-opacity="1" fill-rule="nonzero"/><path fill="#769fb6" d="M 303.878906 291.867188 L 303.878906 298.601562 C 305.910156 297.878906 308.070312 297.414062 310.34375 297.414062 C 312.621094 297.414062 314.78125 297.878906 316.808594 298.601562 L 316.808594 291.867188 C 314.726562 291.324219 312.589844 290.949219 310.34375 290.949219 C 308.101562 290.949219 305.960938 291.324219 303.878906 291.867188 Z M 303.878906 291.867188 " fill-opacity="1" fill-rule="nonzero"/><path fill="#769fb6" d="M 44.339844 168.101562 C 44.882812 166.023438 45.257812 163.882812 45.257812 161.636719 C 45.257812 159.394531 44.882812 157.253906 44.339844 155.171875 L 37.601562 155.171875 C 38.328125 157.203125 38.792969 159.363281 38.792969 161.636719 C 38.792969 163.914062 38.328125 166.074219 37.601562 168.101562 Z M 44.339844 168.101562 " fill-opacity="1" fill-rule="nonzero"/><path fill="#769fb6" d="M 310.34375 45.257812 C 310.34375 42.984375 310.808594 40.824219 311.535156 38.792969 L 304.796875 38.792969 C 304.253906 40.875 303.878906 43.015625 303.878906 45.257812 C 303.878906 47.503906 304.253906 49.640625 304.796875 51.722656 L 311.535156 51.722656 C 310.808594 49.695312 310.34375 47.535156 310.34375 45.257812 Z M 310.34375 45.257812 " fill-opacity="1" fill-rule="nonzero"/><path fill="#769fb6" d="M 323.277344 135.777344 C 323.277344 133.5 323.742188 131.339844 324.464844 129.308594 L 317.726562 129.308594 C 317.183594 131.390625 316.808594 133.53125 316.808594 135.777344 C 316.808594 138.019531 317.183594 140.160156 317.726562 142.242188 L 324.464844 142.242188 C 323.742188 140.210938 323.277344 138.050781 323.277344 135.777344 Z M 323.277344 135.777344 " fill-opacity="1" fill-rule="nonzero"/><path fill="#769fb6" d="M 336.207031 187.5 C 336.207031 185.222656 336.671875 183.066406 337.398438 181.035156 L 330.660156 181.035156 C 330.117188 183.117188 329.742188 185.257812 329.742188 187.5 C 329.742188 189.742188 330.117188 191.882812 330.660156 193.964844 L 337.398438 193.964844 C 336.671875 191.933594 336.207031 189.777344 336.207031 187.5 Z M 336.207031 187.5 " fill-opacity="1" fill-rule="nonzero"/><path fill="#769fb6" d="M 103.449219 19.398438 C 103.449219 21.671875 102.984375 23.832031 102.257812 25.863281 L 108.996094 25.863281 C 109.539062 23.78125 109.914062 21.640625 109.914062 19.398438 C 109.914062 17.152344 109.539062 15.011719 108.996094 12.929688 L 102.257812 12.929688 C 102.984375 14.960938 103.449219 17.121094 103.449219 19.398438 Z M 103.449219 19.398438 " fill-opacity="1" fill-rule="nonzero"/><path fill="#769fb6" d="M 226.292969 335.289062 L 226.292969 328.550781 C 224.261719 329.277344 222.101562 329.742188 219.828125 329.742188 C 217.550781 329.742188 215.390625 329.277344 213.363281 328.550781 L 213.363281 335.289062 C 215.445312 335.832031 217.585938 336.207031 219.828125 336.207031 C 222.070312 336.207031 224.210938 335.832031 226.292969 335.289062 Z M 226.292969 335.289062 " fill-opacity="1" fill-rule="nonzero"/><path fill="#769fb6" d="M 193.933594 64.65625 L 206.863281 64.65625 L 206.863281 71.121094 L 193.933594 71.121094 Z M 193.933594 64.65625 " fill-opacity="1" fill-rule="nonzero"/><path fill="#769fb6" d="M 219.828125 64.65625 L 232.757812 64.65625 L 232.757812 71.121094 L 219.828125 71.121094 Z M 219.828125 64.65625 " fill-opacity="1" fill-rule="nonzero"/><path fill="#769fb6" d="M 252.15625 77.585938 L 252.15625 90.515625 L 245.691406 90.515625 L 245.691406 77.585938 Z M 252.15625 77.585938 " fill-opacity="1" fill-rule="nonzero"/><path fill="#769fb6" d="M 252.15625 109.914062 L 252.15625 122.84375 L 245.691406 122.84375 L 245.691406 109.914062 Z M 252.15625 109.914062 " fill-opacity="1" fill-rule="nonzero"/><path fill="#769fb6" d="M 252.15625 142.242188 L 252.15625 155.171875 L 245.691406 155.171875 L 245.691406 142.242188 Z M 252.15625 142.242188 " fill-opacity="1" fill-rule="nonzero"/></svg>