<svg xmlns="http://www.w3.org/2000/svg" xmlns:xlink="http://www.w3.org/1999/xlink" width="500" zoomAndPan="magnify" viewBox="0 0 375 374.999991" height="500" preserveAspectRatio="xMidYMid meet" version="1.0"><defs><clipPath id="19f5896a57"><path d="M 0 138 L 375 138 L 375 371.578125 L 0 371.578125 Z M 0 138 " clip-rule="nonzero"/></clipPath><clipPath id="275da14b14"><path d="M 38 9.328125 L 65 9.328125 L 65 36 L 38 36 Z M 38 9.328125 " clip-rule="nonzero"/></clipPath><clipPath id="61fde38567"><path d="M 232 9.328125 L 259 9.328125 L 259 36 L 232 36 Z M 232 9.328125 " clip-rule="nonzero"/></clipPath><clipPath id="8a3ce190d2"><path d="M 32 9.328125 L 72 9.328125 L 72 49 L 32 49 Z M 32 9.328125 " clip-rule="nonzero"/></clipPath><clipPath id="7d2785c488"><path d="M 226 9.328125 L 266 9.328125 L 266 49 L 226 49 Z M 226 9.328125 " clip-rule="nonzero"/></clipPath></defs><g clip-path="url(#19f5896a57)"><path fill="#ffc857" d="M 0.015625 138.703125 L 0.015625 345.703125 L 135.785156 345.703125 C 156.132812 345.703125 175.289062 355.285156 187.492188 371.570312 L 187.5 371.578125 C 199.707031 355.289062 218.867188 345.703125 239.214844 345.703125 L 374.976562 345.703125 L 374.976562 138.703125 Z M 0.015625 138.703125 " fill-opacity="1" fill-rule="nonzero"/></g><path fill="#ffb41f" d="M 191.089844 138.703125 C 188.863281 142.519531 187.5 146.90625 187.5 151.640625 C 187.5 146.90625 186.136719 142.519531 183.910156 138.703125 L 12.945312 138.703125 L 12.945312 332.765625 L 132.730469 332.765625 C 151.742188 332.765625 170.496094 337.195312 187.5 345.703125 C 204.503906 337.195312 223.257812 332.765625 242.269531 332.765625 L 349.125 332.765625 L 349.125 138.703125 Z M 191.089844 138.703125 " fill-opacity="1" fill-rule="nonzero"/><path fill="#a2bdcd" d="M 213.359375 112.828125 C 199.078125 112.828125 187.5 124.414062 187.5 138.703125 L 187.5 332.765625 C 204.507812 324.257812 223.257812 319.828125 242.269531 319.828125 L 349.125 319.828125 L 349.125 112.828125 Z M 213.359375 112.828125 " fill-opacity="1" fill-rule="nonzero"/><path fill="#a2bdcd" d="M 25.875 112.828125 L 25.875 319.828125 L 132.730469 319.828125 C 151.742188 319.828125 170.496094 324.257812 187.5 332.765625 L 187.5 138.703125 C 187.5 124.414062 175.921875 112.828125 161.640625 112.828125 Z M 25.875 112.828125 " fill-opacity="1" fill-rule="nonzero"/><path fill="#ffdd99" d="M 278.007812 306.890625 C 278.007812 307.742188 277.925781 308.582031 277.761719 309.414062 C 277.59375 310.246094 277.351562 311.058594 277.027344 311.839844 C 276.699219 312.625 276.300781 313.371094 275.832031 314.078125 C 275.359375 314.785156 274.824219 315.4375 274.222656 316.039062 C 273.621094 316.640625 272.96875 317.175781 272.261719 317.648438 C 271.558594 318.121094 270.8125 318.519531 270.027344 318.84375 C 269.242188 319.167969 268.433594 319.414062 267.601562 319.578125 C 266.769531 319.746094 265.929688 319.828125 265.078125 319.828125 C 264.230469 319.828125 263.390625 319.746094 262.558594 319.578125 C 261.722656 319.414062 260.917969 319.167969 260.132812 318.84375 C 259.347656 318.519531 258.601562 318.121094 257.894531 317.648438 C 257.191406 317.175781 256.539062 316.640625 255.9375 316.039062 C 255.335938 315.4375 254.800781 314.785156 254.328125 314.078125 C 253.855469 313.371094 253.457031 312.625 253.132812 311.839844 C 252.808594 311.058594 252.5625 310.246094 252.398438 309.414062 C 252.234375 308.582031 252.148438 307.742188 252.148438 306.890625 C 252.148438 306.042969 252.234375 305.199219 252.398438 304.367188 C 252.5625 303.535156 252.808594 302.726562 253.132812 301.941406 C 253.457031 301.15625 253.855469 300.410156 254.328125 299.703125 C 254.800781 298.996094 255.335938 298.34375 255.9375 297.742188 C 256.539062 297.140625 257.191406 296.605469 257.894531 296.132812 C 258.601562 295.660156 259.347656 295.261719 260.132812 294.9375 C 260.917969 294.613281 261.722656 294.367188 262.558594 294.203125 C 263.390625 294.035156 264.230469 293.953125 265.078125 293.953125 C 265.929688 293.953125 266.769531 294.035156 267.601562 294.203125 C 268.433594 294.367188 269.242188 294.613281 270.027344 294.9375 C 270.8125 295.261719 271.558594 295.660156 272.261719 296.132812 C 272.96875 296.605469 273.621094 297.140625 274.222656 297.742188 C 274.824219 298.34375 275.359375 298.996094 275.832031 299.703125 C 276.300781 300.410156 276.699219 301.15625 277.027344 301.941406 C 277.351562 302.726562 277.59375 303.535156 277.761719 304.367188 C 277.925781 305.199219 278.007812 306.042969 278.007812 306.890625 Z M 278.007812 306.890625 " fill-opacity="1" fill-rule="nonzero"/><path fill="#ffdd99" d="M 84.058594 293.953125 C 84.058594 294.804688 83.976562 295.644531 83.8125 296.476562 C 83.644531 297.308594 83.402344 298.121094 83.074219 298.902344 C 82.75 299.6875 82.351562 300.433594 81.882812 301.140625 C 81.410156 301.847656 80.875 302.5 80.273438 303.101562 C 79.671875 303.703125 79.019531 304.238281 78.3125 304.710938 C 77.609375 305.183594 76.863281 305.582031 76.078125 305.90625 C 75.292969 306.230469 74.484375 306.476562 73.652344 306.640625 C 72.820312 306.808594 71.980469 306.890625 71.128906 306.890625 C 70.28125 306.890625 69.441406 306.808594 68.609375 306.640625 C 67.773438 306.476562 66.964844 306.230469 66.183594 305.90625 C 65.398438 305.582031 64.652344 305.183594 63.945312 304.710938 C 63.242188 304.238281 62.585938 303.703125 61.988281 303.101562 C 61.386719 302.5 60.851562 301.847656 60.378906 301.140625 C 59.90625 300.433594 59.507812 299.6875 59.183594 298.902344 C 58.859375 298.121094 58.613281 297.308594 58.449219 296.476562 C 58.28125 295.644531 58.199219 294.804688 58.199219 293.953125 C 58.199219 293.105469 58.28125 292.261719 58.449219 291.429688 C 58.613281 290.597656 58.859375 289.789062 59.183594 289.003906 C 59.507812 288.21875 59.90625 287.472656 60.378906 286.765625 C 60.851562 286.058594 61.386719 285.40625 61.988281 284.804688 C 62.585938 284.203125 63.242188 283.667969 63.945312 283.195312 C 64.652344 282.722656 65.398438 282.324219 66.183594 282 C 66.964844 281.675781 67.773438 281.429688 68.609375 281.265625 C 69.441406 281.097656 70.28125 281.015625 71.128906 281.015625 C 71.980469 281.015625 72.820312 281.097656 73.652344 281.265625 C 74.484375 281.429688 75.292969 281.675781 76.078125 282 C 76.863281 282.324219 77.609375 282.722656 78.3125 283.195312 C 79.019531 283.667969 79.671875 284.203125 80.273438 284.804688 C 80.875 285.40625 81.410156 286.058594 81.882812 286.765625 C 82.351562 287.472656 82.75 288.21875 83.074219 289.003906 C 83.402344 289.789062 83.644531 290.597656 83.8125 291.429688 C 83.976562 292.261719 84.058594 293.105469 84.058594 293.953125 Z M 84.058594 293.953125 " fill-opacity="1" fill-rule="nonzero"/><path fill="#ffdd99" d="M 155.175781 61.078125 C 155.175781 61.929688 155.09375 62.769531 154.925781 63.601562 C 154.761719 64.433594 154.515625 65.246094 154.191406 66.03125 C 153.867188 66.8125 153.46875 67.558594 152.996094 68.265625 C 152.523438 68.972656 151.988281 69.625 151.386719 70.226562 C 150.789062 70.828125 150.132812 71.363281 149.429688 71.835938 C 148.722656 72.308594 147.976562 72.707031 147.191406 73.03125 C 146.410156 73.355469 145.601562 73.601562 144.769531 73.765625 C 143.933594 73.933594 143.09375 74.015625 142.246094 74.015625 C 141.394531 74.015625 140.554688 73.933594 139.722656 73.765625 C 138.890625 73.601562 138.082031 73.355469 137.296875 73.03125 C 136.511719 72.707031 135.765625 72.308594 135.0625 71.835938 C 134.355469 71.363281 133.703125 70.828125 133.101562 70.226562 C 132.5 69.625 131.964844 68.972656 131.496094 68.265625 C 131.023438 67.558594 130.625 66.8125 130.300781 66.03125 C 129.972656 65.246094 129.730469 64.433594 129.5625 63.601562 C 129.398438 62.769531 129.316406 61.929688 129.316406 61.078125 C 129.316406 60.230469 129.398438 59.386719 129.5625 58.554688 C 129.730469 57.722656 129.972656 56.914062 130.300781 56.128906 C 130.625 55.34375 131.023438 54.597656 131.496094 53.890625 C 131.964844 53.183594 132.5 52.53125 133.101562 51.929688 C 133.703125 51.328125 134.355469 50.792969 135.0625 50.320312 C 135.765625 49.847656 136.511719 49.449219 137.296875 49.125 C 138.082031 48.800781 138.890625 48.554688 139.722656 48.390625 C 140.554688 48.222656 141.394531 48.140625 142.246094 48.140625 C 143.09375 48.140625 143.933594 48.222656 144.769531 48.390625 C 145.601562 48.554688 146.410156 48.800781 147.191406 49.125 C 147.976562 49.449219 148.722656 49.847656 149.429688 50.320312 C 150.132812 50.792969 150.789062 51.328125 151.386719 51.929688 C 151.988281 52.53125 152.523438 53.183594 152.996094 53.890625 C 153.46875 54.597656 153.867188 55.34375 154.191406 56.128906 C 154.515625 56.914062 154.761719 57.722656 154.925781 58.554688 C 155.09375 59.386719 155.175781 60.230469 155.175781 61.078125 Z M 155.175781 61.078125 " fill-opacity="1" fill-rule="nonzero"/><g clip-path="url(#275da14b14)"><path fill="#ffdd99" d="M 64.664062 22.265625 C 64.664062 23.117188 64.582031 23.957031 64.417969 24.789062 C 64.25 25.621094 64.007812 26.433594 63.679688 27.21875 C 63.355469 28 62.957031 28.746094 62.484375 29.453125 C 62.015625 30.160156 61.480469 30.8125 60.878906 31.414062 C 60.277344 32.015625 59.625 32.550781 58.917969 33.023438 C 58.214844 33.496094 57.46875 33.894531 56.683594 34.21875 C 55.898438 34.542969 55.089844 34.789062 54.257812 34.953125 C 53.425781 35.121094 52.585938 35.203125 51.734375 35.203125 C 50.886719 35.203125 50.046875 35.121094 49.210938 34.953125 C 48.378906 34.789062 47.570312 34.542969 46.789062 34.21875 C 46.003906 33.894531 45.257812 33.496094 44.550781 33.023438 C 43.847656 32.550781 43.191406 32.015625 42.59375 31.414062 C 41.992188 30.8125 41.457031 30.160156 40.984375 29.453125 C 40.511719 28.746094 40.113281 28 39.789062 27.21875 C 39.464844 26.433594 39.21875 25.621094 39.054688 24.789062 C 38.886719 23.957031 38.804688 23.117188 38.804688 22.265625 C 38.804688 21.417969 38.886719 20.574219 39.054688 19.742188 C 39.21875 18.910156 39.464844 18.101562 39.789062 17.316406 C 40.113281 16.53125 40.511719 15.785156 40.984375 15.078125 C 41.457031 14.371094 41.992188 13.71875 42.59375 13.117188 C 43.191406 12.515625 43.847656 11.980469 44.550781 11.507812 C 45.257812 11.035156 46.003906 10.636719 46.789062 10.3125 C 47.570312 9.988281 48.378906 9.742188 49.210938 9.578125 C 50.046875 9.410156 50.886719 9.328125 51.734375 9.328125 C 52.585938 9.328125 53.425781 9.410156 54.257812 9.578125 C 55.089844 9.742188 55.898438 9.988281 56.683594 10.3125 C 57.46875 10.636719 58.214844 11.035156 58.917969 11.507812 C 59.625 11.980469 60.277344 12.515625 60.878906 13.117188 C 61.480469 13.71875 62.015625 14.371094 62.484375 15.078125 C 62.957031 15.785156 63.355469 16.53125 63.679688 17.316406 C 64.007812 18.101562 64.25 18.910156 64.417969 19.742188 C 64.582031 20.574219 64.664062 21.417969 64.664062 22.265625 Z M 64.664062 22.265625 " fill-opacity="1" fill-rule="nonzero"/></g><path fill="#ffdd99" d="M 77.59375 196.921875 C 77.59375 197.773438 77.511719 198.613281 77.347656 199.445312 C 77.179688 200.277344 76.9375 201.089844 76.609375 201.875 C 76.285156 202.65625 75.886719 203.402344 75.417969 204.109375 C 74.945312 204.816406 74.410156 205.46875 73.808594 206.070312 C 73.207031 206.671875 72.554688 207.207031 71.847656 207.679688 C 71.144531 208.152344 70.398438 208.550781 69.613281 208.875 C 68.828125 209.199219 68.019531 209.445312 67.1875 209.609375 C 66.355469 209.777344 65.515625 209.859375 64.664062 209.859375 C 63.816406 209.859375 62.976562 209.777344 62.144531 209.609375 C 61.308594 209.445312 60.5 209.199219 59.71875 208.875 C 58.933594 208.550781 58.1875 208.152344 57.480469 207.679688 C 56.777344 207.207031 56.121094 206.671875 55.523438 206.070312 C 54.921875 205.46875 54.386719 204.816406 53.914062 204.109375 C 53.441406 203.402344 53.042969 202.65625 52.71875 201.871094 C 52.394531 201.089844 52.148438 200.277344 51.984375 199.445312 C 51.816406 198.613281 51.734375 197.773438 51.734375 196.921875 C 51.734375 196.074219 51.816406 195.230469 51.984375 194.398438 C 52.148438 193.566406 52.394531 192.757812 52.71875 191.972656 C 53.042969 191.1875 53.441406 190.441406 53.914062 189.734375 C 54.386719 189.027344 54.921875 188.375 55.523438 187.773438 C 56.121094 187.171875 56.777344 186.636719 57.480469 186.164062 C 58.1875 185.691406 58.933594 185.292969 59.71875 184.96875 C 60.5 184.644531 61.308594 184.398438 62.144531 184.234375 C 62.976562 184.066406 63.816406 183.984375 64.664062 183.984375 C 65.515625 183.984375 66.355469 184.066406 67.1875 184.234375 C 68.019531 184.398438 68.828125 184.644531 69.613281 184.96875 C 70.398438 185.292969 71.144531 185.691406 71.847656 186.164062 C 72.554688 186.636719 73.207031 187.171875 73.808594 187.773438 C 74.410156 188.375 74.945312 189.027344 75.417969 189.734375 C 75.886719 190.441406 76.285156 191.1875 76.609375 191.972656 C 76.9375 192.757812 77.179688 193.566406 77.347656 194.398438 C 77.511719 195.230469 77.59375 196.074219 77.59375 196.921875 Z M 77.59375 196.921875 " fill-opacity="1" fill-rule="nonzero"/><path fill="#ffdd99" d="M 116.386719 248.671875 C 116.386719 249.523438 116.300781 250.363281 116.136719 251.195312 C 115.972656 252.027344 115.726562 252.839844 115.402344 253.625 C 115.074219 254.40625 114.679688 255.152344 114.207031 255.859375 C 113.734375 256.566406 113.199219 257.21875 112.597656 257.820312 C 111.996094 258.421875 111.34375 258.957031 110.640625 259.429688 C 109.933594 259.902344 109.1875 260.300781 108.402344 260.625 C 107.617188 260.949219 106.808594 261.195312 105.976562 261.359375 C 105.144531 261.527344 104.304688 261.609375 103.457031 261.609375 C 102.605469 261.609375 101.765625 261.527344 100.933594 261.359375 C 100.101562 261.195312 99.292969 260.949219 98.507812 260.625 C 97.722656 260.300781 96.976562 259.902344 96.273438 259.429688 C 95.566406 258.957031 94.914062 258.421875 94.3125 257.820312 C 93.710938 257.21875 93.175781 256.566406 92.703125 255.859375 C 92.234375 255.152344 91.835938 254.40625 91.507812 253.625 C 91.183594 252.839844 90.9375 252.027344 90.773438 251.195312 C 90.609375 250.363281 90.523438 249.523438 90.523438 248.671875 C 90.523438 247.824219 90.609375 246.980469 90.773438 246.148438 C 90.9375 245.316406 91.183594 244.507812 91.507812 243.722656 C 91.835938 242.9375 92.234375 242.191406 92.703125 241.484375 C 93.175781 240.777344 93.710938 240.125 94.3125 239.523438 C 94.914062 238.921875 95.566406 238.386719 96.273438 237.914062 C 96.976562 237.441406 97.722656 237.042969 98.507812 236.71875 C 99.292969 236.394531 100.101562 236.148438 100.933594 235.984375 C 101.765625 235.816406 102.605469 235.734375 103.457031 235.734375 C 104.304688 235.734375 105.144531 235.816406 105.976562 235.984375 C 106.808594 236.148438 107.617188 236.394531 108.402344 236.71875 C 109.1875 237.042969 109.933594 237.441406 110.640625 237.914062 C 111.34375 238.386719 111.996094 238.921875 112.597656 239.523438 C 113.199219 240.125 113.734375 240.777344 114.207031 241.484375 C 114.679688 242.191406 115.074219 242.9375 115.402344 243.722656 C 115.726562 244.507812 115.972656 245.316406 116.136719 246.148438 C 116.300781 246.980469 116.386719 247.824219 116.386719 248.671875 Z M 116.386719 248.671875 " fill-opacity="1" fill-rule="nonzero"/><path fill="#ffdd99" d="M 329.730469 54.609375 C 329.730469 55.460938 329.648438 56.300781 329.480469 57.132812 C 329.316406 57.964844 329.070312 58.777344 328.746094 59.5625 C 328.421875 60.34375 328.023438 61.089844 327.550781 61.796875 C 327.078125 62.503906 326.542969 63.15625 325.941406 63.757812 C 325.34375 64.359375 324.6875 64.894531 323.984375 65.367188 C 323.277344 65.839844 322.53125 66.238281 321.746094 66.5625 C 320.964844 66.886719 320.15625 67.132812 319.320312 67.296875 C 318.488281 67.464844 317.648438 67.546875 316.800781 67.546875 C 315.949219 67.546875 315.109375 67.464844 314.277344 67.296875 C 313.445312 67.132812 312.636719 66.886719 311.851562 66.5625 C 311.066406 66.238281 310.320312 65.839844 309.617188 65.367188 C 308.910156 64.894531 308.257812 64.359375 307.65625 63.757812 C 307.054688 63.15625 306.519531 62.503906 306.046875 61.796875 C 305.578125 61.089844 305.179688 60.34375 304.855469 59.5625 C 304.527344 58.777344 304.285156 57.964844 304.117188 57.132812 C 303.953125 56.300781 303.871094 55.460938 303.871094 54.609375 C 303.871094 53.761719 303.953125 52.917969 304.117188 52.085938 C 304.285156 51.253906 304.527344 50.445312 304.855469 49.660156 C 305.179688 48.875 305.578125 48.128906 306.046875 47.421875 C 306.519531 46.714844 307.054688 46.0625 307.65625 45.460938 C 308.257812 44.859375 308.910156 44.324219 309.617188 43.851562 C 310.320312 43.378906 311.066406 42.980469 311.851562 42.65625 C 312.636719 42.332031 313.445312 42.085938 314.277344 41.921875 C 315.109375 41.753906 315.949219 41.671875 316.800781 41.671875 C 317.648438 41.671875 318.488281 41.753906 319.320312 41.921875 C 320.15625 42.085938 320.964844 42.332031 321.746094 42.65625 C 322.53125 42.980469 323.277344 43.378906 323.984375 43.851562 C 324.6875 44.324219 325.34375 44.859375 325.941406 45.460938 C 326.542969 46.0625 327.078125 46.714844 327.550781 47.421875 C 328.023438 48.128906 328.421875 48.875 328.746094 49.660156 C 329.070312 50.445312 329.316406 51.253906 329.480469 52.085938 C 329.648438 52.917969 329.730469 53.761719 329.730469 54.609375 Z M 329.730469 54.609375 " fill-opacity="1" fill-rule="nonzero"/><g clip-path="url(#61fde38567)"><path fill="#ffdd99" d="M 258.613281 22.265625 C 258.613281 23.117188 258.53125 23.957031 258.367188 24.789062 C 258.199219 25.621094 257.957031 26.433594 257.628906 27.21875 C 257.304688 28 256.90625 28.746094 256.4375 29.453125 C 255.964844 30.160156 255.429688 30.8125 254.828125 31.414062 C 254.226562 32.015625 253.574219 32.550781 252.867188 33.023438 C 252.164062 33.496094 251.417969 33.894531 250.632812 34.21875 C 249.847656 34.542969 249.039062 34.789062 248.207031 34.953125 C 247.375 35.121094 246.535156 35.203125 245.683594 35.203125 C 244.835938 35.203125 243.996094 35.121094 243.164062 34.953125 C 242.328125 34.789062 241.519531 34.542969 240.738281 34.21875 C 239.953125 33.894531 239.207031 33.496094 238.5 33.023438 C 237.796875 32.550781 237.140625 32.015625 236.542969 31.414062 C 235.941406 30.8125 235.40625 30.160156 234.933594 29.453125 C 234.460938 28.746094 234.0625 28 233.738281 27.21875 C 233.414062 26.433594 233.167969 25.621094 233.003906 24.789062 C 232.835938 23.957031 232.753906 23.117188 232.753906 22.265625 C 232.753906 21.417969 232.835938 20.574219 233.003906 19.742188 C 233.167969 18.910156 233.414062 18.101562 233.738281 17.316406 C 234.0625 16.53125 234.460938 15.785156 234.933594 15.078125 C 235.40625 14.371094 235.941406 13.71875 236.542969 13.117188 C 237.140625 12.515625 237.796875 11.980469 238.5 11.507812 C 239.207031 11.035156 239.953125 10.636719 240.738281 10.3125 C 241.519531 9.988281 242.328125 9.742188 243.164062 9.578125 C 243.996094 9.410156 244.835938 9.328125 245.683594 9.328125 C 246.535156 9.328125 247.375 9.410156 248.207031 9.578125 C 249.039062 9.742188 249.847656 9.988281 250.632812 10.3125 C 251.417969 10.636719 252.164062 11.035156 252.867188 11.507812 C 253.574219 11.980469 254.226562 12.515625 254.828125 13.117188 C 255.429688 13.71875 255.964844 14.371094 256.4375 15.078125 C 256.90625 15.785156 257.304688 16.53125 257.628906 17.316406 C 257.957031 18.101562 258.199219 18.910156 258.367188 19.742188 C 258.53125 20.574219 258.613281 21.417969 258.613281 22.265625 Z M 258.613281 22.265625 " fill-opacity="1" fill-rule="nonzero"/></g><path fill="#ffdd99" d="M 206.894531 48.140625 C 206.894531 48.992188 206.8125 49.832031 206.644531 50.664062 C 206.480469 51.496094 206.234375 52.308594 205.910156 53.09375 C 205.585938 53.875 205.1875 54.621094 204.714844 55.328125 C 204.242188 56.035156 203.707031 56.6875 203.109375 57.289062 C 202.507812 57.890625 201.855469 58.425781 201.148438 58.898438 C 200.441406 59.371094 199.699219 59.769531 198.914062 60.09375 C 198.128906 60.417969 197.320312 60.664062 196.488281 60.828125 C 195.65625 60.996094 194.8125 61.078125 193.964844 61.078125 C 193.117188 61.078125 192.273438 60.996094 191.441406 60.828125 C 190.609375 60.664062 189.800781 60.417969 189.015625 60.09375 C 188.234375 59.769531 187.488281 59.371094 186.78125 58.898438 C 186.074219 58.425781 185.421875 57.890625 184.820312 57.289062 C 184.222656 56.6875 183.6875 56.035156 183.214844 55.328125 C 182.742188 54.621094 182.34375 53.875 182.019531 53.09375 C 181.695312 52.308594 181.449219 51.496094 181.285156 50.664062 C 181.117188 49.832031 181.035156 48.992188 181.035156 48.140625 C 181.035156 47.292969 181.117188 46.449219 181.285156 45.617188 C 181.449219 44.785156 181.695312 43.976562 182.019531 43.191406 C 182.34375 42.40625 182.742188 41.660156 183.214844 40.953125 C 183.6875 40.246094 184.222656 39.59375 184.820312 38.992188 C 185.421875 38.390625 186.074219 37.855469 186.78125 37.382812 C 187.488281 36.910156 188.234375 36.511719 189.015625 36.1875 C 189.800781 35.863281 190.609375 35.617188 191.441406 35.453125 C 192.273438 35.285156 193.117188 35.203125 193.964844 35.203125 C 194.8125 35.203125 195.65625 35.285156 196.488281 35.453125 C 197.320312 35.617188 198.128906 35.863281 198.914062 36.1875 C 199.699219 36.511719 200.441406 36.910156 201.148438 37.382812 C 201.855469 37.855469 202.507812 38.390625 203.109375 38.992188 C 203.707031 39.59375 204.242188 40.246094 204.714844 40.953125 C 205.1875 41.660156 205.585938 42.40625 205.910156 43.191406 C 206.234375 43.976562 206.480469 44.785156 206.644531 45.617188 C 206.8125 46.449219 206.894531 47.292969 206.894531 48.140625 Z M 206.894531 48.140625 " fill-opacity="1" fill-rule="nonzero"/><path fill="#e9f1f2" d="M 265.078125 293.953125 C 261.511719 293.953125 258.613281 291.054688 258.613281 287.484375 L 258.613281 255.140625 C 258.613281 251.570312 261.511719 248.671875 265.078125 248.671875 C 268.648438 248.671875 271.542969 251.570312 271.542969 255.140625 L 271.542969 287.484375 C 271.542969 291.054688 268.648438 293.953125 265.078125 293.953125 Z M 265.078125 293.953125 " fill-opacity="1" fill-rule="nonzero"/><path fill="#e9f1f2" d="M 129.316406 300.421875 L 84.058594 300.421875 C 80.492188 300.421875 77.59375 297.523438 77.59375 293.953125 C 77.59375 290.382812 80.492188 287.484375 84.058594 287.484375 L 127.097656 287.484375 L 183.53125 243.5625 C 184.667969 242.683594 186.066406 242.203125 187.5 242.203125 L 213.359375 242.203125 C 216.929688 242.203125 219.824219 245.101562 219.824219 248.671875 C 219.824219 252.242188 216.929688 255.140625 213.359375 255.140625 L 189.71875 255.140625 L 133.285156 299.0625 C 132.148438 299.945312 130.75 300.421875 129.316406 300.421875 Z M 129.316406 300.421875 " fill-opacity="1" fill-rule="nonzero"/><path fill="#e9f1f2" d="M 213.359375 203.390625 L 77.59375 203.390625 C 74.027344 203.390625 71.128906 200.492188 71.128906 196.921875 C 71.128906 193.351562 74.027344 190.453125 77.59375 190.453125 L 213.359375 190.453125 C 216.929688 190.453125 219.824219 193.351562 219.824219 196.921875 C 219.824219 200.492188 216.929688 203.390625 213.359375 203.390625 Z M 213.359375 203.390625 " fill-opacity="1" fill-rule="nonzero"/><path fill="#e9f1f2" d="M 142.246094 255.140625 L 116.386719 255.140625 C 112.816406 255.140625 109.921875 252.242188 109.921875 248.671875 C 109.921875 245.101562 112.816406 242.203125 116.386719 242.203125 L 139.976562 242.203125 L 170.53125 217.746094 C 171.679688 216.828125 173.101562 216.328125 174.570312 216.328125 L 213.359375 216.328125 C 216.929688 216.328125 219.824219 219.226562 219.824219 222.796875 C 219.824219 226.367188 216.929688 229.265625 213.359375 229.265625 L 176.839844 229.265625 L 146.285156 253.722656 C 145.136719 254.644531 143.710938 255.140625 142.246094 255.140625 Z M 142.246094 255.140625 " fill-opacity="1" fill-rule="nonzero"/><path fill="#e9f1f2" d="M 213.359375 177.515625 L 155.175781 177.515625 C 153.578125 177.515625 152.039062 176.925781 150.851562 175.851562 L 86.199219 117.632812 C 84.835938 116.410156 84.058594 114.664062 84.058594 112.828125 L 84.058594 61.078125 C 84.058594 57.507812 86.957031 54.609375 90.523438 54.609375 L 129.316406 54.609375 C 132.882812 54.609375 135.78125 57.507812 135.78125 61.078125 C 135.78125 64.648438 132.882812 67.546875 129.316406 67.546875 L 96.992188 67.546875 L 96.992188 109.949219 L 157.65625 164.578125 L 213.359375 164.578125 C 216.929688 164.578125 219.824219 167.476562 219.824219 171.046875 C 219.824219 174.617188 216.929688 177.515625 213.359375 177.515625 Z M 213.359375 177.515625 " fill-opacity="1" fill-rule="nonzero"/><path fill="#e9f1f2" d="M 297.40625 171.046875 C 293.835938 171.046875 290.941406 168.148438 290.941406 164.578125 L 290.941406 119.296875 C 290.941406 117.898438 291.390625 116.535156 292.234375 115.414062 L 310.335938 91.269531 L 310.335938 74.015625 C 310.335938 70.445312 313.230469 67.546875 316.800781 67.546875 C 320.367188 67.546875 323.265625 70.445312 323.265625 74.015625 L 323.265625 93.421875 C 323.265625 94.820312 322.8125 96.183594 321.972656 97.304688 L 303.871094 121.453125 L 303.871094 164.578125 C 303.871094 168.148438 300.972656 171.046875 297.40625 171.046875 Z M 297.40625 171.046875 " fill-opacity="1" fill-rule="nonzero"/><path fill="#e9f1f2" d="M 265.078125 171.046875 C 261.511719 171.046875 258.613281 168.148438 258.613281 164.578125 L 258.613281 104.554688 L 243.640625 99.5625 C 240.996094 98.679688 239.21875 96.210938 239.21875 93.421875 L 239.21875 41.671875 C 239.21875 38.101562 242.117188 35.203125 245.683594 35.203125 C 249.253906 35.203125 252.148438 38.101562 252.148438 41.671875 L 252.148438 88.757812 L 267.121094 93.753906 C 269.765625 94.636719 271.542969 97.101562 271.542969 99.890625 L 271.542969 164.578125 C 271.542969 168.148438 268.648438 171.046875 265.078125 171.046875 Z M 265.078125 171.046875 " fill-opacity="1" fill-rule="nonzero"/><path fill="#e9f1f2" d="M 231.65625 171.046875 C 231.605469 171.046875 231.546875 171.046875 231.496094 171.046875 C 227.925781 170.964844 225.101562 167.992188 225.191406 164.421875 L 226.191406 123.25 L 191.074219 105.679688 C 188.882812 104.582031 187.5 102.34375 187.5 99.890625 L 187.5 67.546875 C 187.5 63.976562 190.394531 61.078125 193.964844 61.078125 C 197.535156 61.078125 200.429688 63.976562 200.429688 67.546875 L 200.429688 95.894531 L 235.644531 113.515625 C 237.886719 114.632812 239.277344 116.949219 239.214844 119.457031 L 238.109375 164.738281 C 238.023438 168.253906 235.152344 171.046875 231.65625 171.046875 Z M 231.65625 171.046875 " fill-opacity="1" fill-rule="nonzero"/><path fill="#e9f1f2" d="M 316.800781 300.421875 C 316.128906 300.421875 315.4375 300.3125 314.757812 300.085938 L 295.363281 293.617188 C 292.71875 292.742188 290.941406 290.273438 290.941406 287.484375 L 290.941406 261.609375 C 290.941406 258.039062 293.835938 255.140625 297.40625 255.140625 C 300.972656 255.140625 303.871094 258.039062 303.871094 261.609375 L 303.871094 282.820312 L 318.84375 287.816406 C 322.230469 288.945312 324.058594 292.609375 322.929688 295.996094 C 322.03125 298.707031 319.507812 300.421875 316.800781 300.421875 Z M 316.800781 300.421875 " fill-opacity="1" fill-rule="nonzero"/><path fill="#e9f1f2" d="M 316.800781 164.578125 L 349.125 164.578125 L 349.125 177.515625 L 316.800781 177.515625 Z M 316.800781 164.578125 " fill-opacity="1" fill-rule="nonzero"/><path fill="#e9f1f2" d="M 316.800781 190.453125 L 349.125 190.453125 L 349.125 203.390625 L 316.800781 203.390625 Z M 316.800781 190.453125 " fill-opacity="1" fill-rule="nonzero"/><path fill="#e9f1f2" d="M 316.800781 216.328125 L 349.125 216.328125 L 349.125 229.265625 L 316.800781 229.265625 Z M 316.800781 216.328125 " fill-opacity="1" fill-rule="nonzero"/><path fill="#e9f1f2" d="M 316.800781 242.203125 L 349.125 242.203125 L 349.125 255.140625 L 316.800781 255.140625 Z M 316.800781 242.203125 " fill-opacity="1" fill-rule="nonzero"/><path fill="#e9f1f2" d="M 232.753906 287.484375 C 229.1875 287.484375 226.289062 284.585938 226.289062 281.015625 L 226.289062 261.609375 C 226.289062 258.039062 229.1875 255.140625 232.753906 255.140625 C 236.324219 255.140625 239.21875 258.039062 239.21875 261.609375 L 239.21875 281.015625 C 239.21875 284.585938 236.324219 287.484375 232.753906 287.484375 Z M 232.753906 287.484375 " fill-opacity="1" fill-rule="nonzero"/><path fill="#e9f1f2" d="M 142.246094 203.390625 C 140.828125 203.390625 139.402344 202.925781 138.210938 201.972656 L 107.652344 177.515625 L 90.523438 177.515625 C 86.957031 177.515625 84.058594 174.617188 84.058594 171.046875 C 84.058594 167.476562 86.957031 164.578125 90.523438 164.578125 L 109.921875 164.578125 C 111.386719 164.578125 112.808594 165.078125 113.960938 165.996094 L 146.285156 191.871094 C 149.078125 194.101562 149.523438 198.171875 147.292969 200.957031 C 146.015625 202.5625 144.132812 203.390625 142.246094 203.390625 Z M 142.246094 203.390625 " fill-opacity="1" fill-rule="nonzero"/><path fill="#e9f1f2" d="M 90.519531 106.359375 C 89.289062 106.359375 88.042969 106.011719 86.9375 105.273438 L 48.148438 79.398438 C 46.351562 78.195312 45.269531 76.175781 45.269531 74.015625 L 45.269531 41.671875 C 45.269531 38.101562 48.167969 35.203125 51.734375 35.203125 C 55.304688 35.203125 58.199219 38.101562 58.199219 41.671875 L 58.199219 70.554688 L 94.113281 94.507812 C 97.082031 96.488281 97.882812 100.503906 95.902344 103.480469 C 94.65625 105.351562 92.605469 106.359375 90.519531 106.359375 Z M 90.519531 106.359375 " fill-opacity="1" fill-rule="nonzero"/><path fill="#ffc857" d="M 265.078125 319.828125 C 254.386719 319.828125 245.683594 311.121094 245.683594 300.421875 C 245.683594 289.722656 254.386719 281.015625 265.078125 281.015625 C 275.773438 281.015625 284.476562 289.722656 284.476562 300.421875 C 284.476562 311.121094 275.773438 319.828125 265.078125 319.828125 Z M 265.078125 293.953125 C 261.519531 293.953125 258.613281 296.859375 258.613281 300.421875 C 258.613281 303.988281 261.519531 306.890625 265.078125 306.890625 C 268.640625 306.890625 271.542969 303.988281 271.542969 300.421875 C 271.542969 296.859375 268.640625 293.953125 265.078125 293.953125 Z M 265.078125 293.953125 " fill-opacity="1" fill-rule="nonzero"/><path fill="#ffc857" d="M 71.128906 313.359375 C 60.4375 313.359375 51.734375 304.652344 51.734375 293.953125 C 51.734375 283.253906 60.4375 274.546875 71.128906 274.546875 C 81.824219 274.546875 90.523438 283.253906 90.523438 293.953125 C 90.523438 304.652344 81.824219 313.359375 71.128906 313.359375 Z M 71.128906 287.484375 C 67.566406 287.484375 64.664062 290.390625 64.664062 293.953125 C 64.664062 297.519531 67.566406 300.421875 71.128906 300.421875 C 74.691406 300.421875 77.59375 297.519531 77.59375 293.953125 C 77.59375 290.390625 74.691406 287.484375 71.128906 287.484375 Z M 71.128906 287.484375 " fill-opacity="1" fill-rule="nonzero"/><path fill="#ffc857" d="M 142.246094 80.484375 C 131.550781 80.484375 122.851562 71.777344 122.851562 61.078125 C 122.851562 50.378906 131.550781 41.671875 142.246094 41.671875 C 152.9375 41.671875 161.640625 50.378906 161.640625 61.078125 C 161.640625 71.777344 152.9375 80.484375 142.246094 80.484375 Z M 142.246094 54.609375 C 138.683594 54.609375 135.78125 57.515625 135.78125 61.078125 C 135.78125 64.644531 138.683594 67.546875 142.246094 67.546875 C 145.808594 67.546875 148.710938 64.644531 148.710938 61.078125 C 148.710938 57.515625 145.808594 54.609375 142.246094 54.609375 Z M 142.246094 54.609375 " fill-opacity="1" fill-rule="nonzero"/><g clip-path="url(#8a3ce190d2)"><path fill="#ffc857" d="M 51.734375 48.140625 C 41.042969 48.140625 32.339844 39.433594 32.339844 28.734375 C 32.339844 18.035156 41.042969 9.328125 51.734375 9.328125 C 62.429688 9.328125 71.128906 18.035156 71.128906 28.734375 C 71.128906 39.433594 62.429688 48.140625 51.734375 48.140625 Z M 51.734375 22.265625 C 48.171875 22.265625 45.269531 25.171875 45.269531 28.734375 C 45.269531 32.300781 48.171875 35.203125 51.734375 35.203125 C 55.296875 35.203125 58.199219 32.300781 58.199219 28.734375 C 58.199219 25.171875 55.296875 22.265625 51.734375 22.265625 Z M 51.734375 22.265625 " fill-opacity="1" fill-rule="nonzero"/></g><path fill="#ffc857" d="M 64.664062 216.328125 C 53.972656 216.328125 45.269531 207.621094 45.269531 196.921875 C 45.269531 186.222656 53.972656 177.515625 64.664062 177.515625 C 75.359375 177.515625 84.058594 186.222656 84.058594 196.921875 C 84.058594 207.621094 75.359375 216.328125 64.664062 216.328125 Z M 64.664062 190.453125 C 61.101562 190.453125 58.199219 193.359375 58.199219 196.921875 C 58.199219 200.488281 61.101562 203.390625 64.664062 203.390625 C 68.226562 203.390625 71.128906 200.488281 71.128906 196.921875 C 71.128906 193.359375 68.226562 190.453125 64.664062 190.453125 Z M 64.664062 190.453125 " fill-opacity="1" fill-rule="nonzero"/><path fill="#ffc857" d="M 103.457031 268.078125 C 92.761719 268.078125 84.058594 259.371094 84.058594 248.671875 C 84.058594 237.972656 92.761719 229.265625 103.457031 229.265625 C 114.148438 229.265625 122.851562 237.972656 122.851562 248.671875 C 122.851562 259.371094 114.148438 268.078125 103.457031 268.078125 Z M 103.457031 242.203125 C 99.894531 242.203125 96.992188 245.109375 96.992188 248.671875 C 96.992188 252.238281 99.894531 255.140625 103.457031 255.140625 C 107.015625 255.140625 109.921875 252.238281 109.921875 248.671875 C 109.921875 245.109375 107.015625 242.203125 103.457031 242.203125 Z M 103.457031 242.203125 " fill-opacity="1" fill-rule="nonzero"/><path fill="#ffc857" d="M 316.800781 80.484375 C 306.105469 80.484375 297.40625 71.777344 297.40625 61.078125 C 297.40625 50.378906 306.105469 41.671875 316.800781 41.671875 C 327.492188 41.671875 336.195312 50.378906 336.195312 61.078125 C 336.195312 71.777344 327.492188 80.484375 316.800781 80.484375 Z M 316.800781 54.609375 C 313.238281 54.609375 310.335938 57.515625 310.335938 61.078125 C 310.335938 64.644531 313.238281 67.546875 316.800781 67.546875 C 320.363281 67.546875 323.265625 64.644531 323.265625 61.078125 C 323.265625 57.515625 320.363281 54.609375 316.800781 54.609375 Z M 316.800781 54.609375 " fill-opacity="1" fill-rule="nonzero"/><g clip-path="url(#7d2785c488)"><path fill="#ffc857" d="M 245.683594 48.140625 C 234.992188 48.140625 226.289062 39.433594 226.289062 28.734375 C 226.289062 18.035156 234.992188 9.328125 245.683594 9.328125 C 256.378906 9.328125 265.078125 18.035156 265.078125 28.734375 C 265.078125 39.433594 256.378906 48.140625 245.683594 48.140625 Z M 245.683594 22.265625 C 242.121094 22.265625 239.21875 25.171875 239.21875 28.734375 C 239.21875 32.300781 242.121094 35.203125 245.683594 35.203125 C 249.246094 35.203125 252.148438 32.300781 252.148438 28.734375 C 252.148438 25.171875 249.246094 22.265625 245.683594 22.265625 Z M 245.683594 22.265625 " fill-opacity="1" fill-rule="nonzero"/></g><path fill="#ffc857" d="M 193.964844 74.015625 C 183.273438 74.015625 174.570312 65.308594 174.570312 54.609375 C 174.570312 43.910156 183.273438 35.203125 193.964844 35.203125 C 204.65625 35.203125 213.359375 43.910156 213.359375 54.609375 C 213.359375 65.308594 204.65625 74.015625 193.964844 74.015625 Z M 193.964844 48.140625 C 190.402344 48.140625 187.5 51.046875 187.5 54.609375 C 187.5 58.175781 190.402344 61.078125 193.964844 61.078125 C 197.527344 61.078125 200.429688 58.175781 200.429688 54.609375 C 200.429688 51.046875 197.527344 48.140625 193.964844 48.140625 Z M 193.964844 48.140625 " fill-opacity="1" fill-rule="nonzero"/><path fill="#93999a" d="M 303.871094 261.609375 L 226.289062 261.609375 C 219.144531 261.609375 213.359375 255.820312 213.359375 248.671875 L 213.359375 171.046875 C 213.359375 163.898438 219.144531 158.109375 226.289062 158.109375 L 303.871094 158.109375 C 311.011719 158.109375 316.800781 163.898438 316.800781 171.046875 L 316.800781 248.671875 C 316.800781 255.820312 311.011719 261.609375 303.871094 261.609375 Z M 303.871094 261.609375 " fill-opacity="1" fill-rule="nonzero"/><path fill="#a2bdcd" d="M 252.148438 183.984375 C 241.457031 183.984375 232.753906 192.691406 232.753906 203.390625 L 232.753906 229.265625 C 232.753906 232.835938 235.652344 235.734375 239.21875 235.734375 C 242.789062 235.734375 245.683594 232.835938 245.683594 229.265625 L 245.683594 222.796875 L 258.613281 222.796875 L 258.613281 229.265625 C 258.613281 232.835938 261.511719 235.734375 265.078125 235.734375 C 268.648438 235.734375 271.542969 232.835938 271.542969 229.265625 L 271.542969 203.390625 C 271.542969 192.691406 262.84375 183.984375 252.148438 183.984375 Z M 245.683594 209.859375 L 245.683594 203.390625 C 245.683594 199.828125 248.585938 196.921875 252.148438 196.921875 C 255.710938 196.921875 258.613281 199.828125 258.613281 203.390625 L 258.613281 209.859375 Z M 245.683594 209.859375 " fill-opacity="1" fill-rule="nonzero"/><path fill="#a2bdcd" d="M 290.941406 183.984375 C 287.371094 183.984375 284.476562 186.882812 284.476562 190.453125 L 284.476562 229.265625 C 284.476562 232.835938 287.371094 235.734375 290.941406 235.734375 C 294.507812 235.734375 297.40625 232.835938 297.40625 229.265625 L 297.40625 190.453125 C 297.40625 186.882812 294.507812 183.984375 290.941406 183.984375 Z M 290.941406 183.984375 " fill-opacity="1" fill-rule="nonzero"/></svg>