<svg xmlns="http://www.w3.org/2000/svg" xmlns:xlink="http://www.w3.org/1999/xlink" zoomAndPan="magnify" preserveAspectRatio="xMidYMid meet" version="1.0" viewBox="31.36 142.73 322.67 82.11"><defs><g/><clipPath id="6653eaeb0f"><path d="M 36.058594 146.089844 L 80 146.089844 L 80 185 L 36.058594 185 Z M 36.058594 146.089844 " clip-rule="nonzero"/></clipPath><clipPath id="354ce424c1"><path d="M 71 166 L 115.558594 166 L 115.558594 205 L 71 205 Z M 71 166 " clip-rule="nonzero"/></clipPath><clipPath id="e630aeebe3"><path d="M 36.058594 186 L 80 186 L 80 224.839844 L 36.058594 224.839844 Z M 36.058594 186 " clip-rule="nonzero"/></clipPath><clipPath id="6f6d6c9273"><path d="M 31.355469 142.726562 L 76 142.726562 L 76 182 L 31.355469 182 Z M 31.355469 142.726562 " clip-rule="nonzero"/></clipPath><clipPath id="0a7609faf4"><path d="M 66 162 L 110.855469 162 L 110.855469 202 L 66 202 Z M 66 162 " clip-rule="nonzero"/></clipPath><clipPath id="7be922fd85"><path d="M 31.355469 182 L 76 182 L 76 221.476562 L 31.355469 221.476562 Z M 31.355469 182 " clip-rule="nonzero"/></clipPath></defs><g fill="#000000" fill-opacity="1"><g transform="translate(114.287488, 193.916296)"><g><path d="M 4.609375 0 L 4.609375 -39.03125 L 25.53125 -39.03125 L 31.046875 -33.46875 L 31.046875 -24.3125 L 28.609375 -21.03125 L 33.109375 -16.46875 L 33.109375 -5.5625 L 27.546875 0 Z M 9.421875 -22.671875 L 24 -22.671875 L 26.21875 -25.6875 L 26.21875 -31.828125 L 23.359375 -34.796875 L 9.421875 -34.75 Z M 9.421875 -4.296875 L 25.375 -4.296875 L 28.28125 -7.203125 L 28.28125 -15.203125 L 25.21875 -18.375 L 9.421875 -18.375 Z M 9.421875 -4.296875 "/></g></g></g><g fill="#000000" fill-opacity="1"><g transform="translate(150.827819, 193.916296)"><g><path d="M 9.265625 0 L 3.703125 -5.5625 L 3.703125 -22.140625 L 9.265625 -27.703125 L 21.609375 -27.703125 L 27.171875 -22.140625 L 27.171875 -12.125 L 8.375 -12.125 L 8.375 -6.78125 L 11.28125 -3.859375 L 26.703125 -3.859375 L 26.703125 0 Z M 8.375 -15.84375 L 22.515625 -15.84375 L 22.515625 -21.078125 L 19.59375 -24 L 11.28125 -24 L 8.375 -21.078125 Z M 8.375 -15.84375 "/></g></g></g><g fill="#000000" fill-opacity="1"><g transform="translate(181.701745, 193.916296)"><g><path d="M 9.265625 0 L 3.703125 -5.5625 L 3.703125 -22.140625 L 9.265625 -27.703125 L 21.609375 -27.703125 L 27.171875 -22.140625 L 27.171875 -12.125 L 8.375 -12.125 L 8.375 -6.78125 L 11.28125 -3.859375 L 26.703125 -3.859375 L 26.703125 0 Z M 8.375 -15.84375 L 22.515625 -15.84375 L 22.515625 -21.078125 L 19.59375 -24 L 11.28125 -24 L 8.375 -21.078125 Z M 8.375 -15.84375 "/></g></g></g><g fill="#000000" fill-opacity="1"><g transform="translate(212.57567, 193.916296)"><g><path d="M 4.609375 0 L 4.609375 -39.03125 L 29.765625 -39.03125 L 29.765625 -34.59375 L 9.421875 -34.59375 L 9.421875 -21.984375 L 27.28125 -21.984375 L 27.28125 -17.578125 L 9.421875 -17.578125 L 9.421875 0 Z M 4.609375 0 "/></g></g></g><g fill="#000000" fill-opacity="1"><g transform="translate(243.131851, 193.916296)"><g><path d="M 7.359375 0 L 1.859375 -5.5625 L 1.859375 -11.859375 L 7.359375 -17.421875 L 21.453125 -17.421875 L 21.453125 -20.875 L 18.59375 -23.78125 L 5.453125 -23.78125 L 5.453125 -27.703125 L 20.609375 -27.703125 L 26.109375 -22.140625 L 26.109375 0 L 21.453125 0 L 21.453125 -4.296875 L 17.15625 0 Z M 9.421875 -3.703125 L 16 -3.703125 L 21.453125 -9.109375 L 21.453125 -13.765625 L 9.421875 -13.71875 L 6.515625 -10.859375 L 6.515625 -6.625 Z M 9.421875 -3.703125 "/></g></g></g><g fill="#000000" fill-opacity="1"><g transform="translate(273.317335, 193.916296)"><g><path d="M 4.34375 0 L 4.34375 -27.703125 L 9 -27.703125 L 9 -22.71875 L 13.828125 -27.703125 L 24.046875 -27.703125 L 28.921875 -22.78125 L 33.6875 -27.703125 L 43.90625 -27.703125 L 49.46875 -22.140625 L 49.46875 0 L 44.8125 0 L 44.8125 -20.96875 L 42 -24 L 34.90625 -24 L 29.5625 -18.59375 L 29.5625 0 L 24.890625 0 L 24.953125 -20.96875 L 22.09375 -24 L 15.046875 -24 L 9 -17.84375 L 9 0 Z M 4.34375 0 "/></g></g></g><g fill="#000000" fill-opacity="1"><g transform="translate(326.856855, 193.916296)"><g><path d="M 9.265625 0 L 3.703125 -5.5625 L 3.703125 -22.140625 L 9.265625 -27.703125 L 21.609375 -27.703125 L 27.171875 -22.140625 L 27.171875 -12.125 L 8.375 -12.125 L 8.375 -6.78125 L 11.28125 -3.859375 L 26.703125 -3.859375 L 26.703125 0 Z M 8.375 -15.84375 L 22.515625 -15.84375 L 22.515625 -21.078125 L 19.59375 -24 L 11.28125 -24 L 8.375 -21.078125 Z M 8.375 -15.84375 "/></g></g></g><g clip-path="url(#6653eaeb0f)"><path fill="#fbcb1c" d="M 68.957031 146.09375 L 47.027344 146.09375 L 36.058594 165.085938 L 47.027344 184.078125 L 68.957031 184.078125 L 79.925781 165.085938 Z M 68.957031 146.09375 " fill-opacity="1" fill-rule="nonzero"/></g><g clip-path="url(#354ce424c1)"><path fill="#fbcb1c" d="M 104.324219 166.554688 L 82.390625 166.554688 L 71.425781 185.546875 L 82.390625 204.542969 L 104.324219 204.542969 L 115.289062 185.546875 Z M 104.324219 166.554688 " fill-opacity="1" fill-rule="nonzero"/></g><g clip-path="url(#e630aeebe3)"><path fill="#fbcb1c" d="M 68.957031 186.511719 L 47.027344 186.511719 L 36.058594 205.503906 L 47.027344 224.496094 L 68.957031 224.496094 L 79.925781 205.503906 Z M 68.957031 186.511719 " fill-opacity="1" fill-rule="nonzero"/></g><g clip-path="url(#6f6d6c9273)"><path fill="#211c1d" d="M 64.671875 181.199219 L 42.460938 181.199219 L 31.355469 161.964844 L 42.460938 142.730469 L 64.671875 142.730469 L 75.777344 161.964844 Z M 43.324219 179.707031 L 63.808594 179.707031 L 74.054688 161.964844 L 63.808594 144.222656 L 43.324219 144.222656 L 33.082031 161.964844 Z M 43.324219 179.707031 " fill-opacity="1" fill-rule="nonzero"/></g><g clip-path="url(#0a7609faf4)"><path fill="#211c1d" d="M 99.484375 201.375 L 77.273438 201.375 L 66.164062 182.140625 L 77.273438 162.90625 L 99.484375 162.90625 L 110.585938 182.140625 Z M 78.132812 199.882812 L 98.621094 199.882812 L 108.863281 182.140625 L 98.621094 164.398438 L 78.132812 164.398438 L 67.890625 182.140625 Z M 78.132812 199.882812 " fill-opacity="1" fill-rule="nonzero"/></g><g clip-path="url(#7be922fd85)"><path fill="#211c1d" d="M 64.671875 221.328125 L 42.460938 221.328125 L 31.355469 202.09375 L 42.460938 182.855469 L 64.671875 182.855469 L 75.777344 202.09375 Z M 43.324219 219.835938 L 63.808594 219.835938 L 74.054688 202.09375 L 63.808594 184.351562 L 43.324219 184.351562 L 33.082031 202.09375 Z M 43.324219 219.835938 " fill-opacity="1" fill-rule="nonzero"/></g><g fill="#000000" fill-opacity="1"><g transform="translate(115.296237, 210.233298)"><g><path d="M 0.78125 0 L 0.78125 -6.046875 L 4.59375 -6.046875 L 4.59375 -5.40625 L 1.5 -5.40625 L 1.5 -3.375 L 4.328125 -3.375 L 4.328125 -2.75 L 1.5 -2.75 L 1.5 0 Z M 0.78125 0 "/></g></g></g><g fill="#000000" fill-opacity="1"><g transform="translate(121.870395, 210.233298)"><g><path d="M 4.28125 0 C 4.007812 0 3.816406 -0.0664062 3.703125 -0.203125 C 3.585938 -0.347656 3.515625 -0.523438 3.484375 -0.734375 L 3.4375 -0.734375 C 3.34375 -0.472656 3.1875 -0.265625 2.96875 -0.109375 C 2.757812 0.0351562 2.472656 0.109375 2.109375 0.109375 C 1.640625 0.109375 1.265625 -0.0078125 0.984375 -0.25 C 0.710938 -0.5 0.578125 -0.832031 0.578125 -1.25 C 0.578125 -1.664062 0.726562 -1.984375 1.03125 -2.203125 C 1.332031 -2.429688 1.820312 -2.546875 2.5 -2.546875 L 3.4375 -2.546875 L 3.4375 -3 C 3.4375 -3.320312 3.34375 -3.566406 3.15625 -3.734375 C 2.976562 -3.898438 2.71875 -3.984375 2.375 -3.984375 C 2.082031 -3.984375 1.835938 -3.921875 1.640625 -3.796875 C 1.453125 -3.679688 1.300781 -3.523438 1.1875 -3.328125 L 0.71875 -3.671875 C 0.78125 -3.785156 0.859375 -3.894531 0.953125 -4 C 1.046875 -4.113281 1.164062 -4.210938 1.3125 -4.296875 C 1.457031 -4.378906 1.625 -4.445312 1.8125 -4.5 C 2 -4.550781 2.203125 -4.578125 2.421875 -4.578125 C 2.953125 -4.578125 3.367188 -4.441406 3.671875 -4.171875 C 3.984375 -3.910156 4.140625 -3.539062 4.140625 -3.0625 L 4.140625 -0.609375 L 4.765625 -0.609375 L 4.765625 0 Z M 2.21875 -0.46875 C 2.40625 -0.46875 2.570312 -0.488281 2.71875 -0.53125 C 2.863281 -0.582031 2.988281 -0.644531 3.09375 -0.71875 C 3.207031 -0.789062 3.289062 -0.875 3.34375 -0.96875 C 3.40625 -1.070312 3.4375 -1.179688 3.4375 -1.296875 L 3.4375 -2.03125 L 2.5 -2.03125 C 2.082031 -2.03125 1.773438 -1.972656 1.578125 -1.859375 C 1.390625 -1.742188 1.296875 -1.578125 1.296875 -1.359375 L 1.296875 -1.171875 C 1.296875 -0.941406 1.378906 -0.765625 1.546875 -0.640625 C 1.710938 -0.523438 1.9375 -0.46875 2.21875 -0.46875 Z M 2.21875 -0.46875 "/></g></g></g><g fill="#000000" fill-opacity="1"><g transform="translate(128.444553, 210.233298)"><g><path d="M 2.875 -5.453125 C 2.675781 -5.453125 2.535156 -5.492188 2.453125 -5.578125 C 2.367188 -5.660156 2.328125 -5.765625 2.328125 -5.890625 L 2.328125 -6.03125 C 2.328125 -6.15625 2.367188 -6.257812 2.453125 -6.34375 C 2.535156 -6.425781 2.675781 -6.46875 2.875 -6.46875 C 3.070312 -6.46875 3.210938 -6.425781 3.296875 -6.34375 C 3.378906 -6.257812 3.421875 -6.15625 3.421875 -6.03125 L 3.421875 -5.890625 C 3.421875 -5.765625 3.378906 -5.660156 3.296875 -5.578125 C 3.210938 -5.492188 3.070312 -5.453125 2.875 -5.453125 Z M 0.921875 -0.59375 L 2.53125 -0.59375 L 2.53125 -3.875 L 0.921875 -3.875 L 0.921875 -4.46875 L 3.21875 -4.46875 L 3.21875 -0.59375 L 4.71875 -0.59375 L 4.71875 0 L 0.921875 0 Z M 0.921875 -0.59375 "/></g></g></g><g fill="#000000" fill-opacity="1"><g transform="translate(135.018711, 210.233298)"><g><path d="M 0.671875 -0.59375 L 1.96875 -0.59375 L 1.96875 -3.875 L 0.671875 -3.875 L 0.671875 -4.46875 L 2.671875 -4.46875 L 2.671875 -3.34375 L 2.703125 -3.34375 C 2.796875 -3.695312 2.972656 -3.972656 3.234375 -4.171875 C 3.492188 -4.367188 3.820312 -4.46875 4.21875 -4.46875 L 4.84375 -4.46875 L 4.84375 -3.78125 L 4 -3.78125 C 3.601562 -3.78125 3.28125 -3.660156 3.03125 -3.421875 C 2.789062 -3.191406 2.671875 -2.890625 2.671875 -2.515625 L 2.671875 -0.59375 L 4.390625 -0.59375 L 4.390625 0 L 0.671875 0 Z M 0.671875 -0.59375 "/></g></g></g><g fill="#000000" fill-opacity="1"><g transform="translate(141.592869, 210.233298)"><g><path d="M 0.84375 0 L 0.84375 -4.46875 L 1.546875 -4.46875 L 1.546875 -3.734375 L 1.578125 -3.734375 C 1.617188 -3.847656 1.675781 -3.953125 1.75 -4.046875 C 1.820312 -4.148438 1.90625 -4.238281 2 -4.3125 C 2.101562 -4.394531 2.222656 -4.457031 2.359375 -4.5 C 2.503906 -4.550781 2.664062 -4.578125 2.84375 -4.578125 C 3.3125 -4.578125 3.6875 -4.425781 3.96875 -4.125 C 4.25 -3.820312 4.390625 -3.398438 4.390625 -2.859375 L 4.390625 0 L 3.703125 0 L 3.703125 -2.75 C 3.703125 -3.15625 3.613281 -3.457031 3.4375 -3.65625 C 3.257812 -3.851562 3 -3.953125 2.65625 -3.953125 C 2.507812 -3.953125 2.367188 -3.9375 2.234375 -3.90625 C 2.109375 -3.875 1.992188 -3.820312 1.890625 -3.75 C 1.785156 -3.675781 1.703125 -3.582031 1.640625 -3.46875 C 1.578125 -3.363281 1.546875 -3.238281 1.546875 -3.09375 L 1.546875 0 Z M 0.84375 0 "/></g></g></g><g fill="#000000" fill-opacity="1"><g transform="translate(148.167026, 210.233298)"><g><path d="M 2.671875 0.109375 C 2.347656 0.109375 2.054688 0.0546875 1.796875 -0.046875 C 1.546875 -0.160156 1.328125 -0.320312 1.140625 -0.53125 C 0.960938 -0.738281 0.820312 -0.984375 0.71875 -1.265625 C 0.625 -1.554688 0.578125 -1.875 0.578125 -2.21875 C 0.578125 -2.582031 0.628906 -2.90625 0.734375 -3.1875 C 0.835938 -3.476562 0.976562 -3.722656 1.15625 -3.921875 C 1.332031 -4.128906 1.546875 -4.289062 1.796875 -4.40625 C 2.046875 -4.519531 2.320312 -4.578125 2.625 -4.578125 C 2.925781 -4.578125 3.195312 -4.519531 3.4375 -4.40625 C 3.6875 -4.289062 3.898438 -4.132812 4.078125 -3.9375 C 4.253906 -3.75 4.382812 -3.519531 4.46875 -3.25 C 4.5625 -2.988281 4.609375 -2.703125 4.609375 -2.390625 L 4.609375 -2.0625 L 1.3125 -2.0625 L 1.3125 -1.859375 C 1.3125 -1.660156 1.34375 -1.476562 1.40625 -1.3125 C 1.46875 -1.144531 1.554688 -1 1.671875 -0.875 C 1.796875 -0.75 1.941406 -0.65625 2.109375 -0.59375 C 2.273438 -0.53125 2.460938 -0.5 2.671875 -0.5 C 2.972656 -0.5 3.234375 -0.566406 3.453125 -0.703125 C 3.671875 -0.835938 3.835938 -1.023438 3.953125 -1.265625 L 4.46875 -0.921875 C 4.332031 -0.617188 4.109375 -0.367188 3.796875 -0.171875 C 3.492188 0.015625 3.117188 0.109375 2.671875 0.109375 Z M 2.625 -4 C 2.4375 -4 2.257812 -3.960938 2.09375 -3.890625 C 1.9375 -3.828125 1.796875 -3.734375 1.671875 -3.609375 C 1.554688 -3.484375 1.46875 -3.335938 1.40625 -3.171875 C 1.34375 -3.015625 1.3125 -2.835938 1.3125 -2.640625 L 1.3125 -2.578125 L 3.875 -2.578125 L 3.875 -2.671875 C 3.875 -2.867188 3.84375 -3.046875 3.78125 -3.203125 C 3.71875 -3.367188 3.632812 -3.507812 3.53125 -3.625 C 3.425781 -3.75 3.296875 -3.84375 3.140625 -3.90625 C 2.984375 -3.96875 2.8125 -4 2.625 -4 Z M 2.625 -4 "/></g></g></g><g fill="#000000" fill-opacity="1"><g transform="translate(154.741183, 210.233298)"><g><path d="M 2.65625 0.109375 C 2.1875 0.109375 1.78125 0.03125 1.4375 -0.125 C 1.101562 -0.289062 0.816406 -0.503906 0.578125 -0.765625 L 1.046875 -1.171875 C 1.265625 -0.953125 1.5 -0.78125 1.75 -0.65625 C 2 -0.53125 2.304688 -0.46875 2.671875 -0.46875 C 3.015625 -0.46875 3.296875 -0.53125 3.515625 -0.65625 C 3.742188 -0.78125 3.859375 -0.976562 3.859375 -1.25 C 3.859375 -1.363281 3.832031 -1.457031 3.78125 -1.53125 C 3.738281 -1.613281 3.679688 -1.675781 3.609375 -1.71875 C 3.535156 -1.769531 3.453125 -1.804688 3.359375 -1.828125 C 3.265625 -1.859375 3.164062 -1.878906 3.0625 -1.890625 L 2.359375 -2 C 2.203125 -2.019531 2.03125 -2.050781 1.84375 -2.09375 C 1.664062 -2.132812 1.503906 -2.195312 1.359375 -2.28125 C 1.210938 -2.375 1.085938 -2.492188 0.984375 -2.640625 C 0.878906 -2.796875 0.828125 -2.992188 0.828125 -3.234375 C 0.828125 -3.460938 0.867188 -3.65625 0.953125 -3.8125 C 1.046875 -3.976562 1.171875 -4.117188 1.328125 -4.234375 C 1.492188 -4.347656 1.6875 -4.429688 1.90625 -4.484375 C 2.125 -4.546875 2.363281 -4.578125 2.625 -4.578125 C 3.03125 -4.578125 3.378906 -4.507812 3.671875 -4.375 C 3.972656 -4.25 4.234375 -4.078125 4.453125 -3.859375 L 4 -3.421875 C 3.945312 -3.484375 3.878906 -3.546875 3.796875 -3.609375 C 3.722656 -3.679688 3.628906 -3.742188 3.515625 -3.796875 C 3.398438 -3.859375 3.269531 -3.90625 3.125 -3.9375 C 2.976562 -3.96875 2.804688 -3.984375 2.609375 -3.984375 C 2.253906 -3.984375 1.984375 -3.921875 1.796875 -3.796875 C 1.609375 -3.679688 1.515625 -3.507812 1.515625 -3.28125 C 1.515625 -3.164062 1.535156 -3.066406 1.578125 -2.984375 C 1.617188 -2.910156 1.675781 -2.847656 1.75 -2.796875 C 1.832031 -2.753906 1.921875 -2.71875 2.015625 -2.6875 C 2.109375 -2.664062 2.203125 -2.644531 2.296875 -2.625 L 3 -2.53125 C 3.164062 -2.507812 3.335938 -2.476562 3.515625 -2.4375 C 3.691406 -2.394531 3.851562 -2.328125 4 -2.234375 C 4.15625 -2.148438 4.28125 -2.03125 4.375 -1.875 C 4.476562 -1.726562 4.53125 -1.535156 4.53125 -1.296875 C 4.53125 -0.847656 4.359375 -0.5 4.015625 -0.25 C 3.671875 -0.0078125 3.21875 0.109375 2.65625 0.109375 Z M 2.65625 0.109375 "/></g></g></g><g fill="#000000" fill-opacity="1"><g transform="translate(161.315339, 210.233298)"><g><path d="M 2.65625 0.109375 C 2.1875 0.109375 1.78125 0.03125 1.4375 -0.125 C 1.101562 -0.289062 0.816406 -0.503906 0.578125 -0.765625 L 1.046875 -1.171875 C 1.265625 -0.953125 1.5 -0.78125 1.75 -0.65625 C 2 -0.53125 2.304688 -0.46875 2.671875 -0.46875 C 3.015625 -0.46875 3.296875 -0.53125 3.515625 -0.65625 C 3.742188 -0.78125 3.859375 -0.976562 3.859375 -1.25 C 3.859375 -1.363281 3.832031 -1.457031 3.78125 -1.53125 C 3.738281 -1.613281 3.679688 -1.675781 3.609375 -1.71875 C 3.535156 -1.769531 3.453125 -1.804688 3.359375 -1.828125 C 3.265625 -1.859375 3.164062 -1.878906 3.0625 -1.890625 L 2.359375 -2 C 2.203125 -2.019531 2.03125 -2.050781 1.84375 -2.09375 C 1.664062 -2.132812 1.503906 -2.195312 1.359375 -2.28125 C 1.210938 -2.375 1.085938 -2.492188 0.984375 -2.640625 C 0.878906 -2.796875 0.828125 -2.992188 0.828125 -3.234375 C 0.828125 -3.460938 0.867188 -3.65625 0.953125 -3.8125 C 1.046875 -3.976562 1.171875 -4.117188 1.328125 -4.234375 C 1.492188 -4.347656 1.6875 -4.429688 1.90625 -4.484375 C 2.125 -4.546875 2.363281 -4.578125 2.625 -4.578125 C 3.03125 -4.578125 3.378906 -4.507812 3.671875 -4.375 C 3.972656 -4.25 4.234375 -4.078125 4.453125 -3.859375 L 4 -3.421875 C 3.945312 -3.484375 3.878906 -3.546875 3.796875 -3.609375 C 3.722656 -3.679688 3.628906 -3.742188 3.515625 -3.796875 C 3.398438 -3.859375 3.269531 -3.90625 3.125 -3.9375 C 2.976562 -3.96875 2.804688 -3.984375 2.609375 -3.984375 C 2.253906 -3.984375 1.984375 -3.921875 1.796875 -3.796875 C 1.609375 -3.679688 1.515625 -3.507812 1.515625 -3.28125 C 1.515625 -3.164062 1.535156 -3.066406 1.578125 -2.984375 C 1.617188 -2.910156 1.675781 -2.847656 1.75 -2.796875 C 1.832031 -2.753906 1.921875 -2.71875 2.015625 -2.6875 C 2.109375 -2.664062 2.203125 -2.644531 2.296875 -2.625 L 3 -2.53125 C 3.164062 -2.507812 3.335938 -2.476562 3.515625 -2.4375 C 3.691406 -2.394531 3.851562 -2.328125 4 -2.234375 C 4.15625 -2.148438 4.28125 -2.03125 4.375 -1.875 C 4.476562 -1.726562 4.53125 -1.535156 4.53125 -1.296875 C 4.53125 -0.847656 4.359375 -0.5 4.015625 -0.25 C 3.671875 -0.0078125 3.21875 0.109375 2.65625 0.109375 Z M 2.65625 0.109375 "/></g></g></g><g fill="#000000" fill-opacity="1"><g transform="translate(167.889496, 210.233298)"><g/></g></g><g fill="#000000" fill-opacity="1"><g transform="translate(174.463653, 210.233298)"><g><path d="M 4.15625 0 L 3.65625 -1.71875 L 1.53125 -1.71875 L 1.015625 0 L 0.265625 0 L 2.125 -6.046875 L 3.078125 -6.046875 L 4.9375 0 Z M 2.625 -5.265625 L 2.546875 -5.265625 L 1.703125 -2.359375 L 3.484375 -2.359375 Z M 2.625 -5.265625 "/></g></g></g><g fill="#000000" fill-opacity="1"><g transform="translate(181.037809, 210.233298)"><g><path d="M 0.84375 0 L 0.84375 -4.46875 L 1.546875 -4.46875 L 1.546875 -3.734375 L 1.578125 -3.734375 C 1.617188 -3.847656 1.675781 -3.953125 1.75 -4.046875 C 1.820312 -4.148438 1.90625 -4.238281 2 -4.3125 C 2.101562 -4.394531 2.222656 -4.457031 2.359375 -4.5 C 2.503906 -4.550781 2.664062 -4.578125 2.84375 -4.578125 C 3.3125 -4.578125 3.6875 -4.425781 3.96875 -4.125 C 4.25 -3.820312 4.390625 -3.398438 4.390625 -2.859375 L 4.390625 0 L 3.703125 0 L 3.703125 -2.75 C 3.703125 -3.15625 3.613281 -3.457031 3.4375 -3.65625 C 3.257812 -3.851562 3 -3.953125 2.65625 -3.953125 C 2.507812 -3.953125 2.367188 -3.9375 2.234375 -3.90625 C 2.109375 -3.875 1.992188 -3.820312 1.890625 -3.75 C 1.785156 -3.675781 1.703125 -3.582031 1.640625 -3.46875 C 1.578125 -3.363281 1.546875 -3.238281 1.546875 -3.09375 L 1.546875 0 Z M 0.84375 0 "/></g></g></g><g fill="#000000" fill-opacity="1"><g transform="translate(187.611966, 210.233298)"><g><path d="M 4.28125 0 C 4.007812 0 3.816406 -0.0664062 3.703125 -0.203125 C 3.585938 -0.347656 3.515625 -0.523438 3.484375 -0.734375 L 3.4375 -0.734375 C 3.34375 -0.472656 3.1875 -0.265625 2.96875 -0.109375 C 2.757812 0.0351562 2.472656 0.109375 2.109375 0.109375 C 1.640625 0.109375 1.265625 -0.0078125 0.984375 -0.25 C 0.710938 -0.5 0.578125 -0.832031 0.578125 -1.25 C 0.578125 -1.664062 0.726562 -1.984375 1.03125 -2.203125 C 1.332031 -2.429688 1.820312 -2.546875 2.5 -2.546875 L 3.4375 -2.546875 L 3.4375 -3 C 3.4375 -3.320312 3.34375 -3.566406 3.15625 -3.734375 C 2.976562 -3.898438 2.71875 -3.984375 2.375 -3.984375 C 2.082031 -3.984375 1.835938 -3.921875 1.640625 -3.796875 C 1.453125 -3.679688 1.300781 -3.523438 1.1875 -3.328125 L 0.71875 -3.671875 C 0.78125 -3.785156 0.859375 -3.894531 0.953125 -4 C 1.046875 -4.113281 1.164062 -4.210938 1.3125 -4.296875 C 1.457031 -4.378906 1.625 -4.445312 1.8125 -4.5 C 2 -4.550781 2.203125 -4.578125 2.421875 -4.578125 C 2.953125 -4.578125 3.367188 -4.441406 3.671875 -4.171875 C 3.984375 -3.910156 4.140625 -3.539062 4.140625 -3.0625 L 4.140625 -0.609375 L 4.765625 -0.609375 L 4.765625 0 Z M 2.21875 -0.46875 C 2.40625 -0.46875 2.570312 -0.488281 2.71875 -0.53125 C 2.863281 -0.582031 2.988281 -0.644531 3.09375 -0.71875 C 3.207031 -0.789062 3.289062 -0.875 3.34375 -0.96875 C 3.40625 -1.070312 3.4375 -1.179688 3.4375 -1.296875 L 3.4375 -2.03125 L 2.5 -2.03125 C 2.082031 -2.03125 1.773438 -1.972656 1.578125 -1.859375 C 1.390625 -1.742188 1.296875 -1.578125 1.296875 -1.359375 L 1.296875 -1.171875 C 1.296875 -0.941406 1.378906 -0.765625 1.546875 -0.640625 C 1.710938 -0.523438 1.9375 -0.46875 2.21875 -0.46875 Z M 2.21875 -0.46875 "/></g></g></g><g fill="#000000" fill-opacity="1"><g transform="translate(194.186123, 210.233298)"><g><path d="M 0.6875 -0.59375 L 2.25 -0.59375 L 2.25 -5.8125 L 0.6875 -5.8125 L 0.6875 -6.40625 L 2.9375 -6.40625 L 2.9375 -0.59375 L 4.5 -0.59375 L 4.5 0 L 0.6875 0 Z M 0.6875 -0.59375 "/></g></g></g><g fill="#000000" fill-opacity="1"><g transform="translate(200.760279, 210.233298)"><g><path d="M 4.046875 -4.46875 L 4.734375 -4.46875 L 2.515625 0.984375 C 2.460938 1.109375 2.40625 1.21875 2.34375 1.3125 C 2.28125 1.40625 2.203125 1.484375 2.109375 1.546875 C 2.023438 1.609375 1.921875 1.65625 1.796875 1.6875 C 1.679688 1.71875 1.539062 1.734375 1.375 1.734375 L 0.71875 1.734375 L 0.71875 1.140625 L 1.75 1.140625 L 2.265625 -0.09375 L 0.453125 -4.46875 L 1.171875 -4.46875 L 1.921875 -2.59375 L 2.59375 -0.90625 L 2.625 -0.90625 L 3.296875 -2.59375 Z M 4.046875 -4.46875 "/></g></g></g><g fill="#000000" fill-opacity="1"><g transform="translate(207.334436, 210.233298)"><g><path d="M 2.65625 0.109375 C 2.1875 0.109375 1.78125 0.03125 1.4375 -0.125 C 1.101562 -0.289062 0.816406 -0.503906 0.578125 -0.765625 L 1.046875 -1.171875 C 1.265625 -0.953125 1.5 -0.78125 1.75 -0.65625 C 2 -0.53125 2.304688 -0.46875 2.671875 -0.46875 C 3.015625 -0.46875 3.296875 -0.53125 3.515625 -0.65625 C 3.742188 -0.78125 3.859375 -0.976562 3.859375 -1.25 C 3.859375 -1.363281 3.832031 -1.457031 3.78125 -1.53125 C 3.738281 -1.613281 3.679688 -1.675781 3.609375 -1.71875 C 3.535156 -1.769531 3.453125 -1.804688 3.359375 -1.828125 C 3.265625 -1.859375 3.164062 -1.878906 3.0625 -1.890625 L 2.359375 -2 C 2.203125 -2.019531 2.03125 -2.050781 1.84375 -2.09375 C 1.664062 -2.132812 1.503906 -2.195312 1.359375 -2.28125 C 1.210938 -2.375 1.085938 -2.492188 0.984375 -2.640625 C 0.878906 -2.796875 0.828125 -2.992188 0.828125 -3.234375 C 0.828125 -3.460938 0.867188 -3.65625 0.953125 -3.8125 C 1.046875 -3.976562 1.171875 -4.117188 1.328125 -4.234375 C 1.492188 -4.347656 1.6875 -4.429688 1.90625 -4.484375 C 2.125 -4.546875 2.363281 -4.578125 2.625 -4.578125 C 3.03125 -4.578125 3.378906 -4.507812 3.671875 -4.375 C 3.972656 -4.25 4.234375 -4.078125 4.453125 -3.859375 L 4 -3.421875 C 3.945312 -3.484375 3.878906 -3.546875 3.796875 -3.609375 C 3.722656 -3.679688 3.628906 -3.742188 3.515625 -3.796875 C 3.398438 -3.859375 3.269531 -3.90625 3.125 -3.9375 C 2.976562 -3.96875 2.804688 -3.984375 2.609375 -3.984375 C 2.253906 -3.984375 1.984375 -3.921875 1.796875 -3.796875 C 1.609375 -3.679688 1.515625 -3.507812 1.515625 -3.28125 C 1.515625 -3.164062 1.535156 -3.066406 1.578125 -2.984375 C 1.617188 -2.910156 1.675781 -2.847656 1.75 -2.796875 C 1.832031 -2.753906 1.921875 -2.71875 2.015625 -2.6875 C 2.109375 -2.664062 2.203125 -2.644531 2.296875 -2.625 L 3 -2.53125 C 3.164062 -2.507812 3.335938 -2.476562 3.515625 -2.4375 C 3.691406 -2.394531 3.851562 -2.328125 4 -2.234375 C 4.15625 -2.148438 4.28125 -2.03125 4.375 -1.875 C 4.476562 -1.726562 4.53125 -1.535156 4.53125 -1.296875 C 4.53125 -0.847656 4.359375 -0.5 4.015625 -0.25 C 3.671875 -0.0078125 3.21875 0.109375 2.65625 0.109375 Z M 2.65625 0.109375 "/></g></g></g><g fill="#000000" fill-opacity="1"><g transform="translate(213.908598, 210.233298)"><g><path d="M 2.875 -5.453125 C 2.675781 -5.453125 2.535156 -5.492188 2.453125 -5.578125 C 2.367188 -5.660156 2.328125 -5.765625 2.328125 -5.890625 L 2.328125 -6.03125 C 2.328125 -6.15625 2.367188 -6.257812 2.453125 -6.34375 C 2.535156 -6.425781 2.675781 -6.46875 2.875 -6.46875 C 3.070312 -6.46875 3.210938 -6.425781 3.296875 -6.34375 C 3.378906 -6.257812 3.421875 -6.15625 3.421875 -6.03125 L 3.421875 -5.890625 C 3.421875 -5.765625 3.378906 -5.660156 3.296875 -5.578125 C 3.210938 -5.492188 3.070312 -5.453125 2.875 -5.453125 Z M 0.921875 -0.59375 L 2.53125 -0.59375 L 2.53125 -3.875 L 0.921875 -3.875 L 0.921875 -4.46875 L 3.21875 -4.46875 L 3.21875 -0.59375 L 4.71875 -0.59375 L 4.71875 0 L 0.921875 0 Z M 0.921875 -0.59375 "/></g></g></g><g fill="#000000" fill-opacity="1"><g transform="translate(220.482755, 210.233298)"><g><path d="M 2.65625 0.109375 C 2.1875 0.109375 1.78125 0.03125 1.4375 -0.125 C 1.101562 -0.289062 0.816406 -0.503906 0.578125 -0.765625 L 1.046875 -1.171875 C 1.265625 -0.953125 1.5 -0.78125 1.75 -0.65625 C 2 -0.53125 2.304688 -0.46875 2.671875 -0.46875 C 3.015625 -0.46875 3.296875 -0.53125 3.515625 -0.65625 C 3.742188 -0.78125 3.859375 -0.976562 3.859375 -1.25 C 3.859375 -1.363281 3.832031 -1.457031 3.78125 -1.53125 C 3.738281 -1.613281 3.679688 -1.675781 3.609375 -1.71875 C 3.535156 -1.769531 3.453125 -1.804688 3.359375 -1.828125 C 3.265625 -1.859375 3.164062 -1.878906 3.0625 -1.890625 L 2.359375 -2 C 2.203125 -2.019531 2.03125 -2.050781 1.84375 -2.09375 C 1.664062 -2.132812 1.503906 -2.195312 1.359375 -2.28125 C 1.210938 -2.375 1.085938 -2.492188 0.984375 -2.640625 C 0.878906 -2.796875 0.828125 -2.992188 0.828125 -3.234375 C 0.828125 -3.460938 0.867188 -3.65625 0.953125 -3.8125 C 1.046875 -3.976562 1.171875 -4.117188 1.328125 -4.234375 C 1.492188 -4.347656 1.6875 -4.429688 1.90625 -4.484375 C 2.125 -4.546875 2.363281 -4.578125 2.625 -4.578125 C 3.03125 -4.578125 3.378906 -4.507812 3.671875 -4.375 C 3.972656 -4.25 4.234375 -4.078125 4.453125 -3.859375 L 4 -3.421875 C 3.945312 -3.484375 3.878906 -3.546875 3.796875 -3.609375 C 3.722656 -3.679688 3.628906 -3.742188 3.515625 -3.796875 C 3.398438 -3.859375 3.269531 -3.90625 3.125 -3.9375 C 2.976562 -3.96875 2.804688 -3.984375 2.609375 -3.984375 C 2.253906 -3.984375 1.984375 -3.921875 1.796875 -3.796875 C 1.609375 -3.679688 1.515625 -3.507812 1.515625 -3.28125 C 1.515625 -3.164062 1.535156 -3.066406 1.578125 -2.984375 C 1.617188 -2.910156 1.675781 -2.847656 1.75 -2.796875 C 1.832031 -2.753906 1.921875 -2.71875 2.015625 -2.6875 C 2.109375 -2.664062 2.203125 -2.644531 2.296875 -2.625 L 3 -2.53125 C 3.164062 -2.507812 3.335938 -2.476562 3.515625 -2.4375 C 3.691406 -2.394531 3.851562 -2.328125 4 -2.234375 C 4.15625 -2.148438 4.28125 -2.03125 4.375 -1.875 C 4.476562 -1.726562 4.53125 -1.535156 4.53125 -1.296875 C 4.53125 -0.847656 4.359375 -0.5 4.015625 -0.25 C 3.671875 -0.0078125 3.21875 0.109375 2.65625 0.109375 Z M 2.65625 0.109375 "/></g></g></g><g fill="#000000" fill-opacity="1"><g transform="translate(227.056912, 210.233298)"><g/></g></g><g fill="#000000" fill-opacity="1"><g transform="translate(233.631068, 210.233298)"><g><path d="M 3.9375 -3.03125 L 3.9375 -4.9375 L 3.875 -4.9375 L 2.59375 -1.828125 L 1.328125 -4.9375 L 1.25 -4.9375 L 1.25 0 L 0.59375 0 L 0.59375 -6.046875 L 1.53125 -6.046875 L 2.59375 -3.375 L 2.640625 -3.375 L 3.703125 -6.046875 L 4.609375 -6.046875 L 4.609375 0 L 3.9375 0 Z M 3.9375 -3.03125 "/></g></g></g><g fill="#000000" fill-opacity="1"><g transform="translate(240.205225, 210.233298)"><g><path d="M 2.875 -5.453125 C 2.675781 -5.453125 2.535156 -5.492188 2.453125 -5.578125 C 2.367188 -5.660156 2.328125 -5.765625 2.328125 -5.890625 L 2.328125 -6.03125 C 2.328125 -6.15625 2.367188 -6.257812 2.453125 -6.34375 C 2.535156 -6.425781 2.675781 -6.46875 2.875 -6.46875 C 3.070312 -6.46875 3.210938 -6.425781 3.296875 -6.34375 C 3.378906 -6.257812 3.421875 -6.15625 3.421875 -6.03125 L 3.421875 -5.890625 C 3.421875 -5.765625 3.378906 -5.660156 3.296875 -5.578125 C 3.210938 -5.492188 3.070312 -5.453125 2.875 -5.453125 Z M 0.921875 -0.59375 L 2.53125 -0.59375 L 2.53125 -3.875 L 0.921875 -3.875 L 0.921875 -4.46875 L 3.21875 -4.46875 L 3.21875 -0.59375 L 4.71875 -0.59375 L 4.71875 0 L 0.921875 0 Z M 0.921875 -0.59375 "/></g></g></g><g fill="#000000" fill-opacity="1"><g transform="translate(246.779382, 210.233298)"><g><path d="M 2.8125 0 C 2.46875 0 2.21875 -0.09375 2.0625 -0.28125 C 1.90625 -0.476562 1.828125 -0.722656 1.828125 -1.015625 L 1.828125 -3.875 L 0.34375 -3.875 L 0.34375 -4.46875 L 1.453125 -4.46875 C 1.597656 -4.46875 1.703125 -4.492188 1.765625 -4.546875 C 1.828125 -4.609375 1.859375 -4.71875 1.859375 -4.875 L 1.859375 -6.046875 L 2.515625 -6.046875 L 2.515625 -4.46875 L 4.546875 -4.46875 L 4.546875 -3.875 L 2.515625 -3.875 L 2.515625 -0.59375 L 4.546875 -0.59375 L 4.546875 0 Z M 2.8125 0 "/></g></g></g><g fill="#000000" fill-opacity="1"><g transform="translate(253.353538, 210.233298)"><g><path d="M 2.875 -5.453125 C 2.675781 -5.453125 2.535156 -5.492188 2.453125 -5.578125 C 2.367188 -5.660156 2.328125 -5.765625 2.328125 -5.890625 L 2.328125 -6.03125 C 2.328125 -6.15625 2.367188 -6.257812 2.453125 -6.34375 C 2.535156 -6.425781 2.675781 -6.46875 2.875 -6.46875 C 3.070312 -6.46875 3.210938 -6.425781 3.296875 -6.34375 C 3.378906 -6.257812 3.421875 -6.15625 3.421875 -6.03125 L 3.421875 -5.890625 C 3.421875 -5.765625 3.378906 -5.660156 3.296875 -5.578125 C 3.210938 -5.492188 3.070312 -5.453125 2.875 -5.453125 Z M 0.921875 -0.59375 L 2.53125 -0.59375 L 2.53125 -3.875 L 0.921875 -3.875 L 0.921875 -4.46875 L 3.21875 -4.46875 L 3.21875 -0.59375 L 4.71875 -0.59375 L 4.71875 0 L 0.921875 0 Z M 0.921875 -0.59375 "/></g></g></g><g fill="#000000" fill-opacity="1"><g transform="translate(259.927695, 210.233298)"><g><path d="M 4.859375 0.515625 C 4.859375 0.960938 4.671875 1.289062 4.296875 1.5 C 3.921875 1.71875 3.359375 1.828125 2.609375 1.828125 C 1.890625 1.828125 1.367188 1.734375 1.046875 1.546875 C 0.734375 1.359375 0.578125 1.085938 0.578125 0.734375 C 0.578125 0.484375 0.640625 0.289062 0.765625 0.15625 C 0.890625 0.03125 1.070312 -0.0625 1.3125 -0.125 L 1.3125 -0.234375 C 1.175781 -0.296875 1.070312 -0.375 1 -0.46875 C 0.9375 -0.570312 0.90625 -0.695312 0.90625 -0.84375 C 0.90625 -1.070312 0.984375 -1.242188 1.140625 -1.359375 C 1.296875 -1.484375 1.488281 -1.570312 1.71875 -1.625 L 1.71875 -1.65625 C 1.4375 -1.78125 1.21875 -1.957031 1.0625 -2.1875 C 0.914062 -2.425781 0.84375 -2.707031 0.84375 -3.03125 C 0.84375 -3.257812 0.878906 -3.46875 0.953125 -3.65625 C 1.035156 -3.84375 1.15625 -4.003906 1.3125 -4.140625 C 1.46875 -4.273438 1.648438 -4.378906 1.859375 -4.453125 C 2.078125 -4.535156 2.316406 -4.578125 2.578125 -4.578125 C 2.910156 -4.578125 3.203125 -4.515625 3.453125 -4.390625 L 3.453125 -4.46875 C 3.453125 -4.632812 3.492188 -4.773438 3.578125 -4.890625 C 3.660156 -5.015625 3.796875 -5.078125 3.984375 -5.078125 L 4.8125 -5.078125 L 4.8125 -4.46875 L 3.8125 -4.46875 L 3.8125 -4.15625 C 3.96875 -4.019531 4.085938 -3.859375 4.171875 -3.671875 C 4.265625 -3.484375 4.3125 -3.269531 4.3125 -3.03125 C 4.3125 -2.800781 4.269531 -2.59375 4.1875 -2.40625 C 4.101562 -2.21875 3.984375 -2.054688 3.828125 -1.921875 C 3.679688 -1.785156 3.5 -1.675781 3.28125 -1.59375 C 3.0625 -1.519531 2.828125 -1.484375 2.578125 -1.484375 C 2.492188 -1.484375 2.414062 -1.484375 2.34375 -1.484375 C 2.28125 -1.492188 2.210938 -1.507812 2.140625 -1.53125 C 2.078125 -1.507812 2.003906 -1.484375 1.921875 -1.453125 C 1.847656 -1.429688 1.78125 -1.398438 1.71875 -1.359375 C 1.65625 -1.316406 1.601562 -1.265625 1.5625 -1.203125 C 1.519531 -1.148438 1.5 -1.085938 1.5 -1.015625 C 1.5 -0.878906 1.566406 -0.789062 1.703125 -0.75 C 1.835938 -0.707031 2.007812 -0.6875 2.21875 -0.6875 L 3.21875 -0.6875 C 3.789062 -0.6875 4.207031 -0.578125 4.46875 -0.359375 C 4.726562 -0.140625 4.859375 0.148438 4.859375 0.515625 Z M 4.203125 0.546875 C 4.203125 0.367188 4.128906 0.222656 3.984375 0.109375 C 3.847656 0.00390625 3.597656 -0.046875 3.234375 -0.046875 L 1.6875 -0.046875 C 1.382812 0.078125 1.234375 0.28125 1.234375 0.5625 C 1.234375 0.757812 1.3125 0.925781 1.46875 1.0625 C 1.625 1.207031 1.882812 1.28125 2.25 1.28125 L 2.921875 1.28125 C 3.328125 1.28125 3.640625 1.21875 3.859375 1.09375 C 4.085938 0.96875 4.203125 0.785156 4.203125 0.546875 Z M 2.578125 -2.03125 C 2.921875 -2.03125 3.171875 -2.109375 3.328125 -2.265625 C 3.492188 -2.429688 3.578125 -2.644531 3.578125 -2.90625 L 3.578125 -3.15625 C 3.578125 -3.425781 3.492188 -3.640625 3.328125 -3.796875 C 3.171875 -3.953125 2.921875 -4.03125 2.578125 -4.03125 C 2.222656 -4.03125 1.960938 -3.953125 1.796875 -3.796875 C 1.640625 -3.640625 1.5625 -3.425781 1.5625 -3.15625 L 1.5625 -2.90625 C 1.5625 -2.644531 1.640625 -2.429688 1.796875 -2.265625 C 1.960938 -2.109375 2.222656 -2.03125 2.578125 -2.03125 Z M 2.578125 -2.03125 "/></g></g></g><g fill="#000000" fill-opacity="1"><g transform="translate(266.501852, 210.233298)"><g><path d="M 4.28125 0 C 4.007812 0 3.816406 -0.0664062 3.703125 -0.203125 C 3.585938 -0.347656 3.515625 -0.523438 3.484375 -0.734375 L 3.4375 -0.734375 C 3.34375 -0.472656 3.1875 -0.265625 2.96875 -0.109375 C 2.757812 0.0351562 2.472656 0.109375 2.109375 0.109375 C 1.640625 0.109375 1.265625 -0.0078125 0.984375 -0.25 C 0.710938 -0.5 0.578125 -0.832031 0.578125 -1.25 C 0.578125 -1.664062 0.726562 -1.984375 1.03125 -2.203125 C 1.332031 -2.429688 1.820312 -2.546875 2.5 -2.546875 L 3.4375 -2.546875 L 3.4375 -3 C 3.4375 -3.320312 3.34375 -3.566406 3.15625 -3.734375 C 2.976562 -3.898438 2.71875 -3.984375 2.375 -3.984375 C 2.082031 -3.984375 1.835938 -3.921875 1.640625 -3.796875 C 1.453125 -3.679688 1.300781 -3.523438 1.1875 -3.328125 L 0.71875 -3.671875 C 0.78125 -3.785156 0.859375 -3.894531 0.953125 -4 C 1.046875 -4.113281 1.164062 -4.210938 1.3125 -4.296875 C 1.457031 -4.378906 1.625 -4.445312 1.8125 -4.5 C 2 -4.550781 2.203125 -4.578125 2.421875 -4.578125 C 2.953125 -4.578125 3.367188 -4.441406 3.671875 -4.171875 C 3.984375 -3.910156 4.140625 -3.539062 4.140625 -3.0625 L 4.140625 -0.609375 L 4.765625 -0.609375 L 4.765625 0 Z M 2.21875 -0.46875 C 2.40625 -0.46875 2.570312 -0.488281 2.71875 -0.53125 C 2.863281 -0.582031 2.988281 -0.644531 3.09375 -0.71875 C 3.207031 -0.789062 3.289062 -0.875 3.34375 -0.96875 C 3.40625 -1.070312 3.4375 -1.179688 3.4375 -1.296875 L 3.4375 -2.03125 L 2.5 -2.03125 C 2.082031 -2.03125 1.773438 -1.972656 1.578125 -1.859375 C 1.390625 -1.742188 1.296875 -1.578125 1.296875 -1.359375 L 1.296875 -1.171875 C 1.296875 -0.941406 1.378906 -0.765625 1.546875 -0.640625 C 1.710938 -0.523438 1.9375 -0.46875 2.21875 -0.46875 Z M 2.21875 -0.46875 "/></g></g></g><g fill="#000000" fill-opacity="1"><g transform="translate(273.076009, 210.233298)"><g><path d="M 2.8125 0 C 2.46875 0 2.21875 -0.09375 2.0625 -0.28125 C 1.90625 -0.476562 1.828125 -0.722656 1.828125 -1.015625 L 1.828125 -3.875 L 0.34375 -3.875 L 0.34375 -4.46875 L 1.453125 -4.46875 C 1.597656 -4.46875 1.703125 -4.492188 1.765625 -4.546875 C 1.828125 -4.609375 1.859375 -4.71875 1.859375 -4.875 L 1.859375 -6.046875 L 2.515625 -6.046875 L 2.515625 -4.46875 L 4.546875 -4.46875 L 4.546875 -3.875 L 2.515625 -3.875 L 2.515625 -0.59375 L 4.546875 -0.59375 L 4.546875 0 Z M 2.8125 0 "/></g></g></g><g fill="#000000" fill-opacity="1"><g transform="translate(279.650165, 210.233298)"><g><path d="M 2.875 -5.453125 C 2.675781 -5.453125 2.535156 -5.492188 2.453125 -5.578125 C 2.367188 -5.660156 2.328125 -5.765625 2.328125 -5.890625 L 2.328125 -6.03125 C 2.328125 -6.15625 2.367188 -6.257812 2.453125 -6.34375 C 2.535156 -6.425781 2.675781 -6.46875 2.875 -6.46875 C 3.070312 -6.46875 3.210938 -6.425781 3.296875 -6.34375 C 3.378906 -6.257812 3.421875 -6.15625 3.421875 -6.03125 L 3.421875 -5.890625 C 3.421875 -5.765625 3.378906 -5.660156 3.296875 -5.578125 C 3.210938 -5.492188 3.070312 -5.453125 2.875 -5.453125 Z M 0.921875 -0.59375 L 2.53125 -0.59375 L 2.53125 -3.875 L 0.921875 -3.875 L 0.921875 -4.46875 L 3.21875 -4.46875 L 3.21875 -0.59375 L 4.71875 -0.59375 L 4.71875 0 L 0.921875 0 Z M 0.921875 -0.59375 "/></g></g></g><g fill="#000000" fill-opacity="1"><g transform="translate(286.224322, 210.233298)"><g><path d="M 2.59375 0.109375 C 2.28125 0.109375 2 0.0546875 1.75 -0.046875 C 1.5 -0.160156 1.285156 -0.320312 1.109375 -0.53125 C 0.929688 -0.738281 0.796875 -0.984375 0.703125 -1.265625 C 0.617188 -1.554688 0.578125 -1.878906 0.578125 -2.234375 C 0.578125 -2.585938 0.617188 -2.90625 0.703125 -3.1875 C 0.796875 -3.476562 0.929688 -3.722656 1.109375 -3.921875 C 1.285156 -4.128906 1.5 -4.289062 1.75 -4.40625 C 2 -4.519531 2.28125 -4.578125 2.59375 -4.578125 C 2.90625 -4.578125 3.1875 -4.519531 3.4375 -4.40625 C 3.6875 -4.289062 3.898438 -4.128906 4.078125 -3.921875 C 4.253906 -3.722656 4.390625 -3.476562 4.484375 -3.1875 C 4.578125 -2.90625 4.625 -2.585938 4.625 -2.234375 C 4.625 -1.878906 4.578125 -1.554688 4.484375 -1.265625 C 4.390625 -0.984375 4.253906 -0.738281 4.078125 -0.53125 C 3.898438 -0.320312 3.6875 -0.160156 3.4375 -0.046875 C 3.1875 0.0546875 2.90625 0.109375 2.59375 0.109375 Z M 2.59375 -0.5 C 2.976562 -0.5 3.289062 -0.613281 3.53125 -0.84375 C 3.769531 -1.070312 3.890625 -1.425781 3.890625 -1.90625 L 3.890625 -2.546875 C 3.890625 -3.035156 3.769531 -3.394531 3.53125 -3.625 C 3.289062 -3.851562 2.976562 -3.96875 2.59375 -3.96875 C 2.207031 -3.96875 1.894531 -3.851562 1.65625 -3.625 C 1.425781 -3.394531 1.3125 -3.035156 1.3125 -2.546875 L 1.3125 -1.90625 C 1.3125 -1.425781 1.425781 -1.070312 1.65625 -0.84375 C 1.894531 -0.613281 2.207031 -0.5 2.59375 -0.5 Z M 2.59375 -0.5 "/></g></g></g><g fill="#000000" fill-opacity="1"><g transform="translate(292.798479, 210.233298)"><g><path d="M 0.84375 0 L 0.84375 -4.46875 L 1.546875 -4.46875 L 1.546875 -3.734375 L 1.578125 -3.734375 C 1.617188 -3.847656 1.675781 -3.953125 1.75 -4.046875 C 1.820312 -4.148438 1.90625 -4.238281 2 -4.3125 C 2.101562 -4.394531 2.222656 -4.457031 2.359375 -4.5 C 2.503906 -4.550781 2.664062 -4.578125 2.84375 -4.578125 C 3.3125 -4.578125 3.6875 -4.425781 3.96875 -4.125 C 4.25 -3.820312 4.390625 -3.398438 4.390625 -2.859375 L 4.390625 0 L 3.703125 0 L 3.703125 -2.75 C 3.703125 -3.15625 3.613281 -3.457031 3.4375 -3.65625 C 3.257812 -3.851562 3 -3.953125 2.65625 -3.953125 C 2.507812 -3.953125 2.367188 -3.9375 2.234375 -3.90625 C 2.109375 -3.875 1.992188 -3.820312 1.890625 -3.75 C 1.785156 -3.675781 1.703125 -3.582031 1.640625 -3.46875 C 1.578125 -3.363281 1.546875 -3.238281 1.546875 -3.09375 L 1.546875 0 Z M 0.84375 0 "/></g></g></g><g fill="#000000" fill-opacity="1"><g transform="translate(299.372635, 210.233298)"><g/></g></g><g fill="#000000" fill-opacity="1"><g transform="translate(305.946803, 210.233298)"><g><path d="M 4.28125 0 C 4.007812 0 3.816406 -0.0664062 3.703125 -0.203125 C 3.585938 -0.347656 3.515625 -0.523438 3.484375 -0.734375 L 3.4375 -0.734375 C 3.34375 -0.472656 3.1875 -0.265625 2.96875 -0.109375 C 2.757812 0.0351562 2.472656 0.109375 2.109375 0.109375 C 1.640625 0.109375 1.265625 -0.0078125 0.984375 -0.25 C 0.710938 -0.5 0.578125 -0.832031 0.578125 -1.25 C 0.578125 -1.664062 0.726562 -1.984375 1.03125 -2.203125 C 1.332031 -2.429688 1.820312 -2.546875 2.5 -2.546875 L 3.4375 -2.546875 L 3.4375 -3 C 3.4375 -3.320312 3.34375 -3.566406 3.15625 -3.734375 C 2.976562 -3.898438 2.71875 -3.984375 2.375 -3.984375 C 2.082031 -3.984375 1.835938 -3.921875 1.640625 -3.796875 C 1.453125 -3.679688 1.300781 -3.523438 1.1875 -3.328125 L 0.71875 -3.671875 C 0.78125 -3.785156 0.859375 -3.894531 0.953125 -4 C 1.046875 -4.113281 1.164062 -4.210938 1.3125 -4.296875 C 1.457031 -4.378906 1.625 -4.445312 1.8125 -4.5 C 2 -4.550781 2.203125 -4.578125 2.421875 -4.578125 C 2.953125 -4.578125 3.367188 -4.441406 3.671875 -4.171875 C 3.984375 -3.910156 4.140625 -3.539062 4.140625 -3.0625 L 4.140625 -0.609375 L 4.765625 -0.609375 L 4.765625 0 Z M 2.21875 -0.46875 C 2.40625 -0.46875 2.570312 -0.488281 2.71875 -0.53125 C 2.863281 -0.582031 2.988281 -0.644531 3.09375 -0.71875 C 3.207031 -0.789062 3.289062 -0.875 3.34375 -0.96875 C 3.40625 -1.070312 3.4375 -1.179688 3.4375 -1.296875 L 3.4375 -2.03125 L 2.5 -2.03125 C 2.082031 -2.03125 1.773438 -1.972656 1.578125 -1.859375 C 1.390625 -1.742188 1.296875 -1.578125 1.296875 -1.359375 L 1.296875 -1.171875 C 1.296875 -0.941406 1.378906 -0.765625 1.546875 -0.640625 C 1.710938 -0.523438 1.9375 -0.46875 2.21875 -0.46875 Z M 2.21875 -0.46875 "/></g></g></g><g fill="#000000" fill-opacity="1"><g transform="translate(312.52096, 210.233298)"><g><path d="M 0.84375 0 L 0.84375 -4.46875 L 1.546875 -4.46875 L 1.546875 -3.734375 L 1.578125 -3.734375 C 1.617188 -3.847656 1.675781 -3.953125 1.75 -4.046875 C 1.820312 -4.148438 1.90625 -4.238281 2 -4.3125 C 2.101562 -4.394531 2.222656 -4.457031 2.359375 -4.5 C 2.503906 -4.550781 2.664062 -4.578125 2.84375 -4.578125 C 3.3125 -4.578125 3.6875 -4.425781 3.96875 -4.125 C 4.25 -3.820312 4.390625 -3.398438 4.390625 -2.859375 L 4.390625 0 L 3.703125 0 L 3.703125 -2.75 C 3.703125 -3.15625 3.613281 -3.457031 3.4375 -3.65625 C 3.257812 -3.851562 3 -3.953125 2.65625 -3.953125 C 2.507812 -3.953125 2.367188 -3.9375 2.234375 -3.90625 C 2.109375 -3.875 1.992188 -3.820312 1.890625 -3.75 C 1.785156 -3.675781 1.703125 -3.582031 1.640625 -3.46875 C 1.578125 -3.363281 1.546875 -3.238281 1.546875 -3.09375 L 1.546875 0 Z M 0.84375 0 "/></g></g></g><g fill="#000000" fill-opacity="1"><g transform="translate(319.095116, 210.233298)"><g><path d="M 3.671875 -0.734375 L 3.640625 -0.734375 C 3.359375 -0.171875 2.898438 0.109375 2.265625 0.109375 C 1.722656 0.109375 1.296875 -0.09375 0.984375 -0.5 C 0.671875 -0.914062 0.515625 -1.492188 0.515625 -2.234375 C 0.515625 -2.972656 0.671875 -3.546875 0.984375 -3.953125 C 1.296875 -4.367188 1.722656 -4.578125 2.265625 -4.578125 C 2.898438 -4.578125 3.359375 -4.296875 3.640625 -3.734375 L 3.671875 -3.734375 L 3.671875 -6.40625 L 4.375 -6.40625 L 4.375 0 L 3.671875 0 Z M 2.53125 -0.515625 C 2.6875 -0.515625 2.832031 -0.53125 2.96875 -0.5625 C 3.113281 -0.601562 3.238281 -0.660156 3.34375 -0.734375 C 3.445312 -0.816406 3.523438 -0.914062 3.578125 -1.03125 C 3.640625 -1.144531 3.671875 -1.273438 3.671875 -1.421875 L 3.671875 -3.03125 C 3.671875 -3.1875 3.640625 -3.316406 3.578125 -3.421875 C 3.523438 -3.535156 3.445312 -3.628906 3.34375 -3.703125 C 3.238281 -3.785156 3.113281 -3.847656 2.96875 -3.890625 C 2.832031 -3.929688 2.6875 -3.953125 2.53125 -3.953125 C 2.132812 -3.953125 1.820312 -3.828125 1.59375 -3.578125 C 1.375 -3.335938 1.265625 -3.015625 1.265625 -2.609375 L 1.265625 -1.859375 C 1.265625 -1.453125 1.375 -1.125 1.59375 -0.875 C 1.820312 -0.632812 2.132812 -0.515625 2.53125 -0.515625 Z M 2.53125 -0.515625 "/></g></g></g><g fill="#000000" fill-opacity="1"><g transform="translate(115.296237, 221.766835)"><g><path d="M 0.78125 0 L 0.78125 -6.046875 L 4.5 -6.046875 L 4.5 -5.40625 L 1.5 -5.40625 L 1.5 -3.375 L 4.390625 -3.375 L 4.390625 -2.75 L 1.5 -2.75 L 1.5 -0.625 L 4.5 -0.625 L 4.5 0 Z M 0.78125 0 "/></g></g></g><g fill="#000000" fill-opacity="1"><g transform="translate(121.870395, 221.766835)"><g><path d="M 0.53125 0 L 2.1875 -2.265625 L 0.578125 -4.46875 L 1.40625 -4.46875 L 2.078125 -3.515625 L 2.609375 -2.78125 L 2.65625 -2.78125 L 3.171875 -3.515625 L 3.828125 -4.46875 L 4.625 -4.46875 L 3 -2.28125 L 4.671875 0 L 3.84375 0 L 3.09375 -1.046875 L 2.578125 -1.75 L 2.546875 -1.75 L 2.046875 -1.046875 L 1.328125 0 Z M 0.53125 0 "/></g></g></g><g fill="#000000" fill-opacity="1"><g transform="translate(128.444553, 221.766835)"><g><path d="M 0.828125 -4.46875 L 1.515625 -4.46875 L 1.515625 -3.734375 L 1.546875 -3.734375 C 1.835938 -4.296875 2.296875 -4.578125 2.921875 -4.578125 C 3.472656 -4.578125 3.898438 -4.367188 4.203125 -3.953125 C 4.515625 -3.546875 4.671875 -2.972656 4.671875 -2.234375 C 4.671875 -1.492188 4.515625 -0.914062 4.203125 -0.5 C 3.898438 -0.09375 3.472656 0.109375 2.921875 0.109375 C 2.296875 0.109375 1.835938 -0.171875 1.546875 -0.734375 L 1.515625 -0.734375 L 1.515625 1.734375 L 0.828125 1.734375 Z M 2.65625 -0.515625 C 3.0625 -0.515625 3.375 -0.632812 3.59375 -0.875 C 3.820312 -1.125 3.9375 -1.453125 3.9375 -1.859375 L 3.9375 -2.609375 C 3.9375 -3.015625 3.820312 -3.335938 3.59375 -3.578125 C 3.375 -3.828125 3.0625 -3.953125 2.65625 -3.953125 C 2.5 -3.953125 2.351562 -3.929688 2.21875 -3.890625 C 2.082031 -3.847656 1.960938 -3.785156 1.859375 -3.703125 C 1.753906 -3.628906 1.671875 -3.535156 1.609375 -3.421875 C 1.546875 -3.316406 1.515625 -3.1875 1.515625 -3.03125 L 1.515625 -1.421875 C 1.515625 -1.273438 1.546875 -1.144531 1.609375 -1.03125 C 1.671875 -0.914062 1.753906 -0.816406 1.859375 -0.734375 C 1.960938 -0.660156 2.082031 -0.601562 2.21875 -0.5625 C 2.351562 -0.53125 2.5 -0.515625 2.65625 -0.515625 Z M 2.65625 -0.515625 "/></g></g></g><g fill="#000000" fill-opacity="1"><g transform="translate(135.018711, 221.766835)"><g><path d="M 0.6875 -0.59375 L 2.25 -0.59375 L 2.25 -5.8125 L 0.6875 -5.8125 L 0.6875 -6.40625 L 2.9375 -6.40625 L 2.9375 -0.59375 L 4.5 -0.59375 L 4.5 0 L 0.6875 0 Z M 0.6875 -0.59375 "/></g></g></g><g fill="#000000" fill-opacity="1"><g transform="translate(141.592869, 221.766835)"><g><path d="M 4.28125 0 C 4.007812 0 3.816406 -0.0664062 3.703125 -0.203125 C 3.585938 -0.347656 3.515625 -0.523438 3.484375 -0.734375 L 3.4375 -0.734375 C 3.34375 -0.472656 3.1875 -0.265625 2.96875 -0.109375 C 2.757812 0.0351562 2.472656 0.109375 2.109375 0.109375 C 1.640625 0.109375 1.265625 -0.0078125 0.984375 -0.25 C 0.710938 -0.5 0.578125 -0.832031 0.578125 -1.25 C 0.578125 -1.664062 0.726562 -1.984375 1.03125 -2.203125 C 1.332031 -2.429688 1.820312 -2.546875 2.5 -2.546875 L 3.4375 -2.546875 L 3.4375 -3 C 3.4375 -3.320312 3.34375 -3.566406 3.15625 -3.734375 C 2.976562 -3.898438 2.71875 -3.984375 2.375 -3.984375 C 2.082031 -3.984375 1.835938 -3.921875 1.640625 -3.796875 C 1.453125 -3.679688 1.300781 -3.523438 1.1875 -3.328125 L 0.71875 -3.671875 C 0.78125 -3.785156 0.859375 -3.894531 0.953125 -4 C 1.046875 -4.113281 1.164062 -4.210938 1.3125 -4.296875 C 1.457031 -4.378906 1.625 -4.445312 1.8125 -4.5 C 2 -4.550781 2.203125 -4.578125 2.421875 -4.578125 C 2.953125 -4.578125 3.367188 -4.441406 3.671875 -4.171875 C 3.984375 -3.910156 4.140625 -3.539062 4.140625 -3.0625 L 4.140625 -0.609375 L 4.765625 -0.609375 L 4.765625 0 Z M 2.21875 -0.46875 C 2.40625 -0.46875 2.570312 -0.488281 2.71875 -0.53125 C 2.863281 -0.582031 2.988281 -0.644531 3.09375 -0.71875 C 3.207031 -0.789062 3.289062 -0.875 3.34375 -0.96875 C 3.40625 -1.070312 3.4375 -1.179688 3.4375 -1.296875 L 3.4375 -2.03125 L 2.5 -2.03125 C 2.082031 -2.03125 1.773438 -1.972656 1.578125 -1.859375 C 1.390625 -1.742188 1.296875 -1.578125 1.296875 -1.359375 L 1.296875 -1.171875 C 1.296875 -0.941406 1.378906 -0.765625 1.546875 -0.640625 C 1.710938 -0.523438 1.9375 -0.46875 2.21875 -0.46875 Z M 2.21875 -0.46875 "/></g></g></g><g fill="#000000" fill-opacity="1"><g transform="translate(148.167026, 221.766835)"><g><path d="M 2.875 -5.453125 C 2.675781 -5.453125 2.535156 -5.492188 2.453125 -5.578125 C 2.367188 -5.660156 2.328125 -5.765625 2.328125 -5.890625 L 2.328125 -6.03125 C 2.328125 -6.15625 2.367188 -6.257812 2.453125 -6.34375 C 2.535156 -6.425781 2.675781 -6.46875 2.875 -6.46875 C 3.070312 -6.46875 3.210938 -6.425781 3.296875 -6.34375 C 3.378906 -6.257812 3.421875 -6.15625 3.421875 -6.03125 L 3.421875 -5.890625 C 3.421875 -5.765625 3.378906 -5.660156 3.296875 -5.578125 C 3.210938 -5.492188 3.070312 -5.453125 2.875 -5.453125 Z M 0.921875 -0.59375 L 2.53125 -0.59375 L 2.53125 -3.875 L 0.921875 -3.875 L 0.921875 -4.46875 L 3.21875 -4.46875 L 3.21875 -0.59375 L 4.71875 -0.59375 L 4.71875 0 L 0.921875 0 Z M 0.921875 -0.59375 "/></g></g></g><g fill="#000000" fill-opacity="1"><g transform="translate(154.741183, 221.766835)"><g><path d="M 0.84375 0 L 0.84375 -4.46875 L 1.546875 -4.46875 L 1.546875 -3.734375 L 1.578125 -3.734375 C 1.617188 -3.847656 1.675781 -3.953125 1.75 -4.046875 C 1.820312 -4.148438 1.90625 -4.238281 2 -4.3125 C 2.101562 -4.394531 2.222656 -4.457031 2.359375 -4.5 C 2.503906 -4.550781 2.664062 -4.578125 2.84375 -4.578125 C 3.3125 -4.578125 3.6875 -4.425781 3.96875 -4.125 C 4.25 -3.820312 4.390625 -3.398438 4.390625 -2.859375 L 4.390625 0 L 3.703125 0 L 3.703125 -2.75 C 3.703125 -3.15625 3.613281 -3.457031 3.4375 -3.65625 C 3.257812 -3.851562 3 -3.953125 2.65625 -3.953125 C 2.507812 -3.953125 2.367188 -3.9375 2.234375 -3.90625 C 2.109375 -3.875 1.992188 -3.820312 1.890625 -3.75 C 1.785156 -3.675781 1.703125 -3.582031 1.640625 -3.46875 C 1.578125 -3.363281 1.546875 -3.238281 1.546875 -3.09375 L 1.546875 0 Z M 0.84375 0 "/></g></g></g><g fill="#000000" fill-opacity="1"><g transform="translate(161.315339, 221.766835)"><g><path d="M 4.28125 0 C 4.007812 0 3.816406 -0.0664062 3.703125 -0.203125 C 3.585938 -0.347656 3.515625 -0.523438 3.484375 -0.734375 L 3.4375 -0.734375 C 3.34375 -0.472656 3.1875 -0.265625 2.96875 -0.109375 C 2.757812 0.0351562 2.472656 0.109375 2.109375 0.109375 C 1.640625 0.109375 1.265625 -0.0078125 0.984375 -0.25 C 0.710938 -0.5 0.578125 -0.832031 0.578125 -1.25 C 0.578125 -1.664062 0.726562 -1.984375 1.03125 -2.203125 C 1.332031 -2.429688 1.820312 -2.546875 2.5 -2.546875 L 3.4375 -2.546875 L 3.4375 -3 C 3.4375 -3.320312 3.34375 -3.566406 3.15625 -3.734375 C 2.976562 -3.898438 2.71875 -3.984375 2.375 -3.984375 C 2.082031 -3.984375 1.835938 -3.921875 1.640625 -3.796875 C 1.453125 -3.679688 1.300781 -3.523438 1.1875 -3.328125 L 0.71875 -3.671875 C 0.78125 -3.785156 0.859375 -3.894531 0.953125 -4 C 1.046875 -4.113281 1.164062 -4.210938 1.3125 -4.296875 C 1.457031 -4.378906 1.625 -4.445312 1.8125 -4.5 C 2 -4.550781 2.203125 -4.578125 2.421875 -4.578125 C 2.953125 -4.578125 3.367188 -4.441406 3.671875 -4.171875 C 3.984375 -3.910156 4.140625 -3.539062 4.140625 -3.0625 L 4.140625 -0.609375 L 4.765625 -0.609375 L 4.765625 0 Z M 2.21875 -0.46875 C 2.40625 -0.46875 2.570312 -0.488281 2.71875 -0.53125 C 2.863281 -0.582031 2.988281 -0.644531 3.09375 -0.71875 C 3.207031 -0.789062 3.289062 -0.875 3.34375 -0.96875 C 3.40625 -1.070312 3.4375 -1.179688 3.4375 -1.296875 L 3.4375 -2.03125 L 2.5 -2.03125 C 2.082031 -2.03125 1.773438 -1.972656 1.578125 -1.859375 C 1.390625 -1.742188 1.296875 -1.578125 1.296875 -1.359375 L 1.296875 -1.171875 C 1.296875 -0.941406 1.378906 -0.765625 1.546875 -0.640625 C 1.710938 -0.523438 1.9375 -0.46875 2.21875 -0.46875 Z M 2.21875 -0.46875 "/></g></g></g><g fill="#000000" fill-opacity="1"><g transform="translate(167.889496, 221.766835)"><g><path d="M 0.828125 -6.40625 L 1.515625 -6.40625 L 1.515625 -3.734375 L 1.546875 -3.734375 C 1.835938 -4.296875 2.296875 -4.578125 2.921875 -4.578125 C 3.472656 -4.578125 3.898438 -4.367188 4.203125 -3.953125 C 4.515625 -3.546875 4.671875 -2.972656 4.671875 -2.234375 C 4.671875 -1.492188 4.515625 -0.914062 4.203125 -0.5 C 3.898438 -0.09375 3.472656 0.109375 2.921875 0.109375 C 2.296875 0.109375 1.835938 -0.171875 1.546875 -0.734375 L 1.515625 -0.734375 L 1.515625 0 L 0.828125 0 Z M 2.65625 -0.515625 C 3.0625 -0.515625 3.375 -0.632812 3.59375 -0.875 C 3.820312 -1.125 3.9375 -1.453125 3.9375 -1.859375 L 3.9375 -2.609375 C 3.9375 -3.015625 3.820312 -3.335938 3.59375 -3.578125 C 3.375 -3.828125 3.0625 -3.953125 2.65625 -3.953125 C 2.5 -3.953125 2.351562 -3.929688 2.21875 -3.890625 C 2.082031 -3.847656 1.960938 -3.785156 1.859375 -3.703125 C 1.753906 -3.628906 1.671875 -3.535156 1.609375 -3.421875 C 1.546875 -3.316406 1.515625 -3.1875 1.515625 -3.03125 L 1.515625 -1.421875 C 1.515625 -1.273438 1.546875 -1.144531 1.609375 -1.03125 C 1.671875 -0.914062 1.753906 -0.816406 1.859375 -0.734375 C 1.960938 -0.660156 2.082031 -0.601562 2.21875 -0.5625 C 2.351562 -0.53125 2.5 -0.515625 2.65625 -0.515625 Z M 2.65625 -0.515625 "/></g></g></g><g fill="#000000" fill-opacity="1"><g transform="translate(174.463653, 221.766835)"><g><path d="M 2.875 -5.453125 C 2.675781 -5.453125 2.535156 -5.492188 2.453125 -5.578125 C 2.367188 -5.660156 2.328125 -5.765625 2.328125 -5.890625 L 2.328125 -6.03125 C 2.328125 -6.15625 2.367188 -6.257812 2.453125 -6.34375 C 2.535156 -6.425781 2.675781 -6.46875 2.875 -6.46875 C 3.070312 -6.46875 3.210938 -6.425781 3.296875 -6.34375 C 3.378906 -6.257812 3.421875 -6.15625 3.421875 -6.03125 L 3.421875 -5.890625 C 3.421875 -5.765625 3.378906 -5.660156 3.296875 -5.578125 C 3.210938 -5.492188 3.070312 -5.453125 2.875 -5.453125 Z M 0.921875 -0.59375 L 2.53125 -0.59375 L 2.53125 -3.875 L 0.921875 -3.875 L 0.921875 -4.46875 L 3.21875 -4.46875 L 3.21875 -0.59375 L 4.71875 -0.59375 L 4.71875 0 L 0.921875 0 Z M 0.921875 -0.59375 "/></g></g></g><g fill="#000000" fill-opacity="1"><g transform="translate(181.037809, 221.766835)"><g><path d="M 0.6875 -0.59375 L 2.25 -0.59375 L 2.25 -5.8125 L 0.6875 -5.8125 L 0.6875 -6.40625 L 2.9375 -6.40625 L 2.9375 -0.59375 L 4.5 -0.59375 L 4.5 0 L 0.6875 0 Z M 0.6875 -0.59375 "/></g></g></g><g fill="#000000" fill-opacity="1"><g transform="translate(187.611966, 221.766835)"><g><path d="M 2.875 -5.453125 C 2.675781 -5.453125 2.535156 -5.492188 2.453125 -5.578125 C 2.367188 -5.660156 2.328125 -5.765625 2.328125 -5.890625 L 2.328125 -6.03125 C 2.328125 -6.15625 2.367188 -6.257812 2.453125 -6.34375 C 2.535156 -6.425781 2.675781 -6.46875 2.875 -6.46875 C 3.070312 -6.46875 3.210938 -6.425781 3.296875 -6.34375 C 3.378906 -6.257812 3.421875 -6.15625 3.421875 -6.03125 L 3.421875 -5.890625 C 3.421875 -5.765625 3.378906 -5.660156 3.296875 -5.578125 C 3.210938 -5.492188 3.070312 -5.453125 2.875 -5.453125 Z M 0.921875 -0.59375 L 2.53125 -0.59375 L 2.53125 -3.875 L 0.921875 -3.875 L 0.921875 -4.46875 L 3.21875 -4.46875 L 3.21875 -0.59375 L 4.71875 -0.59375 L 4.71875 0 L 0.921875 0 Z M 0.921875 -0.59375 "/></g></g></g><g fill="#000000" fill-opacity="1"><g transform="translate(194.186123, 221.766835)"><g><path d="M 2.8125 0 C 2.46875 0 2.21875 -0.09375 2.0625 -0.28125 C 1.90625 -0.476562 1.828125 -0.722656 1.828125 -1.015625 L 1.828125 -3.875 L 0.34375 -3.875 L 0.34375 -4.46875 L 1.453125 -4.46875 C 1.597656 -4.46875 1.703125 -4.492188 1.765625 -4.546875 C 1.828125 -4.609375 1.859375 -4.71875 1.859375 -4.875 L 1.859375 -6.046875 L 2.515625 -6.046875 L 2.515625 -4.46875 L 4.546875 -4.46875 L 4.546875 -3.875 L 2.515625 -3.875 L 2.515625 -0.59375 L 4.546875 -0.59375 L 4.546875 0 Z M 2.8125 0 "/></g></g></g><g fill="#000000" fill-opacity="1"><g transform="translate(200.760279, 221.766835)"><g><path d="M 4.046875 -4.46875 L 4.734375 -4.46875 L 2.515625 0.984375 C 2.460938 1.109375 2.40625 1.21875 2.34375 1.3125 C 2.28125 1.40625 2.203125 1.484375 2.109375 1.546875 C 2.023438 1.609375 1.921875 1.65625 1.796875 1.6875 C 1.679688 1.71875 1.539062 1.734375 1.375 1.734375 L 0.71875 1.734375 L 0.71875 1.140625 L 1.75 1.140625 L 2.265625 -0.09375 L 0.453125 -4.46875 L 1.171875 -4.46875 L 1.921875 -2.59375 L 2.59375 -0.90625 L 2.625 -0.90625 L 3.296875 -2.59375 Z M 4.046875 -4.46875 "/></g></g></g></svg>