<svg xmlns="http://www.w3.org/2000/svg" xmlns:xlink="http://www.w3.org/1999/xlink" zoomAndPan="magnify" preserveAspectRatio="xMidYMid meet" version="1.0" viewBox="46.36 142.57 218.28 57.09"><defs><g/><clipPath id="026d356bb2"><path d="M 49.625 144.90625 L 81 144.90625 L 81 172 L 49.625 172 Z M 49.625 144.90625 " clip-rule="nonzero"/></clipPath><clipPath id="3d9ab228ca"><path d="M 74 159 L 104.375 159 L 104.375 186 L 74 186 Z M 74 159 " clip-rule="nonzero"/></clipPath><clipPath id="3079e326c0"><path d="M 49.625 172 L 81 172 L 81 199.65625 L 49.625 199.65625 Z M 49.625 172 " clip-rule="nonzero"/></clipPath><clipPath id="a5ba2259fe"><path d="M 46.355469 142.570312 L 78 142.570312 L 78 170 L 46.355469 170 Z M 46.355469 142.570312 " clip-rule="nonzero"/></clipPath><clipPath id="5468c674bb"><path d="M 70 156 L 101.105469 156 L 101.105469 184 L 70 184 Z M 70 156 " clip-rule="nonzero"/></clipPath><clipPath id="9ecb417452"><path d="M 46.355469 170 L 78 170 L 78 197.320312 L 46.355469 197.320312 Z M 46.355469 170 " clip-rule="nonzero"/></clipPath></defs><g fill="#000000" fill-opacity="1"><g transform="translate(111.425608, 181.072741)"><g><path d="M 3.4375 0 L 3.4375 -29.171875 L 19.078125 -29.171875 L 23.1875 -25.015625 L 23.1875 -18.171875 L 21.375 -15.71875 L 24.734375 -12.3125 L 24.734375 -4.15625 L 20.578125 0 Z M 7.046875 -16.9375 L 17.921875 -16.9375 L 19.59375 -19.203125 L 19.59375 -23.78125 L 17.453125 -26 L 7.046875 -25.96875 Z M 7.046875 -3.203125 L 18.953125 -3.203125 L 21.140625 -5.375 L 21.140625 -11.359375 L 18.84375 -13.734375 L 7.046875 -13.734375 Z M 7.046875 -3.203125 "/></g></g></g><g fill="#000000" fill-opacity="1"><g transform="translate(138.733436, 181.072741)"><g><path d="M 6.921875 0 L 2.765625 -4.15625 L 2.765625 -16.546875 L 6.921875 -20.703125 L 16.140625 -20.703125 L 20.296875 -16.546875 L 20.296875 -9.0625 L 6.25 -9.0625 L 6.25 -5.0625 L 8.4375 -2.890625 L 19.953125 -2.890625 L 19.953125 0 Z M 6.25 -11.828125 L 16.828125 -11.828125 L 16.828125 -15.75 L 14.640625 -17.921875 L 8.4375 -17.921875 L 6.25 -15.75 Z M 6.25 -11.828125 "/></g></g></g><g fill="#000000" fill-opacity="1"><g transform="translate(161.806575, 181.072741)"><g><path d="M 6.921875 0 L 2.765625 -4.15625 L 2.765625 -16.546875 L 6.921875 -20.703125 L 16.140625 -20.703125 L 20.296875 -16.546875 L 20.296875 -9.0625 L 6.25 -9.0625 L 6.25 -5.0625 L 8.4375 -2.890625 L 19.953125 -2.890625 L 19.953125 0 Z M 6.25 -11.828125 L 16.828125 -11.828125 L 16.828125 -15.75 L 14.640625 -17.921875 L 8.4375 -17.921875 L 6.25 -15.75 Z M 6.25 -11.828125 "/></g></g></g><g fill="#000000" fill-opacity="1"><g transform="translate(184.879714, 181.072741)"><g/></g></g><g fill="#000000" fill-opacity="1"><g transform="translate(193.665712, 181.072741)"><g><path d="M 3.4375 0 L 3.4375 -29.171875 L 22.25 -29.171875 L 22.25 -25.84375 L 7.046875 -25.84375 L 7.046875 -16.421875 L 20.375 -16.421875 L 20.375 -13.140625 L 7.046875 -13.140625 L 7.046875 0 Z M 3.4375 0 "/></g></g></g><g fill="#000000" fill-opacity="1"><g transform="translate(216.501389, 181.072741)"><g><path d="M 5.5 0 L 1.390625 -4.15625 L 1.390625 -8.859375 L 5.5 -13.015625 L 16.03125 -13.015625 L 16.03125 -15.59375 L 13.890625 -17.765625 L 4.078125 -17.765625 L 4.078125 -20.703125 L 15.390625 -20.703125 L 19.515625 -16.546875 L 19.515625 0 L 16.03125 0 L 16.03125 -3.203125 L 12.828125 0 Z M 7.046875 -2.765625 L 11.953125 -2.765625 L 16.03125 -6.8125 L 16.03125 -10.296875 L 7.046875 -10.25 L 4.875 -8.109375 L 4.875 -4.953125 Z M 7.046875 -2.765625 "/></g></g></g><g fill="#000000" fill-opacity="1"><g transform="translate(239.060027, 181.072741)"><g><path d="M 3.25 -22.953125 L 3.25 -27.625 L 6.734375 -27.625 L 6.734375 -22.953125 Z M 3.25 0 L 3.25 -20.703125 L 6.734375 -20.703125 L 6.734375 0 Z M 3.25 0 "/></g></g></g><g fill="#000000" fill-opacity="1"><g transform="translate(248.993743, 181.072741)"><g><path d="M 3.25 0 L 3.25 -20.703125 L 6.734375 -20.703125 L 6.734375 -16.984375 L 10.328125 -20.703125 L 15.640625 -20.703125 L 15.640625 -17.21875 L 10.484375 -17.21875 L 6.734375 -13.34375 L 6.734375 0 Z M 3.25 0 "/></g></g></g><g clip-path="url(#026d356bb2)"><path fill="#fbcb1c" d="M 72.484375 144.90625 L 57.246094 144.90625 L 49.625 158.105469 L 57.246094 171.304688 L 72.484375 171.304688 L 80.105469 158.105469 Z M 72.484375 144.90625 " fill-opacity="1" fill-rule="nonzero"/></g><g clip-path="url(#3d9ab228ca)"><path fill="#fbcb1c" d="M 97.058594 159.125 L 81.820312 159.125 L 74.199219 172.324219 L 81.820312 185.519531 L 97.058594 185.519531 L 104.679688 172.324219 Z M 97.058594 159.125 " fill-opacity="1" fill-rule="nonzero"/></g><g clip-path="url(#3079e326c0)"><path fill="#fbcb1c" d="M 72.484375 172.992188 L 57.246094 172.992188 L 49.625 186.191406 L 57.246094 199.386719 L 72.484375 199.386719 L 80.105469 186.191406 Z M 72.484375 172.992188 " fill-opacity="1" fill-rule="nonzero"/></g><g clip-path="url(#a5ba2259fe)"><path fill="#211c1d" d="M 69.507812 169.304688 L 54.074219 169.304688 L 46.355469 155.9375 L 54.074219 142.570312 L 69.507812 142.570312 L 77.222656 155.9375 Z M 54.671875 168.265625 L 68.90625 168.265625 L 76.023438 155.9375 L 68.90625 143.609375 L 54.671875 143.609375 L 47.554688 155.9375 Z M 54.671875 168.265625 " fill-opacity="1" fill-rule="nonzero"/></g><g clip-path="url(#5468c674bb)"><path fill="#211c1d" d="M 93.695312 183.324219 L 78.261719 183.324219 L 70.542969 169.957031 L 78.261719 156.589844 L 93.695312 156.589844 L 101.410156 169.957031 Z M 78.859375 182.285156 L 93.09375 182.285156 L 100.214844 169.957031 L 93.09375 157.628906 L 78.859375 157.628906 L 71.742188 169.957031 Z M 78.859375 182.285156 " fill-opacity="1" fill-rule="nonzero"/></g><g clip-path="url(#9ecb417452)"><path fill="#211c1d" d="M 69.507812 197.1875 L 54.074219 197.1875 L 46.355469 183.820312 L 54.074219 170.453125 L 69.507812 170.453125 L 77.222656 183.820312 Z M 54.671875 196.148438 L 68.90625 196.148438 L 76.023438 183.820312 L 68.90625 171.492188 L 54.671875 171.492188 L 47.554688 183.820312 Z M 54.671875 196.148438 " fill-opacity="1" fill-rule="nonzero"/></g><g fill="#000000" fill-opacity="1"><g transform="translate(114.486998, 193.903975)"><g><path d="M 0.6875 -5.46875 L 2.546875 -5.46875 C 3.015625 -5.46875 3.382812 -5.335938 3.65625 -5.078125 C 3.925781 -4.828125 4.0625 -4.488281 4.0625 -4.0625 C 4.0625 -3.726562 3.976562 -3.46875 3.8125 -3.28125 C 3.65625 -3.09375 3.453125 -2.960938 3.203125 -2.890625 L 3.203125 -2.859375 C 3.503906 -2.785156 3.753906 -2.648438 3.953125 -2.453125 C 4.160156 -2.253906 4.265625 -1.960938 4.265625 -1.578125 C 4.265625 -1.359375 4.226562 -1.148438 4.15625 -0.953125 C 4.082031 -0.765625 3.976562 -0.597656 3.84375 -0.453125 C 3.707031 -0.316406 3.546875 -0.207031 3.359375 -0.125 C 3.179688 -0.0390625 2.988281 0 2.78125 0 L 0.6875 0 Z M 2.59375 -0.578125 C 2.894531 -0.578125 3.128906 -0.644531 3.296875 -0.78125 C 3.472656 -0.914062 3.5625 -1.125 3.5625 -1.40625 L 3.5625 -1.71875 C 3.5625 -2 3.472656 -2.207031 3.296875 -2.34375 C 3.128906 -2.488281 2.894531 -2.5625 2.59375 -2.5625 L 1.34375 -2.5625 L 1.34375 -0.578125 Z M 2.484375 -3.09375 C 2.753906 -3.09375 2.96875 -3.15625 3.125 -3.28125 C 3.28125 -3.40625 3.359375 -3.59375 3.359375 -3.84375 L 3.359375 -4.15625 C 3.359375 -4.40625 3.28125 -4.59375 3.125 -4.71875 C 2.96875 -4.84375 2.753906 -4.90625 2.484375 -4.90625 L 1.34375 -4.90625 L 1.34375 -3.09375 Z M 2.484375 -3.09375 "/></g></g></g><g fill="#000000" fill-opacity="1"><g transform="translate(120.446663, 193.903975)"><g><path d="M 3.3125 -0.65625 L 3.28125 -0.65625 C 3.238281 -0.5625 3.1875 -0.46875 3.125 -0.375 C 3.0625 -0.28125 2.984375 -0.195312 2.890625 -0.125 C 2.796875 -0.0625 2.6875 -0.0078125 2.5625 0.03125 C 2.4375 0.0703125 2.289062 0.09375 2.125 0.09375 C 1.695312 0.09375 1.351562 -0.0390625 1.09375 -0.3125 C 0.84375 -0.582031 0.71875 -0.960938 0.71875 -1.453125 L 0.71875 -4.046875 L 1.34375 -4.046875 L 1.34375 -1.5625 C 1.34375 -1.1875 1.421875 -0.910156 1.578125 -0.734375 C 1.742188 -0.554688 1.988281 -0.46875 2.3125 -0.46875 C 2.4375 -0.46875 2.554688 -0.484375 2.671875 -0.515625 C 2.796875 -0.546875 2.90625 -0.59375 3 -0.65625 C 3.09375 -0.71875 3.164062 -0.796875 3.21875 -0.890625 C 3.28125 -0.984375 3.3125 -1.097656 3.3125 -1.234375 L 3.3125 -4.046875 L 3.9375 -4.046875 L 3.9375 0 L 3.3125 0 Z M 3.3125 -0.65625 "/></g></g></g><g fill="#000000" fill-opacity="1"><g transform="translate(126.406328, 193.903975)"><g><path d="M 2.609375 -4.9375 C 2.421875 -4.9375 2.289062 -4.972656 2.21875 -5.046875 C 2.144531 -5.128906 2.109375 -5.226562 2.109375 -5.34375 L 2.109375 -5.46875 C 2.109375 -5.582031 2.144531 -5.675781 2.21875 -5.75 C 2.289062 -5.820312 2.421875 -5.859375 2.609375 -5.859375 C 2.785156 -5.859375 2.910156 -5.820312 2.984375 -5.75 C 3.054688 -5.675781 3.09375 -5.582031 3.09375 -5.46875 L 3.09375 -5.34375 C 3.09375 -5.226562 3.054688 -5.128906 2.984375 -5.046875 C 2.910156 -4.972656 2.785156 -4.9375 2.609375 -4.9375 Z M 0.828125 -0.53125 L 2.296875 -0.53125 L 2.296875 -3.515625 L 0.828125 -3.515625 L 0.828125 -4.046875 L 2.921875 -4.046875 L 2.921875 -0.53125 L 4.28125 -0.53125 L 4.28125 0 L 0.828125 0 Z M 0.828125 -0.53125 "/></g></g></g><g fill="#000000" fill-opacity="1"><g transform="translate(132.365993, 193.903975)"><g><path d="M 0.625 -0.53125 L 2.046875 -0.53125 L 2.046875 -5.265625 L 0.625 -5.265625 L 0.625 -5.796875 L 2.671875 -5.796875 L 2.671875 -0.53125 L 4.078125 -0.53125 L 4.078125 0 L 0.625 0 Z M 0.625 -0.53125 "/></g></g></g><g fill="#000000" fill-opacity="1"><g transform="translate(138.325659, 193.903975)"><g><path d="M 3.328125 -0.65625 L 3.296875 -0.65625 C 3.035156 -0.15625 2.625 0.09375 2.0625 0.09375 C 1.5625 0.09375 1.171875 -0.0859375 0.890625 -0.453125 C 0.609375 -0.828125 0.46875 -1.351562 0.46875 -2.03125 C 0.46875 -2.695312 0.609375 -3.210938 0.890625 -3.578125 C 1.171875 -3.953125 1.5625 -4.140625 2.0625 -4.140625 C 2.625 -4.140625 3.035156 -3.890625 3.296875 -3.390625 L 3.328125 -3.390625 L 3.328125 -5.796875 L 3.96875 -5.796875 L 3.96875 0 L 3.328125 0 Z M 2.296875 -0.46875 C 2.441406 -0.46875 2.578125 -0.484375 2.703125 -0.515625 C 2.828125 -0.554688 2.9375 -0.609375 3.03125 -0.671875 C 3.125 -0.742188 3.195312 -0.832031 3.25 -0.9375 C 3.300781 -1.039062 3.328125 -1.160156 3.328125 -1.296875 L 3.328125 -2.75 C 3.328125 -2.882812 3.300781 -3.003906 3.25 -3.109375 C 3.195312 -3.210938 3.125 -3.296875 3.03125 -3.359375 C 2.9375 -3.429688 2.828125 -3.484375 2.703125 -3.515625 C 2.578125 -3.554688 2.441406 -3.578125 2.296875 -3.578125 C 1.929688 -3.578125 1.644531 -3.46875 1.4375 -3.25 C 1.238281 -3.03125 1.140625 -2.738281 1.140625 -2.375 L 1.140625 -1.671875 C 1.140625 -1.304688 1.238281 -1.015625 1.4375 -0.796875 C 1.644531 -0.578125 1.929688 -0.46875 2.296875 -0.46875 Z M 2.296875 -0.46875 "/></g></g></g><g fill="#000000" fill-opacity="1"><g transform="translate(144.285323, 193.903975)"><g><path d="M 2.609375 -4.9375 C 2.421875 -4.9375 2.289062 -4.972656 2.21875 -5.046875 C 2.144531 -5.128906 2.109375 -5.226562 2.109375 -5.34375 L 2.109375 -5.46875 C 2.109375 -5.582031 2.144531 -5.675781 2.21875 -5.75 C 2.289062 -5.820312 2.421875 -5.859375 2.609375 -5.859375 C 2.785156 -5.859375 2.910156 -5.820312 2.984375 -5.75 C 3.054688 -5.675781 3.09375 -5.582031 3.09375 -5.46875 L 3.09375 -5.34375 C 3.09375 -5.226562 3.054688 -5.128906 2.984375 -5.046875 C 2.910156 -4.972656 2.785156 -4.9375 2.609375 -4.9375 Z M 0.828125 -0.53125 L 2.296875 -0.53125 L 2.296875 -3.515625 L 0.828125 -3.515625 L 0.828125 -4.046875 L 2.921875 -4.046875 L 2.921875 -0.53125 L 4.28125 -0.53125 L 4.28125 0 L 0.828125 0 Z M 0.828125 -0.53125 "/></g></g></g><g fill="#000000" fill-opacity="1"><g transform="translate(150.244987, 193.903975)"><g><path d="M 0.765625 0 L 0.765625 -4.046875 L 1.390625 -4.046875 L 1.390625 -3.390625 L 1.421875 -3.390625 C 1.460938 -3.484375 1.515625 -3.578125 1.578125 -3.671875 C 1.640625 -3.765625 1.71875 -3.84375 1.8125 -3.90625 C 1.90625 -3.976562 2.015625 -4.035156 2.140625 -4.078125 C 2.265625 -4.117188 2.410156 -4.140625 2.578125 -4.140625 C 3.003906 -4.140625 3.34375 -4.003906 3.59375 -3.734375 C 3.851562 -3.460938 3.984375 -3.082031 3.984375 -2.59375 L 3.984375 0 L 3.359375 0 L 3.359375 -2.484375 C 3.359375 -2.859375 3.273438 -3.132812 3.109375 -3.3125 C 2.953125 -3.488281 2.71875 -3.578125 2.40625 -3.578125 C 2.28125 -3.578125 2.15625 -3.5625 2.03125 -3.53125 C 1.90625 -3.5 1.796875 -3.453125 1.703125 -3.390625 C 1.609375 -3.328125 1.53125 -3.242188 1.46875 -3.140625 C 1.414062 -3.046875 1.390625 -2.9375 1.390625 -2.8125 L 1.390625 0 Z M 0.765625 0 "/></g></g></g><g fill="#000000" fill-opacity="1"><g transform="translate(156.204651, 193.903975)"><g><path d="M 4.40625 0.46875 C 4.40625 0.875 4.234375 1.171875 3.890625 1.359375 C 3.546875 1.554688 3.035156 1.65625 2.359375 1.65625 C 1.703125 1.65625 1.234375 1.566406 0.953125 1.390625 C 0.671875 1.222656 0.53125 0.976562 0.53125 0.65625 C 0.53125 0.4375 0.585938 0.265625 0.703125 0.140625 C 0.816406 0.0234375 0.976562 -0.0625 1.1875 -0.125 L 1.1875 -0.21875 C 1.070312 -0.269531 0.984375 -0.335938 0.921875 -0.421875 C 0.859375 -0.515625 0.828125 -0.628906 0.828125 -0.765625 C 0.828125 -0.972656 0.894531 -1.128906 1.03125 -1.234375 C 1.164062 -1.335938 1.335938 -1.414062 1.546875 -1.46875 L 1.546875 -1.5 C 1.296875 -1.613281 1.101562 -1.773438 0.96875 -1.984375 C 0.832031 -2.203125 0.765625 -2.457031 0.765625 -2.75 C 0.765625 -2.945312 0.800781 -3.128906 0.875 -3.296875 C 0.945312 -3.472656 1.050781 -3.625 1.1875 -3.75 C 1.320312 -3.875 1.488281 -3.96875 1.6875 -4.03125 C 1.882812 -4.101562 2.097656 -4.140625 2.328125 -4.140625 C 2.628906 -4.140625 2.894531 -4.085938 3.125 -3.984375 L 3.125 -4.046875 C 3.125 -4.203125 3.160156 -4.332031 3.234375 -4.4375 C 3.304688 -4.539062 3.429688 -4.59375 3.609375 -4.59375 L 4.359375 -4.59375 L 4.359375 -4.046875 L 3.453125 -4.046875 L 3.453125 -3.765625 C 3.597656 -3.640625 3.707031 -3.488281 3.78125 -3.3125 C 3.863281 -3.144531 3.90625 -2.957031 3.90625 -2.75 C 3.90625 -2.539062 3.863281 -2.347656 3.78125 -2.171875 C 3.707031 -2.003906 3.601562 -1.859375 3.46875 -1.734375 C 3.332031 -1.609375 3.164062 -1.507812 2.96875 -1.4375 C 2.78125 -1.375 2.566406 -1.34375 2.328125 -1.34375 C 2.265625 -1.34375 2.203125 -1.34375 2.140625 -1.34375 C 2.078125 -1.351562 2.007812 -1.363281 1.9375 -1.375 C 1.875 -1.363281 1.804688 -1.347656 1.734375 -1.328125 C 1.671875 -1.304688 1.609375 -1.273438 1.546875 -1.234375 C 1.492188 -1.191406 1.445312 -1.144531 1.40625 -1.09375 C 1.375 -1.039062 1.359375 -0.984375 1.359375 -0.921875 C 1.359375 -0.796875 1.414062 -0.710938 1.53125 -0.671875 C 1.65625 -0.640625 1.816406 -0.625 2.015625 -0.625 L 2.90625 -0.625 C 3.425781 -0.625 3.804688 -0.523438 4.046875 -0.328125 C 4.285156 -0.128906 4.40625 0.132812 4.40625 0.46875 Z M 3.8125 0.5 C 3.8125 0.332031 3.742188 0.195312 3.609375 0.09375 C 3.484375 0 3.257812 -0.046875 2.9375 -0.046875 L 1.53125 -0.046875 C 1.257812 0.0664062 1.125 0.253906 1.125 0.515625 C 1.125 0.691406 1.191406 0.84375 1.328125 0.96875 C 1.472656 1.09375 1.710938 1.15625 2.046875 1.15625 L 2.65625 1.15625 C 3.019531 1.15625 3.300781 1.097656 3.5 0.984375 C 3.707031 0.878906 3.8125 0.71875 3.8125 0.5 Z M 2.328125 -1.828125 C 2.640625 -1.828125 2.867188 -1.898438 3.015625 -2.046875 C 3.171875 -2.203125 3.25 -2.398438 3.25 -2.640625 L 3.25 -2.859375 C 3.25 -3.097656 3.171875 -3.289062 3.015625 -3.4375 C 2.867188 -3.582031 2.640625 -3.65625 2.328125 -3.65625 C 2.015625 -3.65625 1.785156 -3.582031 1.640625 -3.4375 C 1.492188 -3.289062 1.421875 -3.097656 1.421875 -2.859375 L 1.421875 -2.640625 C 1.421875 -2.398438 1.492188 -2.203125 1.640625 -2.046875 C 1.785156 -1.898438 2.015625 -1.828125 2.328125 -1.828125 Z M 2.328125 -1.828125 "/></g></g></g><g fill="#000000" fill-opacity="1"><g transform="translate(162.164315, 193.903975)"><g/></g></g><g fill="#000000" fill-opacity="1"><g transform="translate(168.123979, 193.903975)"><g><path d="M 0.703125 0 L 0.703125 -5.46875 L 4.15625 -5.46875 L 4.15625 -4.90625 L 1.359375 -4.90625 L 1.359375 -3.0625 L 3.921875 -3.0625 L 3.921875 -2.484375 L 1.359375 -2.484375 L 1.359375 0 Z M 0.703125 0 "/></g></g></g><g fill="#000000" fill-opacity="1"><g transform="translate(174.083643, 193.903975)"><g><path d="M 3.875 0 C 3.632812 0 3.460938 -0.0625 3.359375 -0.1875 C 3.253906 -0.3125 3.1875 -0.46875 3.15625 -0.65625 L 3.125 -0.65625 C 3.03125 -0.425781 2.882812 -0.242188 2.6875 -0.109375 C 2.5 0.0234375 2.238281 0.09375 1.90625 0.09375 C 1.476562 0.09375 1.140625 -0.015625 0.890625 -0.234375 C 0.640625 -0.453125 0.515625 -0.753906 0.515625 -1.140625 C 0.515625 -1.515625 0.648438 -1.800781 0.921875 -2 C 1.203125 -2.207031 1.648438 -2.3125 2.265625 -2.3125 L 3.125 -2.3125 L 3.125 -2.71875 C 3.125 -3.007812 3.039062 -3.226562 2.875 -3.375 C 2.707031 -3.53125 2.46875 -3.609375 2.15625 -3.609375 C 1.882812 -3.609375 1.660156 -3.550781 1.484375 -3.4375 C 1.316406 -3.332031 1.179688 -3.191406 1.078125 -3.015625 L 0.65625 -3.328125 C 0.707031 -3.429688 0.773438 -3.53125 0.859375 -3.625 C 0.953125 -3.726562 1.0625 -3.816406 1.1875 -3.890625 C 1.320312 -3.972656 1.472656 -4.035156 1.640625 -4.078125 C 1.804688 -4.117188 1.992188 -4.140625 2.203125 -4.140625 C 2.671875 -4.140625 3.046875 -4.019531 3.328125 -3.78125 C 3.609375 -3.539062 3.75 -3.207031 3.75 -2.78125 L 3.75 -0.546875 L 4.3125 -0.546875 L 4.3125 0 Z M 2.015625 -0.4375 C 2.179688 -0.4375 2.328125 -0.453125 2.453125 -0.484375 C 2.585938 -0.523438 2.703125 -0.578125 2.796875 -0.640625 C 2.898438 -0.710938 2.976562 -0.789062 3.03125 -0.875 C 3.09375 -0.96875 3.125 -1.066406 3.125 -1.171875 L 3.125 -1.84375 L 2.265625 -1.84375 C 1.878906 -1.84375 1.597656 -1.789062 1.421875 -1.6875 C 1.253906 -1.582031 1.171875 -1.429688 1.171875 -1.234375 L 1.171875 -1.0625 C 1.171875 -0.851562 1.242188 -0.695312 1.390625 -0.59375 C 1.546875 -0.488281 1.753906 -0.4375 2.015625 -0.4375 Z M 2.015625 -0.4375 "/></g></g></g><g fill="#000000" fill-opacity="1"><g transform="translate(180.043307, 193.903975)"><g><path d="M 2.609375 -4.9375 C 2.421875 -4.9375 2.289062 -4.972656 2.21875 -5.046875 C 2.144531 -5.128906 2.109375 -5.226562 2.109375 -5.34375 L 2.109375 -5.46875 C 2.109375 -5.582031 2.144531 -5.675781 2.21875 -5.75 C 2.289062 -5.820312 2.421875 -5.859375 2.609375 -5.859375 C 2.785156 -5.859375 2.910156 -5.820312 2.984375 -5.75 C 3.054688 -5.675781 3.09375 -5.582031 3.09375 -5.46875 L 3.09375 -5.34375 C 3.09375 -5.226562 3.054688 -5.128906 2.984375 -5.046875 C 2.910156 -4.972656 2.785156 -4.9375 2.609375 -4.9375 Z M 0.828125 -0.53125 L 2.296875 -0.53125 L 2.296875 -3.515625 L 0.828125 -3.515625 L 0.828125 -4.046875 L 2.921875 -4.046875 L 2.921875 -0.53125 L 4.28125 -0.53125 L 4.28125 0 L 0.828125 0 Z M 0.828125 -0.53125 "/></g></g></g><g fill="#000000" fill-opacity="1"><g transform="translate(186.002971, 193.903975)"><g><path d="M 0.609375 -0.53125 L 1.78125 -0.53125 L 1.78125 -3.515625 L 0.609375 -3.515625 L 0.609375 -4.046875 L 2.421875 -4.046875 L 2.421875 -3.03125 L 2.453125 -3.03125 C 2.535156 -3.34375 2.691406 -3.585938 2.921875 -3.765625 C 3.160156 -3.953125 3.457031 -4.046875 3.8125 -4.046875 L 4.390625 -4.046875 L 4.390625 -3.421875 L 3.625 -3.421875 C 3.257812 -3.421875 2.96875 -3.316406 2.75 -3.109375 C 2.53125 -2.898438 2.421875 -2.625 2.421875 -2.28125 L 2.421875 -0.53125 L 3.984375 -0.53125 L 3.984375 0 L 0.609375 0 Z M 0.609375 -0.53125 "/></g></g></g><g fill="#000000" fill-opacity="1"><g transform="translate(191.962635, 193.903975)"><g/></g></g><g fill="#000000" fill-opacity="1"><g transform="translate(197.922299, 193.903975)"><g><path d="M 3.765625 0 L 3.3125 -1.5625 L 1.390625 -1.5625 L 0.921875 0 L 0.25 0 L 1.921875 -5.46875 L 2.796875 -5.46875 L 4.46875 0 Z M 2.390625 -4.78125 L 2.3125 -4.78125 L 1.546875 -2.140625 L 3.15625 -2.140625 Z M 2.390625 -4.78125 "/></g></g></g><g fill="#000000" fill-opacity="1"><g transform="translate(203.881967, 193.903975)"><g><path d="M 0.65625 0 L 0.65625 -0.53125 L 2.03125 -0.53125 L 2.03125 -4.953125 L 0.65625 -4.953125 L 0.65625 -5.46875 L 4.046875 -5.46875 L 4.046875 -4.953125 L 2.6875 -4.953125 L 2.6875 -0.53125 L 4.046875 -0.53125 L 4.046875 0 Z M 0.65625 0 "/></g></g></g><g fill="#000000" fill-opacity="1"><g transform="translate(209.841631, 193.903975)"><g/></g></g><g fill="#000000" fill-opacity="1"><g transform="translate(215.801295, 193.903975)"><g><path d="M 2.6875 -4.90625 L 2.6875 0 L 2.03125 0 L 2.03125 -4.90625 L 0.203125 -4.90625 L 0.203125 -5.46875 L 4.515625 -5.46875 L 4.515625 -4.90625 Z M 2.6875 -4.90625 "/></g></g></g><g fill="#000000" fill-opacity="1"><g transform="translate(221.760959, 193.903975)"><g><path d="M 2.359375 0.09375 C 2.066406 0.09375 1.804688 0.046875 1.578125 -0.046875 C 1.359375 -0.148438 1.164062 -0.296875 1 -0.484375 C 0.84375 -0.671875 0.722656 -0.890625 0.640625 -1.140625 C 0.554688 -1.398438 0.515625 -1.695312 0.515625 -2.03125 C 0.515625 -2.34375 0.554688 -2.628906 0.640625 -2.890625 C 0.722656 -3.148438 0.84375 -3.375 1 -3.5625 C 1.164062 -3.75 1.359375 -3.890625 1.578125 -3.984375 C 1.804688 -4.085938 2.066406 -4.140625 2.359375 -4.140625 C 2.640625 -4.140625 2.890625 -4.085938 3.109375 -3.984375 C 3.335938 -3.890625 3.53125 -3.75 3.6875 -3.5625 C 3.851562 -3.375 3.976562 -3.148438 4.0625 -2.890625 C 4.144531 -2.628906 4.1875 -2.34375 4.1875 -2.03125 C 4.1875 -1.695312 4.144531 -1.398438 4.0625 -1.140625 C 3.976562 -0.890625 3.851562 -0.671875 3.6875 -0.484375 C 3.53125 -0.296875 3.335938 -0.148438 3.109375 -0.046875 C 2.890625 0.046875 2.640625 0.09375 2.359375 0.09375 Z M 2.359375 -0.453125 C 2.703125 -0.453125 2.976562 -0.554688 3.1875 -0.765625 C 3.40625 -0.972656 3.515625 -1.296875 3.515625 -1.734375 L 3.515625 -2.3125 C 3.515625 -2.75 3.40625 -3.070312 3.1875 -3.28125 C 2.976562 -3.488281 2.703125 -3.59375 2.359375 -3.59375 C 2.003906 -3.59375 1.71875 -3.488281 1.5 -3.28125 C 1.289062 -3.070312 1.1875 -2.75 1.1875 -2.3125 L 1.1875 -1.734375 C 1.1875 -1.296875 1.289062 -0.972656 1.5 -0.765625 C 1.71875 -0.554688 2.003906 -0.453125 2.359375 -0.453125 Z M 2.359375 -0.453125 "/></g></g></g><g fill="#000000" fill-opacity="1"><g transform="translate(227.720623, 193.903975)"><g><path d="M 4.40625 0.46875 C 4.40625 0.875 4.234375 1.171875 3.890625 1.359375 C 3.546875 1.554688 3.035156 1.65625 2.359375 1.65625 C 1.703125 1.65625 1.234375 1.566406 0.953125 1.390625 C 0.671875 1.222656 0.53125 0.976562 0.53125 0.65625 C 0.53125 0.4375 0.585938 0.265625 0.703125 0.140625 C 0.816406 0.0234375 0.976562 -0.0625 1.1875 -0.125 L 1.1875 -0.21875 C 1.070312 -0.269531 0.984375 -0.335938 0.921875 -0.421875 C 0.859375 -0.515625 0.828125 -0.628906 0.828125 -0.765625 C 0.828125 -0.972656 0.894531 -1.128906 1.03125 -1.234375 C 1.164062 -1.335938 1.335938 -1.414062 1.546875 -1.46875 L 1.546875 -1.5 C 1.296875 -1.613281 1.101562 -1.773438 0.96875 -1.984375 C 0.832031 -2.203125 0.765625 -2.457031 0.765625 -2.75 C 0.765625 -2.945312 0.800781 -3.128906 0.875 -3.296875 C 0.945312 -3.472656 1.050781 -3.625 1.1875 -3.75 C 1.320312 -3.875 1.488281 -3.96875 1.6875 -4.03125 C 1.882812 -4.101562 2.097656 -4.140625 2.328125 -4.140625 C 2.628906 -4.140625 2.894531 -4.085938 3.125 -3.984375 L 3.125 -4.046875 C 3.125 -4.203125 3.160156 -4.332031 3.234375 -4.4375 C 3.304688 -4.539062 3.429688 -4.59375 3.609375 -4.59375 L 4.359375 -4.59375 L 4.359375 -4.046875 L 3.453125 -4.046875 L 3.453125 -3.765625 C 3.597656 -3.640625 3.707031 -3.488281 3.78125 -3.3125 C 3.863281 -3.144531 3.90625 -2.957031 3.90625 -2.75 C 3.90625 -2.539062 3.863281 -2.347656 3.78125 -2.171875 C 3.707031 -2.003906 3.601562 -1.859375 3.46875 -1.734375 C 3.332031 -1.609375 3.164062 -1.507812 2.96875 -1.4375 C 2.78125 -1.375 2.566406 -1.34375 2.328125 -1.34375 C 2.265625 -1.34375 2.203125 -1.34375 2.140625 -1.34375 C 2.078125 -1.351562 2.007812 -1.363281 1.9375 -1.375 C 1.875 -1.363281 1.804688 -1.347656 1.734375 -1.328125 C 1.671875 -1.304688 1.609375 -1.273438 1.546875 -1.234375 C 1.492188 -1.191406 1.445312 -1.144531 1.40625 -1.09375 C 1.375 -1.039062 1.359375 -0.984375 1.359375 -0.921875 C 1.359375 -0.796875 1.414062 -0.710938 1.53125 -0.671875 C 1.65625 -0.640625 1.816406 -0.625 2.015625 -0.625 L 2.90625 -0.625 C 3.425781 -0.625 3.804688 -0.523438 4.046875 -0.328125 C 4.285156 -0.128906 4.40625 0.132812 4.40625 0.46875 Z M 3.8125 0.5 C 3.8125 0.332031 3.742188 0.195312 3.609375 0.09375 C 3.484375 0 3.257812 -0.046875 2.9375 -0.046875 L 1.53125 -0.046875 C 1.257812 0.0664062 1.125 0.253906 1.125 0.515625 C 1.125 0.691406 1.191406 0.84375 1.328125 0.96875 C 1.472656 1.09375 1.710938 1.15625 2.046875 1.15625 L 2.65625 1.15625 C 3.019531 1.15625 3.300781 1.097656 3.5 0.984375 C 3.707031 0.878906 3.8125 0.71875 3.8125 0.5 Z M 2.328125 -1.828125 C 2.640625 -1.828125 2.867188 -1.898438 3.015625 -2.046875 C 3.171875 -2.203125 3.25 -2.398438 3.25 -2.640625 L 3.25 -2.859375 C 3.25 -3.097656 3.171875 -3.289062 3.015625 -3.4375 C 2.867188 -3.582031 2.640625 -3.65625 2.328125 -3.65625 C 2.015625 -3.65625 1.785156 -3.582031 1.640625 -3.4375 C 1.492188 -3.289062 1.421875 -3.097656 1.421875 -2.859375 L 1.421875 -2.640625 C 1.421875 -2.398438 1.492188 -2.203125 1.640625 -2.046875 C 1.785156 -1.898438 2.015625 -1.828125 2.328125 -1.828125 Z M 2.328125 -1.828125 "/></g></g></g><g fill="#000000" fill-opacity="1"><g transform="translate(233.680287, 193.903975)"><g><path d="M 2.421875 0.09375 C 2.128906 0.09375 1.863281 0.046875 1.625 -0.046875 C 1.394531 -0.148438 1.195312 -0.296875 1.03125 -0.484375 C 0.875 -0.671875 0.75 -0.890625 0.65625 -1.140625 C 0.570312 -1.398438 0.53125 -1.691406 0.53125 -2.015625 C 0.53125 -2.335938 0.570312 -2.628906 0.65625 -2.890625 C 0.75 -3.148438 0.875 -3.375 1.03125 -3.5625 C 1.195312 -3.75 1.394531 -3.890625 1.625 -3.984375 C 1.851562 -4.085938 2.109375 -4.140625 2.390625 -4.140625 C 2.660156 -4.140625 2.90625 -4.085938 3.125 -3.984375 C 3.34375 -3.890625 3.53125 -3.753906 3.6875 -3.578125 C 3.851562 -3.398438 3.976562 -3.191406 4.0625 -2.953125 C 4.144531 -2.710938 4.1875 -2.453125 4.1875 -2.171875 L 4.1875 -1.859375 L 1.1875 -1.859375 L 1.1875 -1.671875 C 1.1875 -1.492188 1.210938 -1.328125 1.265625 -1.171875 C 1.328125 -1.023438 1.410156 -0.894531 1.515625 -0.78125 C 1.617188 -0.675781 1.75 -0.59375 1.90625 -0.53125 C 2.0625 -0.476562 2.234375 -0.453125 2.421875 -0.453125 C 2.691406 -0.453125 2.925781 -0.515625 3.125 -0.640625 C 3.320312 -0.765625 3.472656 -0.9375 3.578125 -1.15625 L 4.046875 -0.84375 C 3.921875 -0.570312 3.71875 -0.347656 3.4375 -0.171875 C 3.164062 0.00390625 2.828125 0.09375 2.421875 0.09375 Z M 2.390625 -3.625 C 2.210938 -3.625 2.050781 -3.59375 1.90625 -3.53125 C 1.757812 -3.46875 1.628906 -3.378906 1.515625 -3.265625 C 1.410156 -3.160156 1.328125 -3.03125 1.265625 -2.875 C 1.210938 -2.726562 1.1875 -2.566406 1.1875 -2.390625 L 1.1875 -2.34375 L 3.5 -2.34375 L 3.5 -2.421875 C 3.5 -2.597656 3.472656 -2.757812 3.421875 -2.90625 C 3.367188 -3.050781 3.289062 -3.175781 3.1875 -3.28125 C 3.09375 -3.394531 2.976562 -3.476562 2.84375 -3.53125 C 2.707031 -3.59375 2.554688 -3.625 2.390625 -3.625 Z M 2.390625 -3.625 "/></g></g></g><g fill="#000000" fill-opacity="1"><g transform="translate(239.639951, 193.903975)"><g><path d="M 2.546875 0 C 2.242188 0 2.019531 -0.0820312 1.875 -0.25 C 1.726562 -0.425781 1.65625 -0.648438 1.65625 -0.921875 L 1.65625 -3.515625 L 0.3125 -3.515625 L 0.3125 -4.046875 L 1.3125 -4.046875 C 1.445312 -4.046875 1.539062 -4.070312 1.59375 -4.125 C 1.644531 -4.1875 1.671875 -4.285156 1.671875 -4.421875 L 1.671875 -5.46875 L 2.28125 -5.46875 L 2.28125 -4.046875 L 4.125 -4.046875 L 4.125 -3.515625 L 2.28125 -3.515625 L 2.28125 -0.53125 L 4.125 -0.53125 L 4.125 0 Z M 2.546875 0 "/></g></g></g><g fill="#000000" fill-opacity="1"><g transform="translate(245.599615, 193.903975)"><g><path d="M 0.765625 -5.796875 L 1.390625 -5.796875 L 1.390625 -3.390625 L 1.421875 -3.390625 C 1.460938 -3.484375 1.515625 -3.578125 1.578125 -3.671875 C 1.640625 -3.765625 1.71875 -3.84375 1.8125 -3.90625 C 1.90625 -3.976562 2.015625 -4.035156 2.140625 -4.078125 C 2.265625 -4.117188 2.410156 -4.140625 2.578125 -4.140625 C 3.003906 -4.140625 3.34375 -4.003906 3.59375 -3.734375 C 3.851562 -3.460938 3.984375 -3.082031 3.984375 -2.59375 L 3.984375 0 L 3.359375 0 L 3.359375 -2.484375 C 3.359375 -2.859375 3.273438 -3.132812 3.109375 -3.3125 C 2.953125 -3.488281 2.71875 -3.578125 2.40625 -3.578125 C 2.28125 -3.578125 2.15625 -3.5625 2.03125 -3.53125 C 1.90625 -3.5 1.796875 -3.453125 1.703125 -3.390625 C 1.609375 -3.328125 1.53125 -3.242188 1.46875 -3.140625 C 1.414062 -3.046875 1.390625 -2.9375 1.390625 -2.8125 L 1.390625 0 L 0.765625 0 Z M 0.765625 -5.796875 "/></g></g></g><g fill="#000000" fill-opacity="1"><g transform="translate(251.559279, 193.903975)"><g><path d="M 2.421875 0.09375 C 2.128906 0.09375 1.863281 0.046875 1.625 -0.046875 C 1.394531 -0.148438 1.195312 -0.296875 1.03125 -0.484375 C 0.875 -0.671875 0.75 -0.890625 0.65625 -1.140625 C 0.570312 -1.398438 0.53125 -1.691406 0.53125 -2.015625 C 0.53125 -2.335938 0.570312 -2.628906 0.65625 -2.890625 C 0.75 -3.148438 0.875 -3.375 1.03125 -3.5625 C 1.195312 -3.75 1.394531 -3.890625 1.625 -3.984375 C 1.851562 -4.085938 2.109375 -4.140625 2.390625 -4.140625 C 2.660156 -4.140625 2.90625 -4.085938 3.125 -3.984375 C 3.34375 -3.890625 3.53125 -3.753906 3.6875 -3.578125 C 3.851562 -3.398438 3.976562 -3.191406 4.0625 -2.953125 C 4.144531 -2.710938 4.1875 -2.453125 4.1875 -2.171875 L 4.1875 -1.859375 L 1.1875 -1.859375 L 1.1875 -1.671875 C 1.1875 -1.492188 1.210938 -1.328125 1.265625 -1.171875 C 1.328125 -1.023438 1.410156 -0.894531 1.515625 -0.78125 C 1.617188 -0.675781 1.75 -0.59375 1.90625 -0.53125 C 2.0625 -0.476562 2.234375 -0.453125 2.421875 -0.453125 C 2.691406 -0.453125 2.925781 -0.515625 3.125 -0.640625 C 3.320312 -0.765625 3.472656 -0.9375 3.578125 -1.15625 L 4.046875 -0.84375 C 3.921875 -0.570312 3.71875 -0.347656 3.4375 -0.171875 C 3.164062 0.00390625 2.828125 0.09375 2.421875 0.09375 Z M 2.390625 -3.625 C 2.210938 -3.625 2.050781 -3.59375 1.90625 -3.53125 C 1.757812 -3.46875 1.628906 -3.378906 1.515625 -3.265625 C 1.410156 -3.160156 1.328125 -3.03125 1.265625 -2.875 C 1.210938 -2.726562 1.1875 -2.566406 1.1875 -2.390625 L 1.1875 -2.34375 L 3.5 -2.34375 L 3.5 -2.421875 C 3.5 -2.597656 3.472656 -2.757812 3.421875 -2.90625 C 3.367188 -3.050781 3.289062 -3.175781 3.1875 -3.28125 C 3.09375 -3.394531 2.976562 -3.476562 2.84375 -3.53125 C 2.707031 -3.59375 2.554688 -3.625 2.390625 -3.625 Z M 2.390625 -3.625 "/></g></g></g><g fill="#000000" fill-opacity="1"><g transform="translate(257.518943, 193.903975)"><g><path d="M 0.609375 -0.53125 L 1.78125 -0.53125 L 1.78125 -3.515625 L 0.609375 -3.515625 L 0.609375 -4.046875 L 2.421875 -4.046875 L 2.421875 -3.03125 L 2.453125 -3.03125 C 2.535156 -3.34375 2.691406 -3.585938 2.921875 -3.765625 C 3.160156 -3.953125 3.457031 -4.046875 3.8125 -4.046875 L 4.390625 -4.046875 L 4.390625 -3.421875 L 3.625 -3.421875 C 3.257812 -3.421875 2.96875 -3.316406 2.75 -3.109375 C 2.53125 -2.898438 2.421875 -2.625 2.421875 -2.28125 L 2.421875 -0.53125 L 3.984375 -0.53125 L 3.984375 0 L 0.609375 0 Z M 0.609375 -0.53125 "/></g></g></g></svg>